{
    "patcher": {
        "fileversion": 1,
        "appversion": {
            "major": 9,
            "minor": 1,
            "revision": 1,
            "architecture": "x64",
            "modernui": 1
        },
        "classnamespace": "box",
        "rect": [ 746.0, 151.0, 1000.0, 815.0 ],
        "boxes": [
            {
                "box": {
                    "id": "obj-18",
                    "maxclass": "newobj",
                    "numinlets": 1,
                    "numoutlets": 1,
                    "outlettype": [ "" ],
                    "patching_rect": [ 233.0, 201.97368228435516, 122.0, 22.0 ],
                    "text": "expr (1/($i1 / 60.0)*4)"
                }
            },
            {
                "box": {
                    "id": "obj-14",
                    "maxclass": "number",
                    "numinlets": 1,
                    "numoutlets": 2,
                    "outlettype": [ "", "bang" ],
                    "parameter_enable": 0,
                    "patching_rect": [ 173.02631413936615, 201.97368228435516, 50.0, 22.0 ]
                }
            },
            {
                "box": {
                    "id": "obj-12",
                    "maxclass": "newobj",
                    "numinlets": 1,
                    "numoutlets": 1,
                    "outlettype": [ "signal" ],
                    "patching_rect": [ 428.0, 409.2105224132538, 42.0, 22.0 ],
                    "text": "delta~"
                }
            },
            {
                "box": {
                    "id": "obj-11",
                    "maxclass": "live.scope~",
                    "numinlets": 2,
                    "numoutlets": 1,
                    "outlettype": [ "bang" ],
                    "patching_rect": [ 428.0, 449.9999957084656, 184.0, 68.0 ]
                }
            },
            {
                "box": {
                    "id": "obj-10",
                    "maxclass": "newobj",
                    "numinlets": 1,
                    "numoutlets": 2,
                    "outlettype": [ "bang", "bang" ],
                    "patching_rect": [ 177.02631413936615, 462.0, 42.0, 22.0 ],
                    "text": "edge~"
                }
            },
            {
                "box": {
                    "id": "obj-9",
                    "maxclass": "newobj",
                    "numinlets": 1,
                    "numoutlets": 3,
                    "outlettype": [ "signal", "signal", "int" ],
                    "patching_rect": [ 233.0, 363.0, 60.0, 22.0 ],
                    "text": "subdiv~ 2"
                }
            },
            {
                "box": {
                    "format": 6,
                    "id": "obj-8",
                    "maxclass": "flonum",
                    "numinlets": 1,
                    "numoutlets": 2,
                    "outlettype": [ "", "bang" ],
                    "parameter_enable": 0,
                    "patching_rect": [ 233.0, 246.05262923240662, 50.0, 22.0 ]
                }
            },
            {
                "box": {
                    "id": "obj-6",
                    "maxclass": "newobj",
                    "numinlets": 2,
                    "numoutlets": 9,
                    "outlettype": [ "int", "int", "float", "float", "float", "", "int", "float", "" ],
                    "patching_rect": [ 191.0, 137.49999868869781, 103.0, 22.0 ],
                    "text": "transport"
                }
            },
            {
                "box": {
                    "id": "obj-4",
                    "maxclass": "live.scope~",
                    "numinlets": 2,
                    "numoutlets": 1,
                    "outlettype": [ "bang" ],
                    "patching_rect": [ 235.89473867416382, 449.34210097789764, 184.0, 68.0 ]
                }
            },
            {
                "box": {
                    "id": "obj-3",
                    "maxclass": "newobj",
                    "numinlets": 1,
                    "numoutlets": 3,
                    "outlettype": [ "signal", "signal", "int" ],
                    "patching_rect": [ 233.0, 318.0, 46.0, 22.0 ],
                    "text": "swing~"
                }
            },
            {
                "box": {
                    "id": "obj-2",
                    "maxclass": "newobj",
                    "numinlets": 2,
                    "numoutlets": 1,
                    "outlettype": [ "signal" ],
                    "patching_rect": [ 233.0, 277.0, 52.0, 22.0 ],
                    "text": "phasor~"
                }
            },
            {
                "box": {
                    "attr": "swing",
                    "id": "obj-5",
                    "maxclass": "attrui",
                    "numinlets": 1,
                    "numoutlets": 1,
                    "outlettype": [ "" ],
                    "parameter_enable": 0,
                    "patching_rect": [ 320.0, 284.0, 150.0, 22.0 ]
                }
            }
        ],
        "lines": [
            {
                "patchline": {
                    "destination": [ "obj-11", 0 ],
                    "source": [ "obj-12", 0 ]
                }
            },
            {
                "patchline": {
                    "destination": [ "obj-8", 0 ],
                    "source": [ "obj-18", 0 ]
                }
            },
            {
                "patchline": {
                    "destination": [ "obj-3", 0 ],
                    "source": [ "obj-2", 0 ]
                }
            },
            {
                "patchline": {
                    "destination": [ "obj-9", 0 ],
                    "source": [ "obj-3", 0 ]
                }
            },
            {
                "patchline": {
                    "destination": [ "obj-3", 0 ],
                    "source": [ "obj-5", 0 ]
                }
            },
            {
                "patchline": {
                    "destination": [ "obj-14", 0 ],
                    "order": 1,
                    "source": [ "obj-6", 4 ]
                }
            },
            {
                "patchline": {
                    "destination": [ "obj-18", 0 ],
                    "order": 0,
                    "source": [ "obj-6", 4 ]
                }
            },
            {
                "patchline": {
                    "destination": [ "obj-2", 0 ],
                    "source": [ "obj-8", 0 ]
                }
            },
            {
                "patchline": {
                    "destination": [ "obj-10", 0 ],
                    "order": 2,
                    "source": [ "obj-9", 0 ]
                }
            },
            {
                "patchline": {
                    "destination": [ "obj-12", 0 ],
                    "order": 0,
                    "source": [ "obj-9", 0 ]
                }
            },
            {
                "patchline": {
                    "destination": [ "obj-4", 0 ],
                    "order": 1,
                    "source": [ "obj-9", 0 ]
                }
            }
        ],
        "autosave": 0
    }
}