{
    "patcher": {
        "fileversion": 1,
        "appversion": {
            "major": 9,
            "minor": 1,
            "revision": 1,
            "architecture": "x64",
            "modernui": 1
        },
        "classnamespace": "box",
        "rect": [ 31.0, 215.0, 1542.0, 854.0 ],
        "boxes": [
            {
                "box": {
                    "id": "obj-86",
                    "maxclass": "message",
                    "numinlets": 2,
                    "numoutlets": 1,
                    "outlettype": [ "" ],
                    "patching_rect": [ 1252.0, 92.0, 286.0, 22.0 ],
                    "presentation_linecount": 2,
                    "text": "0.127792 20000. 0. 67. 0 0.52649 0. 0.491525 -1. 1."
                }
            },
            {
                "box": {
                    "id": "obj-84",
                    "maxclass": "message",
                    "numinlets": 2,
                    "numoutlets": 1,
                    "outlettype": [ "" ],
                    "patching_rect": [ 797.0, 65.0, 72.0, 22.0 ],
                    "text": "0, 1 0 0 300"
                }
            },
            {
                "box": {
                    "id": "obj-85",
                    "maxclass": "newobj",
                    "numinlets": 2,
                    "numoutlets": 3,
                    "outlettype": [ "signal", "signal", "bang" ],
                    "patching_rect": [ 797.0, 99.0, 201.0, 22.0 ],
                    "text": "line~ @activeout 1"
                }
            },
            {
                "box": {
                    "id": "obj-83",
                    "linecount": 4,
                    "maxclass": "message",
                    "numinlets": 2,
                    "numoutlets": 1,
                    "outlettype": [ "" ],
                    "patching_rect": [ 698.0, 222.0, 149.0, 64.0 ],
                    "presentation_linecount": 3,
                    "text": "0.016562 300.643385 0.119735 9188.092688 0. 0.844371 0. 0.769748 0.936455 0.634825"
                }
            },
            {
                "box": {
                    "id": "obj-80",
                    "maxclass": "newobj",
                    "numinlets": 10,
                    "numoutlets": 1,
                    "outlettype": [ "" ],
                    "patching_rect": [ 1076.0, 557.0, 113.5, 22.0 ],
                    "text": "join 10 @triggers -1"
                }
            },
            {
                "box": {
                    "id": "obj-81",
                    "linecount": 2,
                    "maxclass": "message",
                    "numinlets": 2,
                    "numoutlets": 1,
                    "outlettype": [ "" ],
                    "patching_rect": [ 1076.0, 589.0, 191.0, 36.0 ],
                    "presentation_linecount": 2,
                    "text": "0.127792 20000. 0. 67. 0. 0.52649 0. 0.491525 -1. 1."
                }
            },
            {
                "box": {
                    "id": "obj-73",
                    "maxclass": "number",
                    "numinlets": 1,
                    "numoutlets": 2,
                    "outlettype": [ "", "bang" ],
                    "parameter_enable": 0,
                    "patching_rect": [ 1019.0, 118.0, 50.0, 22.0 ]
                }
            },
            {
                "box": {
                    "fontname": "Arial",
                    "fontsize": 13.0,
                    "format": 6,
                    "id": "obj-74",
                    "maxclass": "flonum",
                    "maximum": 1.0,
                    "minimum": 0.0,
                    "numinlets": 1,
                    "numoutlets": 2,
                    "outlettype": [ "", "bang" ],
                    "parameter_enable": 1,
                    "patching_rect": [ 1019.0, 176.0, 50.0, 23.0 ],
                    "saved_attribute_attributes": {
                        "valueof": {
                            "parameter_initial": [ 0.5 ],
                            "parameter_initial_enable": 1,
                            "parameter_invisible": 1,
                            "parameter_longname": "flonum[2]",
                            "parameter_mmax": 1.0,
                            "parameter_modmode": 0,
                            "parameter_shortname": "flonum",
                            "parameter_type": 0
                        }
                    },
                    "varname": "flonum[1]"
                }
            },
            {
                "box": {
                    "fontname": "Arial",
                    "fontsize": 13.0,
                    "id": "obj-75",
                    "maxclass": "number",
                    "numinlets": 1,
                    "numoutlets": 2,
                    "outlettype": [ "", "bang" ],
                    "parameter_enable": 1,
                    "patching_rect": [ 1019.0, 227.5, 50.0, 23.0 ],
                    "saved_attribute_attributes": {
                        "valueof": {
                            "parameter_initial": [ 1000 ],
                            "parameter_initial_enable": 1,
                            "parameter_invisible": 1,
                            "parameter_longname": "number[1]",
                            "parameter_modmode": 0,
                            "parameter_shortname": "number[2]",
                            "parameter_type": 3
                        }
                    },
                    "varname": "number[1]"
                }
            },
            {
                "box": {
                    "fontname": "Arial",
                    "fontsize": 13.0,
                    "id": "obj-76",
                    "maxclass": "number",
                    "numinlets": 1,
                    "numoutlets": 2,
                    "outlettype": [ "", "bang" ],
                    "parameter_enable": 1,
                    "patching_rect": [ 1015.0, 149.0, 50.0, 23.0 ],
                    "saved_attribute_attributes": {
                        "valueof": {
                            "parameter_initial": [ 100 ],
                            "parameter_initial_enable": 1,
                            "parameter_invisible": 1,
                            "parameter_longname": "number[2]",
                            "parameter_modmode": 0,
                            "parameter_shortname": "number[2]",
                            "parameter_type": 3
                        }
                    },
                    "varname": "number[4]"
                }
            },
            {
                "box": {
                    "fontname": "Arial",
                    "fontsize": 13.0,
                    "id": "obj-77",
                    "maxclass": "comment",
                    "numinlets": 1,
                    "numoutlets": 0,
                    "patching_rect": [ 1078.0, 149.0, 73.0, 21.0 ],
                    "text": "decay (ms)",
                    "textcolor": [ 0.501961, 0.501961, 0.501961, 1.0 ]
                }
            },
            {
                "box": {
                    "fontname": "Arial",
                    "fontsize": 13.0,
                    "id": "obj-78",
                    "maxclass": "comment",
                    "numinlets": 1,
                    "numoutlets": 0,
                    "patching_rect": [ 1075.0, 178.0, 78.0, 21.0 ],
                    "text": "sustain gain",
                    "textcolor": [ 0.501961, 0.501961, 0.501961, 1.0 ]
                }
            },
            {
                "box": {
                    "fontname": "Arial",
                    "fontsize": 13.0,
                    "id": "obj-79",
                    "maxclass": "comment",
                    "numinlets": 1,
                    "numoutlets": 0,
                    "patching_rect": [ 1076.0, 212.0, 81.0, 21.0 ],
                    "text": "release (ms)",
                    "textcolor": [ 0.501961, 0.501961, 0.501961, 1.0 ]
                }
            },
            {
                "box": {
                    "attack_slope": 0.491525,
                    "attack_time": 0.127792,
                    "decay_slope": -1.0,
                    "decay_time": 20000.0,
                    "id": "obj-71",
                    "maxclass": "live.adsrui",
                    "numinlets": 10,
                    "numoutlets": 10,
                    "outlettype": [ "", "", "", "", "", "", "", "", "", "" ],
                    "patching_rect": [ 881.0, 289.0, 298.34803325060767, 100.66666722297668 ],
                    "peak": 0.52649,
                    "release_time": 67.0,
                    "sustain": 0.0
                }
            },
            {
                "box": {
                    "fontsize": 13.0,
                    "id": "obj-72",
                    "maxclass": "newobj",
                    "numinlets": 11,
                    "numoutlets": 3,
                    "outlettype": [ "signal", "signal", "" ],
                    "patching_rect": [ 822.0, 420.0, 328.8083509286808, 23.0 ],
                    "text": "live.adsr~ 600. 100. 0.5 1000."
                }
            },
            {
                "box": {
                    "id": "obj-68",
                    "maxclass": "newobj",
                    "numinlets": 10,
                    "numoutlets": 1,
                    "outlettype": [ "" ],
                    "patching_rect": [ 562.5, 561.0, 113.5, 22.0 ],
                    "text": "join 10 @triggers -1"
                }
            },
            {
                "box": {
                    "id": "obj-67",
                    "maxclass": "button",
                    "numinlets": 1,
                    "numoutlets": 1,
                    "outlettype": [ "bang" ],
                    "parameter_enable": 0,
                    "patching_rect": [ 510.0, 465.0, 24.0, 24.0 ]
                }
            },
            {
                "box": {
                    "id": "obj-65",
                    "linecount": 3,
                    "maxclass": "message",
                    "numinlets": 2,
                    "numoutlets": 1,
                    "outlettype": [ "" ],
                    "patching_rect": [ 616.8480332506076, 635.0, 191.0, 50.0 ],
                    "text": "0.016562 300.643385 0.119735 9188.092688 0. 0.844371 0. 0.769748 0.936455 0.634825"
                }
            },
            {
                "box": {
                    "id": "obj-3",
                    "maxclass": "ezdac~",
                    "numinlets": 2,
                    "numoutlets": 0,
                    "patching_rect": [ 540.0, 760.0, 23.0, 23.0 ]
                }
            },
            {
                "box": {
                    "id": "obj-59",
                    "lastchannelcount": 0,
                    "maxclass": "live.gain~",
                    "numinlets": 2,
                    "numoutlets": 5,
                    "outlettype": [ "signal", "signal", "", "float", "list" ],
                    "parameter_enable": 1,
                    "patching_rect": [ 526.0, 659.0, 51.0, 90.0 ],
                    "saved_attribute_attributes": {
                        "valueof": {
                            "parameter_longname": "live.gain~",
                            "parameter_mmax": 6.0,
                            "parameter_mmin": -70.0,
                            "parameter_modmode": 3,
                            "parameter_shortname": "live.gain~",
                            "parameter_type": 0,
                            "parameter_unitstyle": 4
                        }
                    },
                    "varname": "live.gain~"
                }
            },
            {
                "box": {
                    "id": "obj-58",
                    "maxclass": "comment",
                    "numinlets": 1,
                    "numoutlets": 0,
                    "patching_rect": [ 258.0, 99.5, 150.0, 20.0 ],
                    "text": "Note-Hold duration"
                }
            },
            {
                "box": {
                    "id": "obj-55",
                    "maxclass": "newobj",
                    "numinlets": 2,
                    "numoutlets": 1,
                    "outlettype": [ "signal" ],
                    "patching_rect": [ 321.0, 592.0, 29.5, 22.0 ],
                    "text": "*~"
                }
            },
            {
                "box": {
                    "id": "obj-54",
                    "maxclass": "number",
                    "numinlets": 1,
                    "numoutlets": 2,
                    "outlettype": [ "", "bang" ],
                    "parameter_enable": 0,
                    "patching_rect": [ 202.0, 471.0, 50.0, 22.0 ]
                }
            },
            {
                "box": {
                    "format": 6,
                    "id": "obj-52",
                    "maxclass": "flonum",
                    "numinlets": 1,
                    "numoutlets": 2,
                    "outlettype": [ "", "bang" ],
                    "parameter_enable": 0,
                    "patching_rect": [ 202.0, 394.0, 50.0, 22.0 ]
                }
            },
            {
                "box": {
                    "id": "obj-50",
                    "maxclass": "newobj",
                    "numinlets": 2,
                    "numoutlets": 1,
                    "outlettype": [ "signal" ],
                    "patching_rect": [ 153.0, 525.0, 46.0, 22.0 ],
                    "text": "+~ 400"
                }
            },
            {
                "box": {
                    "id": "obj-49",
                    "maxclass": "newobj",
                    "numinlets": 2,
                    "numoutlets": 1,
                    "outlettype": [ "signal" ],
                    "patching_rect": [ 153.0, 466.0, 34.0, 22.0 ],
                    "text": "*~ 1."
                }
            },
            {
                "box": {
                    "id": "obj-48",
                    "maxclass": "number",
                    "numinlets": 1,
                    "numoutlets": 2,
                    "outlettype": [ "", "bang" ],
                    "parameter_enable": 0,
                    "patching_rect": [ 526.5, 111.0, 50.0, 22.0 ]
                }
            },
            {
                "box": {
                    "id": "obj-46",
                    "maxclass": "button",
                    "numinlets": 1,
                    "numoutlets": 1,
                    "outlettype": [ "bang" ],
                    "parameter_enable": 0,
                    "patching_rect": [ 683.3480332506076, 126.0, 24.0, 24.0 ]
                }
            },
            {
                "box": {
                    "id": "obj-44",
                    "maxclass": "comment",
                    "numinlets": 1,
                    "numoutlets": 0,
                    "patching_rect": [ 108.0, 229.0, 150.0, 20.0 ],
                    "text": "phase 0 on trigger"
                }
            },
            {
                "box": {
                    "id": "obj-39",
                    "maxclass": "message",
                    "numinlets": 2,
                    "numoutlets": 1,
                    "outlettype": [ "" ],
                    "patching_rect": [ 258.0, 135.5, 72.0, 22.0 ],
                    "text": "0, 1 400 0 0"
                }
            },
            {
                "box": {
                    "format": 6,
                    "id": "obj-40",
                    "maxclass": "flonum",
                    "numinlets": 1,
                    "numoutlets": 2,
                    "outlettype": [ "", "bang" ],
                    "parameter_enable": 0,
                    "patching_rect": [ 374.0, 236.0, 50.0, 22.0 ]
                }
            },
            {
                "box": {
                    "id": "obj-41",
                    "maxclass": "meter~",
                    "numinlets": 1,
                    "numoutlets": 1,
                    "outlettype": [ "float" ],
                    "patching_rect": [ 374.0, 209.0, 80.0, 13.0 ]
                }
            },
            {
                "box": {
                    "id": "obj-42",
                    "maxclass": "newobj",
                    "numinlets": 2,
                    "numoutlets": 3,
                    "outlettype": [ "signal", "signal", "bang" ],
                    "patching_rect": [ 258.0, 169.5, 201.0, 22.0 ],
                    "text": "line~ @activeout 1"
                }
            },
            {
                "box": {
                    "grid": 3,
                    "horizonal_divisions": 6,
                    "horizontal_divisions": 6,
                    "id": "obj-32",
                    "maxclass": "live.scope~",
                    "numinlets": 2,
                    "numoutlets": 1,
                    "outlettype": [ "bang" ],
                    "patching_rect": [ 56.0, 664.0, 454.0, 140.0 ],
                    "range": [ -0.25, 1.25 ],
                    "vertical_divisions": 6
                }
            },
            {
                "box": {
                    "id": "obj-31",
                    "maxclass": "number",
                    "numinlets": 1,
                    "numoutlets": 2,
                    "outlettype": [ "", "bang" ],
                    "parameter_enable": 0,
                    "patching_rect": [ 83.0, 195.0, 50.0, 22.0 ]
                }
            },
            {
                "box": {
                    "id": "obj-14",
                    "maxclass": "newobj",
                    "numinlets": 1,
                    "numoutlets": 1,
                    "outlettype": [ "bang" ],
                    "patching_rect": [ 683.3480332506076, 185.0, 58.0, 22.0 ],
                    "text": "loadbang"
                }
            },
            {
                "box": {
                    "attack_slope": 0.769748,
                    "attack_time": 0.016562,
                    "decay_slope": 0.9364545097306672,
                    "decay_time": 300.64338518437836,
                    "id": "obj-4",
                    "maxclass": "live.adsrui",
                    "numinlets": 10,
                    "numoutlets": 10,
                    "outlettype": [ "", "", "", "", "", "", "", "", "", "" ],
                    "patching_rect": [ 401.4603176780731, 307.0, 298.34803325060767, 100.66666722297668 ],
                    "peak": 0.844371,
                    "release_slope": 0.634825,
                    "release_time": 9188.092688,
                    "sustain": 0.11973525220459505
                }
            },
            {
                "box": {
                    "fontname": "Arial",
                    "fontsize": 13.0,
                    "format": 6,
                    "id": "obj-27",
                    "maxclass": "flonum",
                    "maximum": 1.0,
                    "minimum": 0.0,
                    "numinlets": 1,
                    "numoutlets": 2,
                    "outlettype": [ "", "bang" ],
                    "parameter_enable": 1,
                    "patching_rect": [ 527.0, 169.0, 50.0, 23.0 ],
                    "saved_attribute_attributes": {
                        "valueof": {
                            "parameter_initial": [ 0.5 ],
                            "parameter_initial_enable": 1,
                            "parameter_invisible": 1,
                            "parameter_longname": "flonum[1]",
                            "parameter_mmax": 1.0,
                            "parameter_modmode": 0,
                            "parameter_shortname": "flonum",
                            "parameter_type": 0
                        }
                    },
                    "varname": "flonum"
                }
            },
            {
                "box": {
                    "fontname": "Arial",
                    "fontsize": 13.0,
                    "id": "obj-24",
                    "maxclass": "number",
                    "numinlets": 1,
                    "numoutlets": 2,
                    "outlettype": [ "", "bang" ],
                    "parameter_enable": 1,
                    "patching_rect": [ 527.0, 204.0, 50.0, 23.0 ],
                    "saved_attribute_attributes": {
                        "valueof": {
                            "parameter_initial": [ 1000 ],
                            "parameter_initial_enable": 1,
                            "parameter_invisible": 1,
                            "parameter_longname": "number[6]",
                            "parameter_modmode": 0,
                            "parameter_shortname": "number[2]",
                            "parameter_type": 3
                        }
                    },
                    "varname": "number[3]"
                }
            },
            {
                "box": {
                    "fontname": "Arial",
                    "fontsize": 13.0,
                    "id": "obj-23",
                    "maxclass": "number",
                    "numinlets": 1,
                    "numoutlets": 2,
                    "outlettype": [ "", "bang" ],
                    "parameter_enable": 1,
                    "patching_rect": [ 527.0, 141.0, 50.0, 23.0 ],
                    "saved_attribute_attributes": {
                        "valueof": {
                            "parameter_initial": [ 100 ],
                            "parameter_initial_enable": 1,
                            "parameter_invisible": 1,
                            "parameter_longname": "number[7]",
                            "parameter_modmode": 0,
                            "parameter_shortname": "number[2]",
                            "parameter_type": 3
                        }
                    },
                    "varname": "number[2]"
                }
            },
            {
                "box": {
                    "fontname": "Arial",
                    "fontsize": 13.0,
                    "id": "obj-22",
                    "maxclass": "comment",
                    "numinlets": 1,
                    "numoutlets": 0,
                    "patching_rect": [ 586.0, 142.0, 73.0, 21.0 ],
                    "text": "decay (ms)",
                    "textcolor": [ 0.501961, 0.501961, 0.501961, 1.0 ]
                }
            },
            {
                "box": {
                    "fontname": "Arial",
                    "fontsize": 13.0,
                    "id": "obj-25",
                    "maxclass": "comment",
                    "numinlets": 1,
                    "numoutlets": 0,
                    "patching_rect": [ 583.0, 171.0, 78.0, 21.0 ],
                    "text": "sustain gain",
                    "textcolor": [ 0.501961, 0.501961, 0.501961, 1.0 ]
                }
            },
            {
                "box": {
                    "fontname": "Arial",
                    "fontsize": 13.0,
                    "id": "obj-26",
                    "maxclass": "comment",
                    "numinlets": 1,
                    "numoutlets": 0,
                    "patching_rect": [ 584.0, 205.0, 81.0, 21.0 ],
                    "text": "release (ms)",
                    "textcolor": [ 0.501961, 0.501961, 0.501961, 1.0 ]
                }
            },
            {
                "box": {
                    "fontsize": 13.0,
                    "id": "obj-2",
                    "maxclass": "newobj",
                    "numinlets": 11,
                    "numoutlets": 3,
                    "outlettype": [ "signal", "signal", "" ],
                    "patching_rect": [ 371.0, 420.0, 328.8083509286808, 23.0 ],
                    "text": "live.adsr~ 600. 100. 0.5 1000."
                }
            },
            {
                "box": {
                    "fontface": 0,
                    "fontname": "Arial",
                    "fontsize": 13.0,
                    "id": "obj-29",
                    "maxclass": "number~",
                    "mode": 2,
                    "numinlets": 2,
                    "numoutlets": 2,
                    "outlettype": [ "signal", "float" ],
                    "patching_rect": [ 401.0, 463.0, 58.0, 23.0 ],
                    "sig": 0.0
                }
            },
            {
                "box": {
                    "id": "obj-13",
                    "maxclass": "newobj",
                    "numinlets": 2,
                    "numoutlets": 1,
                    "outlettype": [ "signal" ],
                    "patching_rect": [ 55.0, 601.0, 43.0, 22.0 ],
                    "text": "cycle~"
                }
            },
            {
                "box": {
                    "id": "obj-10",
                    "maxclass": "toggle",
                    "numinlets": 1,
                    "numoutlets": 1,
                    "outlettype": [ "int" ],
                    "parameter_enable": 0,
                    "patching_rect": [ 55.0, 32.0, 24.0, 24.0 ]
                }
            },
            {
                "box": {
                    "id": "obj-8",
                    "maxclass": "button",
                    "numinlets": 1,
                    "numoutlets": 1,
                    "outlettype": [ "bang" ],
                    "parameter_enable": 0,
                    "patching_rect": [ 83.0, 160.0, 24.0, 24.0 ]
                }
            },
            {
                "box": {
                    "id": "obj-6",
                    "maxclass": "number",
                    "numinlets": 1,
                    "numoutlets": 2,
                    "outlettype": [ "", "bang" ],
                    "parameter_enable": 0,
                    "patching_rect": [ 108.0, 54.0, 50.0, 22.0 ]
                }
            },
            {
                "box": {
                    "id": "obj-1",
                    "maxclass": "newobj",
                    "numinlets": 2,
                    "numoutlets": 1,
                    "outlettype": [ "bang" ],
                    "patching_rect": [ 55.0, 83.0, 39.0, 22.0 ],
                    "text": "metro"
                }
            }
        ],
        "lines": [
            {
                "patchline": {
                    "destination": [ "obj-8", 0 ],
                    "source": [ "obj-1", 0 ]
                }
            },
            {
                "patchline": {
                    "destination": [ "obj-1", 0 ],
                    "source": [ "obj-10", 0 ]
                }
            },
            {
                "patchline": {
                    "destination": [ "obj-55", 0 ],
                    "source": [ "obj-13", 0 ]
                }
            },
            {
                "patchline": {
                    "destination": [ "obj-83", 0 ],
                    "order": 1,
                    "source": [ "obj-14", 0 ]
                }
            },
            {
                "patchline": {
                    "destination": [ "obj-86", 0 ],
                    "order": 0,
                    "source": [ "obj-14", 0 ]
                }
            },
            {
                "patchline": {
                    "destination": [ "obj-29", 0 ],
                    "order": 0,
                    "source": [ "obj-2", 0 ]
                }
            },
            {
                "patchline": {
                    "destination": [ "obj-49", 0 ],
                    "order": 1,
                    "source": [ "obj-2", 0 ]
                }
            },
            {
                "patchline": {
                    "destination": [ "obj-4", 1 ],
                    "source": [ "obj-23", 0 ]
                }
            },
            {
                "patchline": {
                    "destination": [ "obj-4", 3 ],
                    "source": [ "obj-24", 0 ]
                }
            },
            {
                "patchline": {
                    "destination": [ "obj-4", 2 ],
                    "source": [ "obj-27", 0 ]
                }
            },
            {
                "patchline": {
                    "destination": [ "obj-13", 1 ],
                    "source": [ "obj-31", 0 ]
                }
            },
            {
                "patchline": {
                    "destination": [ "obj-42", 0 ],
                    "source": [ "obj-39", 0 ]
                }
            },
            {
                "patchline": {
                    "destination": [ "obj-2", 10 ],
                    "order": 0,
                    "source": [ "obj-4", 9 ]
                }
            },
            {
                "patchline": {
                    "destination": [ "obj-2", 9 ],
                    "order": 0,
                    "source": [ "obj-4", 8 ]
                }
            },
            {
                "patchline": {
                    "destination": [ "obj-2", 8 ],
                    "order": 1,
                    "source": [ "obj-4", 7 ]
                }
            },
            {
                "patchline": {
                    "destination": [ "obj-2", 7 ],
                    "order": 1,
                    "source": [ "obj-4", 6 ]
                }
            },
            {
                "patchline": {
                    "destination": [ "obj-2", 6 ],
                    "order": 1,
                    "source": [ "obj-4", 5 ]
                }
            },
            {
                "patchline": {
                    "destination": [ "obj-2", 5 ],
                    "order": 1,
                    "source": [ "obj-4", 4 ]
                }
            },
            {
                "patchline": {
                    "destination": [ "obj-2", 4 ],
                    "order": 1,
                    "source": [ "obj-4", 3 ]
                }
            },
            {
                "patchline": {
                    "destination": [ "obj-2", 3 ],
                    "order": 1,
                    "source": [ "obj-4", 2 ]
                }
            },
            {
                "patchline": {
                    "destination": [ "obj-2", 2 ],
                    "order": 1,
                    "source": [ "obj-4", 1 ]
                }
            },
            {
                "patchline": {
                    "destination": [ "obj-2", 1 ],
                    "order": 1,
                    "source": [ "obj-4", 0 ]
                }
            },
            {
                "patchline": {
                    "destination": [ "obj-68", 9 ],
                    "order": 1,
                    "source": [ "obj-4", 9 ]
                }
            },
            {
                "patchline": {
                    "destination": [ "obj-68", 8 ],
                    "order": 1,
                    "source": [ "obj-4", 8 ]
                }
            },
            {
                "patchline": {
                    "destination": [ "obj-68", 7 ],
                    "order": 0,
                    "source": [ "obj-4", 7 ]
                }
            },
            {
                "patchline": {
                    "destination": [ "obj-68", 6 ],
                    "order": 0,
                    "source": [ "obj-4", 6 ]
                }
            },
            {
                "patchline": {
                    "destination": [ "obj-68", 5 ],
                    "order": 0,
                    "source": [ "obj-4", 5 ]
                }
            },
            {
                "patchline": {
                    "destination": [ "obj-68", 4 ],
                    "order": 0,
                    "source": [ "obj-4", 4 ]
                }
            },
            {
                "patchline": {
                    "destination": [ "obj-68", 3 ],
                    "order": 0,
                    "source": [ "obj-4", 3 ]
                }
            },
            {
                "patchline": {
                    "destination": [ "obj-68", 2 ],
                    "order": 0,
                    "source": [ "obj-4", 2 ]
                }
            },
            {
                "patchline": {
                    "destination": [ "obj-68", 1 ],
                    "order": 0,
                    "source": [ "obj-4", 1 ]
                }
            },
            {
                "patchline": {
                    "destination": [ "obj-68", 0 ],
                    "order": 0,
                    "source": [ "obj-4", 0 ]
                }
            },
            {
                "patchline": {
                    "destination": [ "obj-40", 0 ],
                    "source": [ "obj-41", 0 ]
                }
            },
            {
                "patchline": {
                    "destination": [ "obj-2", 0 ],
                    "midpoints": [ 358.5, 303.0, 380.5, 303.0 ],
                    "order": 1,
                    "source": [ "obj-42", 1 ]
                }
            },
            {
                "patchline": {
                    "destination": [ "obj-41", 0 ],
                    "order": 0,
                    "source": [ "obj-42", 1 ]
                }
            },
            {
                "patchline": {
                    "destination": [ "obj-4", 0 ],
                    "source": [ "obj-48", 0 ]
                }
            },
            {
                "patchline": {
                    "destination": [ "obj-50", 0 ],
                    "source": [ "obj-49", 0 ]
                }
            },
            {
                "patchline": {
                    "destination": [ "obj-13", 0 ],
                    "source": [ "obj-50", 0 ]
                }
            },
            {
                "patchline": {
                    "destination": [ "obj-49", 1 ],
                    "source": [ "obj-52", 0 ]
                }
            },
            {
                "patchline": {
                    "destination": [ "obj-50", 1 ],
                    "source": [ "obj-54", 0 ]
                }
            },
            {
                "patchline": {
                    "destination": [ "obj-32", 0 ],
                    "order": 2,
                    "source": [ "obj-55", 0 ]
                }
            },
            {
                "patchline": {
                    "destination": [ "obj-59", 1 ],
                    "order": 0,
                    "source": [ "obj-55", 0 ]
                }
            },
            {
                "patchline": {
                    "destination": [ "obj-59", 0 ],
                    "order": 1,
                    "source": [ "obj-55", 0 ]
                }
            },
            {
                "patchline": {
                    "destination": [ "obj-3", 1 ],
                    "source": [ "obj-59", 1 ]
                }
            },
            {
                "patchline": {
                    "destination": [ "obj-3", 0 ],
                    "source": [ "obj-59", 0 ]
                }
            },
            {
                "patchline": {
                    "destination": [ "obj-1", 1 ],
                    "source": [ "obj-6", 0 ]
                }
            },
            {
                "patchline": {
                    "destination": [ "obj-65", 1 ],
                    "source": [ "obj-68", 0 ]
                }
            },
            {
                "patchline": {
                    "destination": [ "obj-72", 10 ],
                    "order": 1,
                    "source": [ "obj-71", 9 ]
                }
            },
            {
                "patchline": {
                    "destination": [ "obj-72", 9 ],
                    "order": 1,
                    "source": [ "obj-71", 8 ]
                }
            },
            {
                "patchline": {
                    "destination": [ "obj-72", 8 ],
                    "order": 1,
                    "source": [ "obj-71", 7 ]
                }
            },
            {
                "patchline": {
                    "destination": [ "obj-72", 7 ],
                    "order": 1,
                    "source": [ "obj-71", 6 ]
                }
            },
            {
                "patchline": {
                    "destination": [ "obj-72", 6 ],
                    "order": 1,
                    "source": [ "obj-71", 5 ]
                }
            },
            {
                "patchline": {
                    "destination": [ "obj-72", 5 ],
                    "order": 1,
                    "source": [ "obj-71", 4 ]
                }
            },
            {
                "patchline": {
                    "destination": [ "obj-72", 4 ],
                    "order": 1,
                    "source": [ "obj-71", 3 ]
                }
            },
            {
                "patchline": {
                    "destination": [ "obj-72", 3 ],
                    "order": 1,
                    "source": [ "obj-71", 2 ]
                }
            },
            {
                "patchline": {
                    "destination": [ "obj-72", 2 ],
                    "order": 1,
                    "source": [ "obj-71", 1 ]
                }
            },
            {
                "patchline": {
                    "destination": [ "obj-72", 1 ],
                    "order": 1,
                    "source": [ "obj-71", 0 ]
                }
            },
            {
                "patchline": {
                    "destination": [ "obj-80", 9 ],
                    "order": 0,
                    "source": [ "obj-71", 9 ]
                }
            },
            {
                "patchline": {
                    "destination": [ "obj-80", 8 ],
                    "order": 0,
                    "source": [ "obj-71", 8 ]
                }
            },
            {
                "patchline": {
                    "destination": [ "obj-80", 7 ],
                    "order": 0,
                    "source": [ "obj-71", 7 ]
                }
            },
            {
                "patchline": {
                    "destination": [ "obj-80", 6 ],
                    "order": 0,
                    "source": [ "obj-71", 6 ]
                }
            },
            {
                "patchline": {
                    "destination": [ "obj-80", 5 ],
                    "order": 0,
                    "source": [ "obj-71", 5 ]
                }
            },
            {
                "patchline": {
                    "destination": [ "obj-80", 4 ],
                    "order": 0,
                    "source": [ "obj-71", 4 ]
                }
            },
            {
                "patchline": {
                    "destination": [ "obj-80", 3 ],
                    "order": 0,
                    "source": [ "obj-71", 3 ]
                }
            },
            {
                "patchline": {
                    "destination": [ "obj-80", 2 ],
                    "order": 0,
                    "source": [ "obj-71", 2 ]
                }
            },
            {
                "patchline": {
                    "destination": [ "obj-80", 1 ],
                    "order": 0,
                    "source": [ "obj-71", 1 ]
                }
            },
            {
                "patchline": {
                    "destination": [ "obj-80", 0 ],
                    "order": 0,
                    "source": [ "obj-71", 0 ]
                }
            },
            {
                "patchline": {
                    "destination": [ "obj-55", 1 ],
                    "source": [ "obj-72", 0 ]
                }
            },
            {
                "patchline": {
                    "destination": [ "obj-71", 0 ],
                    "source": [ "obj-73", 0 ]
                }
            },
            {
                "patchline": {
                    "destination": [ "obj-71", 2 ],
                    "source": [ "obj-74", 0 ]
                }
            },
            {
                "patchline": {
                    "destination": [ "obj-71", 3 ],
                    "source": [ "obj-75", 0 ]
                }
            },
            {
                "patchline": {
                    "destination": [ "obj-71", 1 ],
                    "source": [ "obj-76", 0 ]
                }
            },
            {
                "patchline": {
                    "destination": [ "obj-31", 0 ],
                    "order": 2,
                    "source": [ "obj-8", 0 ]
                }
            },
            {
                "patchline": {
                    "destination": [ "obj-39", 0 ],
                    "order": 1,
                    "source": [ "obj-8", 0 ]
                }
            },
            {
                "patchline": {
                    "destination": [ "obj-84", 0 ],
                    "order": 0,
                    "source": [ "obj-8", 0 ]
                }
            },
            {
                "patchline": {
                    "destination": [ "obj-81", 1 ],
                    "source": [ "obj-80", 0 ]
                }
            },
            {
                "patchline": {
                    "destination": [ "obj-4", 0 ],
                    "source": [ "obj-83", 0 ]
                }
            },
            {
                "patchline": {
                    "destination": [ "obj-85", 0 ],
                    "source": [ "obj-84", 0 ]
                }
            },
            {
                "patchline": {
                    "destination": [ "obj-72", 0 ],
                    "source": [ "obj-85", 0 ]
                }
            },
            {
                "patchline": {
                    "destination": [ "obj-71", 0 ],
                    "source": [ "obj-86", 0 ]
                }
            }
        ],
        "parameters": {
            "obj-23": [ "number[7]", "number[2]", 0 ],
            "obj-24": [ "number[6]", "number[2]", 0 ],
            "obj-27": [ "flonum[1]", "flonum", 0 ],
            "obj-59": [ "live.gain~", "live.gain~", 0 ],
            "obj-74": [ "flonum[2]", "flonum", 0 ],
            "obj-75": [ "number[1]", "number[2]", 0 ],
            "obj-76": [ "number[2]", "number[2]", 0 ],
            "parameterbanks": {
                "0": {
                    "index": 0,
                    "name": "",
                    "parameters": [ "-", "-", "-", "-", "-", "-", "-", "-" ],
                    "buttons": [ "-", "-", "-", "-", "-", "-", "-", "-" ]
                }
            },
            "inherited_shortname": 1
        },
        "autosave": 0
    }
}