{
    "patcher": {
        "fileversion": 1,
        "appversion": {
            "major": 9,
            "minor": 1,
            "revision": 1,
            "architecture": "x64",
            "modernui": 1
        },
        "classnamespace": "box",
        "rect": [ 472.0, 156.0, 1090.0, 882.0 ],
        "boxes": [
            {
                "box": {
                    "id": "obj-11",
                    "maxclass": "newobj",
                    "numinlets": 1,
                    "numoutlets": 2,
                    "outlettype": [ "bang", "int" ],
                    "patching_rect": [ 497.0, 132.0, 29.5, 22.0 ],
                    "text": "t b i"
                }
            },
            {
                "box": {
                    "id": "obj-10",
                    "maxclass": "toggle",
                    "numinlets": 1,
                    "numoutlets": 1,
                    "outlettype": [ "int" ],
                    "parameter_enable": 0,
                    "patching_rect": [ 446.0, 60.0, 24.0, 24.0 ]
                }
            },
            {
                "box": {
                    "id": "obj-8",
                    "maxclass": "number",
                    "numinlets": 1,
                    "numoutlets": 2,
                    "outlettype": [ "", "bang" ],
                    "parameter_enable": 0,
                    "patching_rect": [ 545.0, 81.0, 50.0, 22.0 ]
                }
            },
            {
                "box": {
                    "id": "obj-6",
                    "maxclass": "message",
                    "numinlets": 2,
                    "numoutlets": 1,
                    "outlettype": [ "" ],
                    "patching_rect": [ 238.5, 797.0, 315.0, 22.0 ],
                    "text": "\"... .. .. .... ... .. .. .... ... .. .. .... ... .. .. .... . .. .. .. ...... ......\""
                }
            },
            {
                "box": {
                    "id": "obj-2",
                    "maxclass": "number",
                    "numinlets": 1,
                    "numoutlets": 2,
                    "outlettype": [ "", "bang" ],
                    "parameter_enable": 0,
                    "patching_rect": [ 205.0, 755.0, 50.0, 22.0 ]
                }
            },
            {
                "box": {
                    "bgmode": 0,
                    "border": 0,
                    "clickthrough": 0,
                    "enablehscroll": 0,
                    "enablevscroll": 0,
                    "id": "obj-16",
                    "lockeddragscroll": 0,
                    "lockedsize": 0,
                    "maxclass": "bpatcher",
                    "name": "TrackerTempo.maxpat",
                    "numinlets": 1,
                    "numoutlets": 1,
                    "offset": [ 0.0, 0.0 ],
                    "outlettype": [ "bang" ],
                    "patching_rect": [ 286.0, 215.0, 212.8674705028534, 28.915663719177246 ],
                    "presentation": 1,
                    "presentation_rect": [ -5.481928467750549, 174.03615045547485, 212.8674705028534, 28.915663719177246 ],
                    "viewvisibility": 1
                }
            },
            {
                "box": {
                    "id": "obj-1",
                    "maxclass": "newobj",
                    "numinlets": 5,
                    "numoutlets": 4,
                    "outlettype": [ "int", "", "", "int" ],
                    "patching_rect": [ 418.33333333333337, 267.0, 65.0, 22.0 ],
                    "text": "counter 31"
                }
            },
            {
                "box": {
                    "border": 0,
                    "filename": "haze_tracker.js",
                    "id": "obj-4",
                    "maxclass": "v8ui",
                    "numinlets": 4,
                    "numoutlets": 3,
                    "outlettype": [ "", "", "" ],
                    "parameter_enable": 0,
                    "patching_rect": [ 205.0, 304.0, 648.0, 430.0 ],
                    "textfile": {
                        "filename": "haze_tracker.js",
                        "flags": 0,
                        "embed": 0,
                        "autowatch": 1
                    }
                }
            },
            {
                "box": {
                    "id": "obj-22",
                    "maxclass": "newobj",
                    "numinlets": 0,
                    "numoutlets": 3,
                    "outlettype": [ "", "", "bang" ],
                    "patcher": {
                        "fileversion": 1,
                        "appversion": {
                            "major": 9,
                            "minor": 1,
                            "revision": 1,
                            "architecture": "x64",
                            "modernui": 1
                        },
                        "classnamespace": "box",
                        "rect": [ -1335.0, 131.0, 919.0, 649.0 ],
                        "boxes": [
                            {
                                "box": {
                                    "id": "obj-5",
                                    "maxclass": "newobj",
                                    "numinlets": 3,
                                    "numoutlets": 3,
                                    "outlettype": [ "bang", "bang", "" ],
                                    "patching_rect": [ 570.0, 117.0, 57.0, 22.0 ],
                                    "text": "sel 95 43"
                                }
                            },
                            {
                                "box": {
                                    "id": "obj-4",
                                    "maxclass": "newobj",
                                    "numinlets": 3,
                                    "numoutlets": 3,
                                    "outlettype": [ "bang", "bang", "" ],
                                    "patching_rect": [ 749.0, 115.0, 57.0, 22.0 ],
                                    "text": "sel 95 43"
                                }
                            },
                            {
                                "box": {
                                    "id": "obj-2",
                                    "maxclass": "comment",
                                    "numinlets": 1,
                                    "numoutlets": 0,
                                    "patching_rect": [ 471.0, 63.0, 150.0, 20.0 ],
                                    "text": "95, 43 are plus and minus"
                                }
                            },
                            {
                                "box": {
                                    "id": "obj-18",
                                    "maxclass": "live.scope~",
                                    "numinlets": 2,
                                    "numoutlets": 1,
                                    "outlettype": [ "bang" ],
                                    "patching_rect": [ 485.0, 387.6666662096977, 184.6666721701622, 30.666667580604553 ]
                                }
                            },
                            {
                                "box": {
                                    "id": "obj-17",
                                    "maxclass": "newobj",
                                    "numinlets": 1,
                                    "numoutlets": 1,
                                    "outlettype": [ "signal" ],
                                    "patching_rect": [ 484.87806034088135, 360.00000858306885, 39.0, 22.0 ],
                                    "text": "click~"
                                }
                            },
                            {
                                "box": {
                                    "id": "obj-20",
                                    "maxclass": "newobj",
                                    "numinlets": 2,
                                    "numoutlets": 1,
                                    "outlettype": [ "bang" ],
                                    "patching_rect": [ 485.0, 293.92308807373047, 63.0, 22.0 ],
                                    "text": "metro 105"
                                }
                            },
                            {
                                "box": {
                                    "id": "obj-23",
                                    "maxclass": "newobj",
                                    "numinlets": 2,
                                    "numoutlets": 1,
                                    "outlettype": [ "bang" ],
                                    "patching_rect": [ 485.0, 258.92308807373047, 61.0, 22.0 ],
                                    "text": "delay 200"
                                }
                            },
                            {
                                "box": {
                                    "id": "obj-24",
                                    "maxclass": "message",
                                    "numinlets": 2,
                                    "numoutlets": 1,
                                    "outlettype": [ "" ],
                                    "patching_rect": [ 485.0, 216.92308807373047, 37.0, 22.0 ],
                                    "text": "bang"
                                }
                            },
                            {
                                "box": {
                                    "id": "obj-26",
                                    "maxclass": "message",
                                    "numinlets": 2,
                                    "numoutlets": 1,
                                    "outlettype": [ "" ],
                                    "patching_rect": [ 527.0, 216.92308807373047, 31.0, 22.0 ],
                                    "text": "stop"
                                }
                            },
                            {
                                "box": {
                                    "id": "obj-37",
                                    "maxclass": "message",
                                    "numinlets": 2,
                                    "numoutlets": 1,
                                    "outlettype": [ "" ],
                                    "patching_rect": [ 336.0, 334.92308807373047, 50.0, 22.0 ],
                                    "text": "32"
                                }
                            },
                            {
                                "box": {
                                    "id": "obj-29",
                                    "maxclass": "newobj",
                                    "numinlets": 2,
                                    "numoutlets": 2,
                                    "outlettype": [ "", "" ],
                                    "patching_rect": [ 367.0, 187.69231605529785, 77.0, 22.0 ],
                                    "text": "array.index 1"
                                }
                            },
                            {
                                "box": {
                                    "id": "obj-34",
                                    "maxclass": "newobj",
                                    "numinlets": 1,
                                    "numoutlets": 1,
                                    "outlettype": [ "bang" ],
                                    "patching_rect": [ 664.0, 172.0, 22.0, 22.0 ],
                                    "text": "t b"
                                }
                            },
                            {
                                "box": {
                                    "id": "obj-35",
                                    "maxclass": "newobj",
                                    "numinlets": 5,
                                    "numoutlets": 5,
                                    "outlettype": [ "bang", "bang", "bang", "bang", "" ],
                                    "patching_rect": [ 646.0, 115.0, 91.0, 22.0 ],
                                    "text": "sel 28 29 30 31"
                                }
                            },
                            {
                                "box": {
                                    "id": "obj-36",
                                    "maxclass": "newobj",
                                    "numinlets": 1,
                                    "numoutlets": 2,
                                    "outlettype": [ "bang", "bang" ],
                                    "patching_rect": [ 485.0, 172.0, 32.0, 22.0 ],
                                    "text": "t b b"
                                }
                            },
                            {
                                "box": {
                                    "id": "obj-9",
                                    "maxclass": "newobj",
                                    "numinlets": 5,
                                    "numoutlets": 5,
                                    "outlettype": [ "bang", "bang", "bang", "bang", "" ],
                                    "patching_rect": [ 467.0, 117.0, 91.0, 22.0 ],
                                    "text": "sel 28 29 30 31"
                                }
                            },
                            {
                                "box": {
                                    "id": "obj-3",
                                    "maxclass": "newobj",
                                    "numinlets": 0,
                                    "numoutlets": 4,
                                    "outlettype": [ "int", "int", "int", "int" ],
                                    "patching_rect": [ 675.0, 62.0, 50.5, 22.0 ],
                                    "text": "keyup"
                                }
                            },
                            {
                                "box": {
                                    "id": "obj-91",
                                    "maxclass": "newobj",
                                    "numinlets": 2,
                                    "numoutlets": 2,
                                    "outlettype": [ "bang", "" ],
                                    "patching_rect": [ 291.53848457336426, 216.92308807373047, 34.0, 22.0 ],
                                    "text": "sel 1"
                                }
                            },
                            {
                                "box": {
                                    "id": "obj-6",
                                    "maxclass": "message",
                                    "numinlets": 2,
                                    "numoutlets": 1,
                                    "outlettype": [ "" ],
                                    "patching_rect": [ 137.69231605529785, 149.23077392578125, 154.0, 22.0 ],
                                    "text": "49",
                                    "varname": "input_keys[3]"
                                }
                            },
                            {
                                "box": {
                                    "id": "obj-93",
                                    "maxclass": "newobj",
                                    "numinlets": 2,
                                    "numoutlets": 1,
                                    "outlettype": [ "int" ],
                                    "patching_rect": [ 291.53848457336426, 187.69231605529785, 46.0, 22.0 ],
                                    "text": "== 100"
                                }
                            },
                            {
                                "box": {
                                    "id": "obj-92",
                                    "maxclass": "newobj",
                                    "numinlets": 2,
                                    "numoutlets": 2,
                                    "outlettype": [ "", "" ],
                                    "patching_rect": [ 199.2307834625244, 187.69231605529785, 77.0, 22.0 ],
                                    "text": "array.index 2"
                                }
                            },
                            {
                                "box": {
                                    "id": "obj-27",
                                    "maxclass": "newobj",
                                    "numinlets": 1,
                                    "numoutlets": 2,
                                    "outlettype": [ "bang", "" ],
                                    "patching_rect": [ 137.69231605529785, 216.92308807373047, 29.5, 22.0 ],
                                    "text": "t b l"
                                }
                            },
                            {
                                "box": {
                                    "id": "obj-22",
                                    "maxclass": "message",
                                    "numinlets": 2,
                                    "numoutlets": 1,
                                    "outlettype": [ "" ],
                                    "patching_rect": [ 137.69231605529785, 334.92308807373047, 154.0, 22.0 ],
                                    "text": "keys 32 49 0 -2",
                                    "varname": "input_keys[1]"
                                }
                            },
                            {
                                "box": {
                                    "id": "obj-19",
                                    "maxclass": "newobj",
                                    "numinlets": 1,
                                    "numoutlets": 1,
                                    "outlettype": [ "" ],
                                    "patching_rect": [ 96.15385055541992, 187.69231605529785, 81.0, 22.0 ],
                                    "text": "prepend keys"
                                }
                            },
                            {
                                "box": {
                                    "id": "obj-16",
                                    "maxclass": "message",
                                    "numinlets": 2,
                                    "numoutlets": 1,
                                    "outlettype": [ "" ],
                                    "patching_rect": [ 50.0, 334.92308807373047, 74.0, 22.0 ],
                                    "text": "key_handler"
                                }
                            },
                            {
                                "box": {
                                    "id": "obj-14",
                                    "maxclass": "newobj",
                                    "numinlets": 1,
                                    "numoutlets": 2,
                                    "outlettype": [ "bang", "" ],
                                    "patching_rect": [ 50.0, 156.92308235168457, 29.5, 22.0 ],
                                    "text": "t b l"
                                }
                            },
                            {
                                "box": {
                                    "id": "obj-13",
                                    "maxclass": "newobj",
                                    "numinlets": 4,
                                    "numoutlets": 1,
                                    "outlettype": [ "" ],
                                    "patching_rect": [ 50.0, 130.76923370361328, 58.0, 22.0 ],
                                    "text": "pack i i i i"
                                }
                            },
                            {
                                "box": {
                                    "id": "obj-7",
                                    "maxclass": "newobj",
                                    "numinlets": 0,
                                    "numoutlets": 4,
                                    "outlettype": [ "int", "int", "int", "int" ],
                                    "patching_rect": [ 50.0, 100.0, 50.5, 22.0 ],
                                    "text": "key"
                                }
                            },
                            {
                                "box": {
                                    "comment": "Trigger the KeyHandler function",
                                    "id": "obj-8",
                                    "index": 1,
                                    "maxclass": "outlet",
                                    "numinlets": 1,
                                    "numoutlets": 0,
                                    "patching_rect": [ 50.0, 388.0, 30.0, 30.0 ]
                                }
                            },
                            {
                                "box": {
                                    "comment": "Passes the Keys list ( 4 long )",
                                    "id": "obj-15",
                                    "index": 2,
                                    "maxclass": "outlet",
                                    "numinlets": 1,
                                    "numoutlets": 0,
                                    "patching_rect": [ 138.0, 388.0, 30.0, 30.0 ]
                                }
                            },
                            {
                                "box": {
                                    "comment": "Start Stop / Bang",
                                    "id": "obj-21",
                                    "index": 3,
                                    "maxclass": "outlet",
                                    "numinlets": 1,
                                    "numoutlets": 0,
                                    "patching_rect": [ 291.53848457336426, 388.0, 30.0, 30.0 ]
                                }
                            }
                        ],
                        "lines": [
                            {
                                "patchline": {
                                    "destination": [ "obj-14", 0 ],
                                    "source": [ "obj-13", 0 ]
                                }
                            },
                            {
                                "patchline": {
                                    "destination": [ "obj-16", 0 ],
                                    "source": [ "obj-14", 0 ]
                                }
                            },
                            {
                                "patchline": {
                                    "destination": [ "obj-19", 0 ],
                                    "source": [ "obj-14", 1 ]
                                }
                            },
                            {
                                "patchline": {
                                    "destination": [ "obj-8", 0 ],
                                    "source": [ "obj-16", 0 ]
                                }
                            },
                            {
                                "patchline": {
                                    "destination": [ "obj-18", 0 ],
                                    "source": [ "obj-17", 0 ]
                                }
                            },
                            {
                                "patchline": {
                                    "destination": [ "obj-27", 0 ],
                                    "source": [ "obj-19", 0 ]
                                }
                            },
                            {
                                "patchline": {
                                    "destination": [ "obj-16", 0 ],
                                    "midpoints": [ 494.5, 328.0, 59.5, 328.0 ],
                                    "source": [ "obj-20", 0 ]
                                }
                            },
                            {
                                "patchline": {
                                    "destination": [ "obj-17", 0 ],
                                    "disabled": 1,
                                    "midpoints": [ 494.5, 329.9230838418007, 494.37806034088135, 329.9230838418007 ],
                                    "source": [ "obj-20", 0 ]
                                }
                            },
                            {
                                "patchline": {
                                    "destination": [ "obj-15", 0 ],
                                    "source": [ "obj-22", 0 ]
                                }
                            },
                            {
                                "patchline": {
                                    "destination": [ "obj-20", 0 ],
                                    "source": [ "obj-23", 0 ]
                                }
                            },
                            {
                                "patchline": {
                                    "destination": [ "obj-23", 0 ],
                                    "midpoints": [ 494.5, 250.2564173936844, 494.5, 250.2564173936844 ],
                                    "source": [ "obj-24", 0 ]
                                }
                            },
                            {
                                "patchline": {
                                    "destination": [ "obj-20", 1 ],
                                    "midpoints": [ 536.5, 247.58975064754486, 565.6666598320007, 247.58975064754486, 565.6666598320007, 282.2564172744751, 538.5, 282.2564172744751 ],
                                    "order": 0,
                                    "source": [ "obj-26", 0 ]
                                }
                            },
                            {
                                "patchline": {
                                    "destination": [ "obj-23", 1 ],
                                    "midpoints": [ 536.5, 243.58975052833557, 536.5, 243.58975052833557 ],
                                    "order": 1,
                                    "source": [ "obj-26", 0 ]
                                }
                            },
                            {
                                "patchline": {
                                    "destination": [ "obj-22", 1 ],
                                    "order": 1,
                                    "source": [ "obj-27", 1 ]
                                }
                            },
                            {
                                "patchline": {
                                    "destination": [ "obj-22", 0 ],
                                    "source": [ "obj-27", 0 ]
                                }
                            },
                            {
                                "patchline": {
                                    "destination": [ "obj-29", 0 ],
                                    "order": 0,
                                    "source": [ "obj-27", 1 ]
                                }
                            },
                            {
                                "patchline": {
                                    "destination": [ "obj-92", 0 ],
                                    "order": 2,
                                    "source": [ "obj-27", 1 ]
                                }
                            },
                            {
                                "patchline": {
                                    "destination": [ "obj-37", 1 ],
                                    "order": 2,
                                    "source": [ "obj-29", 0 ]
                                }
                            },
                            {
                                "patchline": {
                                    "destination": [ "obj-5", 0 ],
                                    "order": 0,
                                    "source": [ "obj-29", 0 ]
                                }
                            },
                            {
                                "patchline": {
                                    "destination": [ "obj-9", 0 ],
                                    "order": 1,
                                    "source": [ "obj-29", 0 ]
                                }
                            },
                            {
                                "patchline": {
                                    "destination": [ "obj-35", 0 ],
                                    "order": 1,
                                    "source": [ "obj-3", 0 ]
                                }
                            },
                            {
                                "patchline": {
                                    "destination": [ "obj-4", 0 ],
                                    "order": 0,
                                    "source": [ "obj-3", 0 ]
                                }
                            },
                            {
                                "patchline": {
                                    "destination": [ "obj-26", 0 ],
                                    "source": [ "obj-34", 0 ]
                                }
                            },
                            {
                                "patchline": {
                                    "destination": [ "obj-34", 0 ],
                                    "source": [ "obj-35", 3 ]
                                }
                            },
                            {
                                "patchline": {
                                    "destination": [ "obj-34", 0 ],
                                    "source": [ "obj-35", 2 ]
                                }
                            },
                            {
                                "patchline": {
                                    "destination": [ "obj-34", 0 ],
                                    "source": [ "obj-35", 1 ]
                                }
                            },
                            {
                                "patchline": {
                                    "destination": [ "obj-34", 0 ],
                                    "source": [ "obj-35", 0 ]
                                }
                            },
                            {
                                "patchline": {
                                    "destination": [ "obj-24", 0 ],
                                    "source": [ "obj-36", 0 ]
                                }
                            },
                            {
                                "patchline": {
                                    "destination": [ "obj-34", 0 ],
                                    "source": [ "obj-4", 1 ]
                                }
                            },
                            {
                                "patchline": {
                                    "destination": [ "obj-34", 0 ],
                                    "source": [ "obj-4", 0 ]
                                }
                            },
                            {
                                "patchline": {
                                    "destination": [ "obj-36", 0 ],
                                    "source": [ "obj-5", 1 ]
                                }
                            },
                            {
                                "patchline": {
                                    "destination": [ "obj-36", 0 ],
                                    "source": [ "obj-5", 0 ]
                                }
                            },
                            {
                                "patchline": {
                                    "destination": [ "obj-13", 3 ],
                                    "source": [ "obj-7", 3 ]
                                }
                            },
                            {
                                "patchline": {
                                    "destination": [ "obj-13", 2 ],
                                    "source": [ "obj-7", 2 ]
                                }
                            },
                            {
                                "patchline": {
                                    "destination": [ "obj-13", 1 ],
                                    "source": [ "obj-7", 1 ]
                                }
                            },
                            {
                                "patchline": {
                                    "destination": [ "obj-13", 0 ],
                                    "source": [ "obj-7", 0 ]
                                }
                            },
                            {
                                "patchline": {
                                    "destination": [ "obj-36", 0 ],
                                    "source": [ "obj-9", 3 ]
                                }
                            },
                            {
                                "patchline": {
                                    "destination": [ "obj-36", 0 ],
                                    "source": [ "obj-9", 2 ]
                                }
                            },
                            {
                                "patchline": {
                                    "destination": [ "obj-36", 0 ],
                                    "source": [ "obj-9", 1 ]
                                }
                            },
                            {
                                "patchline": {
                                    "destination": [ "obj-36", 0 ],
                                    "source": [ "obj-9", 0 ]
                                }
                            },
                            {
                                "patchline": {
                                    "destination": [ "obj-21", 0 ],
                                    "source": [ "obj-91", 0 ]
                                }
                            },
                            {
                                "patchline": {
                                    "destination": [ "obj-6", 1 ],
                                    "order": 1,
                                    "source": [ "obj-92", 0 ]
                                }
                            },
                            {
                                "patchline": {
                                    "destination": [ "obj-93", 0 ],
                                    "order": 0,
                                    "source": [ "obj-92", 0 ]
                                }
                            },
                            {
                                "patchline": {
                                    "destination": [ "obj-91", 0 ],
                                    "source": [ "obj-93", 0 ]
                                }
                            }
                        ]
                    },
                    "patching_rect": [ 205.0, 127.0, 107.0, 22.0 ],
                    "text": "p KEY_HANDLER"
                }
            }
        ],
        "lines": [
            {
                "patchline": {
                    "destination": [ "obj-4", 1 ],
                    "source": [ "obj-1", 0 ]
                }
            },
            {
                "patchline": {
                    "destination": [ "obj-4", 1 ],
                    "source": [ "obj-11", 1 ]
                }
            },
            {
                "patchline": {
                    "destination": [ "obj-4", 0 ],
                    "source": [ "obj-11", 0 ]
                }
            },
            {
                "patchline": {
                    "destination": [ "obj-1", 0 ],
                    "order": 0,
                    "source": [ "obj-16", 0 ]
                }
            },
            {
                "patchline": {
                    "destination": [ "obj-4", 0 ],
                    "order": 1,
                    "source": [ "obj-16", 0 ]
                }
            },
            {
                "patchline": {
                    "destination": [ "obj-16", 0 ],
                    "source": [ "obj-22", 2 ]
                }
            },
            {
                "patchline": {
                    "destination": [ "obj-4", 2 ],
                    "midpoints": [ 258.5, 182.0, 633.8333333333333, 182.0 ],
                    "source": [ "obj-22", 1 ]
                }
            },
            {
                "patchline": {
                    "destination": [ "obj-4", 0 ],
                    "source": [ "obj-22", 0 ]
                }
            },
            {
                "patchline": {
                    "destination": [ "obj-2", 0 ],
                    "source": [ "obj-4", 0 ]
                }
            },
            {
                "patchline": {
                    "destination": [ "obj-6", 1 ],
                    "source": [ "obj-4", 1 ]
                }
            },
            {
                "patchline": {
                    "destination": [ "obj-11", 0 ],
                    "source": [ "obj-8", 0 ]
                }
            }
        ],
        "autosave": 0
    }
}