{
    "patcher": {
        "fileversion": 1,
        "appversion": {
            "major": 9,
            "minor": 1,
            "revision": 1,
            "architecture": "x64",
            "modernui": 1
        },
        "classnamespace": "box",
        "rect": [ 98.0, 132.0, 1422.0, 905.0 ],
        "boxes": [
            {
                "box": {
                    "id": "obj-52",
                    "maxclass": "message",
                    "numinlets": 2,
                    "numoutlets": 1,
                    "outlettype": [ "" ],
                    "patching_rect": [ 676.0481969118118, -381.9277249574661, 29.5, 22.0 ],
                    "text": "32"
                }
            },
            {
                "box": {
                    "id": "obj-50",
                    "maxclass": "message",
                    "numinlets": 2,
                    "numoutlets": 1,
                    "outlettype": [ "" ],
                    "patching_rect": [ 620.6265081167221, -381.9277249574661, 32.0, 22.0 ],
                    "text": "0.55"
                }
            },
            {
                "box": {
                    "id": "obj-49",
                    "maxclass": "message",
                    "numinlets": 2,
                    "numoutlets": 1,
                    "outlettype": [ "" ],
                    "patching_rect": [ 564.0, -381.9277249574661, 39.0, 22.0 ],
                    "text": "3.905"
                }
            },
            {
                "box": {
                    "id": "obj-47",
                    "maxclass": "newobj",
                    "numinlets": 1,
                    "numoutlets": 1,
                    "outlettype": [ "bang" ],
                    "patching_rect": [ 564.0, -426.5060398578644, 58.0, 22.0 ],
                    "text": "loadbang"
                }
            },
            {
                "box": {
                    "allowdrag": 0,
                    "beats": 16,
                    "bgcolor": [ 0.0, 0.0, 0.0, 1.0 ],
                    "buffername": "ch1",
                    "chanoffset": 24,
                    "id": "obj-46",
                    "ignoreclick": 1,
                    "invert": 1,
                    "maxclass": "waveform~",
                    "norulerclick": 0,
                    "numinlets": 5,
                    "numoutlets": 6,
                    "outlettype": [ "float", "float", "float", "float", "list", "" ],
                    "patching_rect": [ 1027.0, 797.0, 179.0, 55.0 ],
                    "quiet": 1,
                    "selectioncolor": [ 0.2980392156862745, 0.2980392156862745, 0.2980392156862745, 1.0 ],
                    "setunit": 1,
                    "shadowline": 0,
                    "style": "rnbodefault",
                    "ticks": 1
                }
            },
            {
                "box": {
                    "allowdrag": 0,
                    "beats": 16,
                    "bgcolor": [ 0.0, 0.0, 0.0, 1.0 ],
                    "buffername": "ch1",
                    "chanoffset": 23,
                    "id": "obj-45",
                    "ignoreclick": 1,
                    "invert": 1,
                    "maxclass": "waveform~",
                    "norulerclick": 0,
                    "numinlets": 5,
                    "numoutlets": 6,
                    "outlettype": [ "float", "float", "float", "float", "list", "" ],
                    "patching_rect": [ 1027.0, 731.0, 179.0, 55.0 ],
                    "quiet": 1,
                    "selectioncolor": [ 0.2980392156862745, 0.2980392156862745, 0.2980392156862745, 1.0 ],
                    "setunit": 1,
                    "shadowline": 0,
                    "style": "rnbodefault",
                    "ticks": 1
                }
            },
            {
                "box": {
                    "allowdrag": 0,
                    "beats": 16,
                    "bgcolor": [ 0.0, 0.0, 0.0, 1.0 ],
                    "buffername": "ch1",
                    "chanoffset": 22,
                    "id": "obj-44",
                    "ignoreclick": 1,
                    "invert": 1,
                    "maxclass": "waveform~",
                    "norulerclick": 0,
                    "numinlets": 5,
                    "numoutlets": 6,
                    "outlettype": [ "float", "float", "float", "float", "list", "" ],
                    "patching_rect": [ 1027.0, 662.0, 179.0, 55.0 ],
                    "quiet": 1,
                    "selectioncolor": [ 0.2980392156862745, 0.2980392156862745, 0.2980392156862745, 1.0 ],
                    "setunit": 1,
                    "shadowline": 0,
                    "style": "rnbodefault",
                    "ticks": 1
                }
            },
            {
                "box": {
                    "allowdrag": 0,
                    "beats": 16,
                    "bgcolor": [ 0.0, 0.0, 0.0, 1.0 ],
                    "buffername": "ch1",
                    "chanoffset": 21,
                    "id": "obj-43",
                    "ignoreclick": 1,
                    "invert": 1,
                    "maxclass": "waveform~",
                    "norulerclick": 0,
                    "numinlets": 5,
                    "numoutlets": 6,
                    "outlettype": [ "float", "float", "float", "float", "list", "" ],
                    "patching_rect": [ 1027.0, 598.0, 179.0, 55.0 ],
                    "quiet": 1,
                    "selectioncolor": [ 0.2980392156862745, 0.2980392156862745, 0.2980392156862745, 1.0 ],
                    "setunit": 1,
                    "shadowline": 0,
                    "style": "rnbodefault",
                    "ticks": 1
                }
            },
            {
                "box": {
                    "allowdrag": 0,
                    "beats": 16,
                    "bgcolor": [ 0.0, 0.0, 0.0, 1.0 ],
                    "buffername": "ch1",
                    "chanoffset": 20,
                    "id": "obj-42",
                    "ignoreclick": 1,
                    "invert": 1,
                    "maxclass": "waveform~",
                    "norulerclick": 0,
                    "numinlets": 5,
                    "numoutlets": 6,
                    "outlettype": [ "float", "float", "float", "float", "list", "" ],
                    "patching_rect": [ 831.0, 797.0, 179.0, 55.0 ],
                    "quiet": 1,
                    "selectioncolor": [ 0.2980392156862745, 0.2980392156862745, 0.2980392156862745, 1.0 ],
                    "setunit": 1,
                    "shadowline": 0,
                    "style": "rnbodefault",
                    "ticks": 1
                }
            },
            {
                "box": {
                    "allowdrag": 0,
                    "beats": 16,
                    "bgcolor": [ 0.0, 0.0, 0.0, 1.0 ],
                    "buffername": "ch1",
                    "chanoffset": 19,
                    "id": "obj-41",
                    "ignoreclick": 1,
                    "invert": 1,
                    "maxclass": "waveform~",
                    "norulerclick": 0,
                    "numinlets": 5,
                    "numoutlets": 6,
                    "outlettype": [ "float", "float", "float", "float", "list", "" ],
                    "patching_rect": [ 831.0, 731.0, 179.0, 55.0 ],
                    "quiet": 1,
                    "selectioncolor": [ 0.2980392156862745, 0.2980392156862745, 0.2980392156862745, 1.0 ],
                    "setunit": 1,
                    "shadowline": 0,
                    "style": "rnbodefault",
                    "ticks": 1
                }
            },
            {
                "box": {
                    "allowdrag": 0,
                    "beats": 16,
                    "bgcolor": [ 0.0, 0.0, 0.0, 1.0 ],
                    "buffername": "ch1",
                    "chanoffset": 18,
                    "id": "obj-40",
                    "ignoreclick": 1,
                    "invert": 1,
                    "maxclass": "waveform~",
                    "norulerclick": 0,
                    "numinlets": 5,
                    "numoutlets": 6,
                    "outlettype": [ "float", "float", "float", "float", "list", "" ],
                    "patching_rect": [ 831.0, 662.0, 179.0, 55.0 ],
                    "quiet": 1,
                    "selectioncolor": [ 0.2980392156862745, 0.2980392156862745, 0.2980392156862745, 1.0 ],
                    "setunit": 1,
                    "shadowline": 0,
                    "style": "rnbodefault",
                    "ticks": 1
                }
            },
            {
                "box": {
                    "allowdrag": 0,
                    "beats": 16,
                    "bgcolor": [ 0.0, 0.0, 0.0, 1.0 ],
                    "buffername": "ch1",
                    "chanoffset": 17,
                    "id": "obj-39",
                    "ignoreclick": 1,
                    "invert": 1,
                    "maxclass": "waveform~",
                    "norulerclick": 0,
                    "numinlets": 5,
                    "numoutlets": 6,
                    "outlettype": [ "float", "float", "float", "float", "list", "" ],
                    "patching_rect": [ 831.0, 598.0, 179.0, 55.0 ],
                    "quiet": 1,
                    "selectioncolor": [ 0.2980392156862745, 0.2980392156862745, 0.2980392156862745, 1.0 ],
                    "setunit": 1,
                    "shadowline": 0,
                    "style": "rnbodefault",
                    "ticks": 1
                }
            },
            {
                "box": {
                    "allowdrag": 0,
                    "beats": 16,
                    "bgcolor": [ 0.0, 0.0, 0.0, 1.0 ],
                    "buffername": "ch1",
                    "chanoffset": 16,
                    "id": "obj-37",
                    "ignoreclick": 1,
                    "invert": 1,
                    "maxclass": "waveform~",
                    "norulerclick": 0,
                    "numinlets": 5,
                    "numoutlets": 6,
                    "outlettype": [ "float", "float", "float", "float", "list", "" ],
                    "patching_rect": [ 633.0, 797.0, 179.0, 55.0 ],
                    "quiet": 1,
                    "selectioncolor": [ 0.2980392156862745, 0.2980392156862745, 0.2980392156862745, 1.0 ],
                    "setunit": 1,
                    "shadowline": 0,
                    "style": "rnbodefault",
                    "ticks": 1
                }
            },
            {
                "box": {
                    "allowdrag": 0,
                    "beats": 16,
                    "bgcolor": [ 0.0, 0.0, 0.0, 1.0 ],
                    "buffername": "ch1",
                    "chanoffset": 15,
                    "id": "obj-36",
                    "ignoreclick": 1,
                    "invert": 1,
                    "maxclass": "waveform~",
                    "norulerclick": 0,
                    "numinlets": 5,
                    "numoutlets": 6,
                    "outlettype": [ "float", "float", "float", "float", "list", "" ],
                    "patching_rect": [ 633.0, 731.0, 179.0, 55.0 ],
                    "quiet": 1,
                    "selectioncolor": [ 0.2980392156862745, 0.2980392156862745, 0.2980392156862745, 1.0 ],
                    "setunit": 1,
                    "shadowline": 0,
                    "style": "rnbodefault",
                    "ticks": 1
                }
            },
            {
                "box": {
                    "allowdrag": 0,
                    "beats": 16,
                    "bgcolor": [ 0.0, 0.0, 0.0, 1.0 ],
                    "buffername": "ch1",
                    "chanoffset": 14,
                    "id": "obj-35",
                    "ignoreclick": 1,
                    "invert": 1,
                    "maxclass": "waveform~",
                    "norulerclick": 0,
                    "numinlets": 5,
                    "numoutlets": 6,
                    "outlettype": [ "float", "float", "float", "float", "list", "" ],
                    "patching_rect": [ 633.0, 662.0, 179.0, 55.0 ],
                    "quiet": 1,
                    "selectioncolor": [ 0.2980392156862745, 0.2980392156862745, 0.2980392156862745, 1.0 ],
                    "setunit": 1,
                    "shadowline": 0,
                    "style": "rnbodefault",
                    "ticks": 1
                }
            },
            {
                "box": {
                    "allowdrag": 0,
                    "beats": 16,
                    "bgcolor": [ 0.0, 0.0, 0.0, 1.0 ],
                    "buffername": "ch1",
                    "chanoffset": 13,
                    "id": "obj-34",
                    "ignoreclick": 1,
                    "invert": 1,
                    "maxclass": "waveform~",
                    "norulerclick": 0,
                    "numinlets": 5,
                    "numoutlets": 6,
                    "outlettype": [ "float", "float", "float", "float", "list", "" ],
                    "patching_rect": [ 633.0, 598.0, 179.0, 55.0 ],
                    "quiet": 1,
                    "selectioncolor": [ 0.2980392156862745, 0.2980392156862745, 0.2980392156862745, 1.0 ],
                    "setunit": 1,
                    "shadowline": 0,
                    "style": "rnbodefault",
                    "ticks": 1
                }
            },
            {
                "box": {
                    "allowdrag": 0,
                    "beats": 16,
                    "bgcolor": [ 0.0, 0.0, 0.0, 1.0 ],
                    "buffername": "ch1",
                    "chanoffset": 12,
                    "id": "obj-33",
                    "ignoreclick": 1,
                    "invert": 1,
                    "maxclass": "waveform~",
                    "norulerclick": 0,
                    "numinlets": 5,
                    "numoutlets": 6,
                    "outlettype": [ "float", "float", "float", "float", "list", "" ],
                    "patching_rect": [ 437.0, 797.0, 179.0, 55.0 ],
                    "quiet": 1,
                    "selectioncolor": [ 0.2980392156862745, 0.2980392156862745, 0.2980392156862745, 1.0 ],
                    "setunit": 1,
                    "shadowline": 0,
                    "style": "rnbodefault",
                    "ticks": 1
                }
            },
            {
                "box": {
                    "allowdrag": 0,
                    "beats": 16,
                    "bgcolor": [ 0.0, 0.0, 0.0, 1.0 ],
                    "buffername": "ch1",
                    "chanoffset": 11,
                    "id": "obj-32",
                    "ignoreclick": 1,
                    "invert": 1,
                    "maxclass": "waveform~",
                    "norulerclick": 0,
                    "numinlets": 5,
                    "numoutlets": 6,
                    "outlettype": [ "float", "float", "float", "float", "list", "" ],
                    "patching_rect": [ 437.0, 731.0, 179.0, 55.0 ],
                    "quiet": 1,
                    "selectioncolor": [ 0.2980392156862745, 0.2980392156862745, 0.2980392156862745, 1.0 ],
                    "setunit": 1,
                    "shadowline": 0,
                    "style": "rnbodefault",
                    "ticks": 1
                }
            },
            {
                "box": {
                    "allowdrag": 0,
                    "beats": 16,
                    "bgcolor": [ 0.0, 0.0, 0.0, 1.0 ],
                    "buffername": "ch1",
                    "chanoffset": 10,
                    "id": "obj-31",
                    "ignoreclick": 1,
                    "invert": 1,
                    "maxclass": "waveform~",
                    "norulerclick": 0,
                    "numinlets": 5,
                    "numoutlets": 6,
                    "outlettype": [ "float", "float", "float", "float", "list", "" ],
                    "patching_rect": [ 437.0, 662.0, 179.0, 55.0 ],
                    "quiet": 1,
                    "selectioncolor": [ 0.2980392156862745, 0.2980392156862745, 0.2980392156862745, 1.0 ],
                    "setunit": 1,
                    "shadowline": 0,
                    "style": "rnbodefault",
                    "ticks": 1
                }
            },
            {
                "box": {
                    "allowdrag": 0,
                    "beats": 16,
                    "bgcolor": [ 0.0, 0.0, 0.0, 1.0 ],
                    "buffername": "ch1",
                    "chanoffset": 9,
                    "id": "obj-30",
                    "ignoreclick": 1,
                    "invert": 1,
                    "maxclass": "waveform~",
                    "norulerclick": 0,
                    "numinlets": 5,
                    "numoutlets": 6,
                    "outlettype": [ "float", "float", "float", "float", "list", "" ],
                    "patching_rect": [ 437.0, 598.0, 179.0, 55.0 ],
                    "quiet": 1,
                    "selectioncolor": [ 0.2980392156862745, 0.2980392156862745, 0.2980392156862745, 1.0 ],
                    "setunit": 1,
                    "shadowline": 0,
                    "style": "rnbodefault",
                    "ticks": 1
                }
            },
            {
                "box": {
                    "allowdrag": 0,
                    "beats": 16,
                    "bgcolor": [ 0.0, 0.0, 0.0, 1.0 ],
                    "buffername": "ch1",
                    "chanoffset": 8,
                    "id": "obj-29",
                    "ignoreclick": 1,
                    "invert": 1,
                    "maxclass": "waveform~",
                    "norulerclick": 0,
                    "numinlets": 5,
                    "numoutlets": 6,
                    "outlettype": [ "float", "float", "float", "float", "list", "" ],
                    "patching_rect": [ 244.0, 797.0, 179.0, 55.0 ],
                    "quiet": 1,
                    "selectioncolor": [ 0.2980392156862745, 0.2980392156862745, 0.2980392156862745, 1.0 ],
                    "setunit": 1,
                    "shadowline": 0,
                    "style": "rnbodefault",
                    "ticks": 1
                }
            },
            {
                "box": {
                    "allowdrag": 0,
                    "beats": 16,
                    "bgcolor": [ 0.0, 0.0, 0.0, 1.0 ],
                    "buffername": "ch1",
                    "chanoffset": 7,
                    "id": "obj-27",
                    "ignoreclick": 1,
                    "invert": 1,
                    "maxclass": "waveform~",
                    "norulerclick": 0,
                    "numinlets": 5,
                    "numoutlets": 6,
                    "outlettype": [ "float", "float", "float", "float", "list", "" ],
                    "patching_rect": [ 244.0, 731.0, 179.0, 55.0 ],
                    "quiet": 1,
                    "selectioncolor": [ 0.2980392156862745, 0.2980392156862745, 0.2980392156862745, 1.0 ],
                    "setunit": 1,
                    "shadowline": 0,
                    "style": "rnbodefault",
                    "ticks": 1
                }
            },
            {
                "box": {
                    "allowdrag": 0,
                    "beats": 16,
                    "bgcolor": [ 0.0, 0.0, 0.0, 1.0 ],
                    "buffername": "ch1",
                    "chanoffset": 6,
                    "id": "obj-26",
                    "ignoreclick": 1,
                    "invert": 1,
                    "maxclass": "waveform~",
                    "norulerclick": 0,
                    "numinlets": 5,
                    "numoutlets": 6,
                    "outlettype": [ "float", "float", "float", "float", "list", "" ],
                    "patching_rect": [ 244.0, 662.0, 179.0, 55.0 ],
                    "quiet": 1,
                    "selectioncolor": [ 0.2980392156862745, 0.2980392156862745, 0.2980392156862745, 1.0 ],
                    "setunit": 1,
                    "shadowline": 0,
                    "style": "rnbodefault",
                    "ticks": 1
                }
            },
            {
                "box": {
                    "allowdrag": 0,
                    "beats": 16,
                    "bgcolor": [ 0.0, 0.0, 0.0, 1.0 ],
                    "buffername": "ch1",
                    "chanoffset": 5,
                    "id": "obj-24",
                    "ignoreclick": 1,
                    "invert": 1,
                    "maxclass": "waveform~",
                    "norulerclick": 0,
                    "numinlets": 5,
                    "numoutlets": 6,
                    "outlettype": [ "float", "float", "float", "float", "list", "" ],
                    "patching_rect": [ 244.0, 598.0, 179.0, 55.0 ],
                    "quiet": 1,
                    "selectioncolor": [ 0.2980392156862745, 0.2980392156862745, 0.2980392156862745, 1.0 ],
                    "setunit": 1,
                    "shadowline": 0,
                    "style": "rnbodefault",
                    "ticks": 1
                }
            },
            {
                "box": {
                    "allowdrag": 0,
                    "beats": 16,
                    "bgcolor": [ 0.0, 0.0, 0.0, 1.0 ],
                    "buffername": "ch1",
                    "chanoffset": 4,
                    "id": "obj-23",
                    "ignoreclick": 1,
                    "invert": 1,
                    "maxclass": "waveform~",
                    "norulerclick": 0,
                    "numinlets": 5,
                    "numoutlets": 6,
                    "outlettype": [ "float", "float", "float", "float", "list", "" ],
                    "patching_rect": [ 53.0, 797.0, 179.0, 55.0 ],
                    "quiet": 1,
                    "selectioncolor": [ 0.2980392156862745, 0.2980392156862745, 0.2980392156862745, 1.0 ],
                    "setunit": 1,
                    "shadowline": 0,
                    "style": "rnbodefault",
                    "ticks": 1
                }
            },
            {
                "box": {
                    "allowdrag": 0,
                    "beats": 16,
                    "bgcolor": [ 0.0, 0.0, 0.0, 1.0 ],
                    "buffername": "ch1",
                    "chanoffset": 3,
                    "id": "obj-21",
                    "ignoreclick": 1,
                    "invert": 1,
                    "maxclass": "waveform~",
                    "norulerclick": 0,
                    "numinlets": 5,
                    "numoutlets": 6,
                    "outlettype": [ "float", "float", "float", "float", "list", "" ],
                    "patching_rect": [ 53.0, 731.0, 179.0, 55.0 ],
                    "quiet": 1,
                    "selectioncolor": [ 0.2980392156862745, 0.2980392156862745, 0.2980392156862745, 1.0 ],
                    "setunit": 1,
                    "shadowline": 0,
                    "style": "rnbodefault",
                    "ticks": 1
                }
            },
            {
                "box": {
                    "allowdrag": 0,
                    "beats": 16,
                    "bgcolor": [ 0.0, 0.0, 0.0, 1.0 ],
                    "buffername": "ch1",
                    "chanoffset": 2,
                    "id": "obj-19",
                    "ignoreclick": 1,
                    "invert": 1,
                    "maxclass": "waveform~",
                    "norulerclick": 0,
                    "numinlets": 5,
                    "numoutlets": 6,
                    "outlettype": [ "float", "float", "float", "float", "list", "" ],
                    "patching_rect": [ 53.0, 662.0, 179.0, 55.0 ],
                    "quiet": 1,
                    "selectioncolor": [ 0.2980392156862745, 0.2980392156862745, 0.2980392156862745, 1.0 ],
                    "setunit": 1,
                    "shadowline": 0,
                    "style": "rnbodefault",
                    "ticks": 1
                }
            },
            {
                "box": {
                    "id": "obj-8",
                    "maxclass": "message",
                    "numinlets": 2,
                    "numoutlets": 1,
                    "outlettype": [ "" ],
                    "patching_rect": [ 877.0, 147.0, 50.0, 22.0 ],
                    "text": "-1."
                }
            },
            {
                "box": {
                    "id": "obj-6",
                    "maxclass": "newobj",
                    "numinlets": 3,
                    "numoutlets": 1,
                    "outlettype": [ "float" ],
                    "patching_rect": [ 919.0, 100.0, 84.0, 22.0 ],
                    "text": "peek~ ch1 1 0"
                }
            },
            {
                "box": {
                    "id": "obj-25",
                    "maxclass": "message",
                    "numinlets": 2,
                    "numoutlets": 1,
                    "outlettype": [ "" ],
                    "patching_rect": [ 713.0, 100.0, 81.0, 22.0 ],
                    "text": "modify_buffer"
                }
            },
            {
                "box": {
                    "allowdrag": 0,
                    "beats": 16,
                    "bgcolor": [ 0.0, 0.0, 0.0, 1.0 ],
                    "buffername": "ch1",
                    "id": "obj-11",
                    "ignoreclick": 1,
                    "invert": 1,
                    "maxclass": "waveform~",
                    "norulerclick": 0,
                    "numinlets": 5,
                    "numoutlets": 6,
                    "outlettype": [ "float", "float", "float", "float", "list", "" ],
                    "patching_rect": [ 53.0, 598.0, 179.0, 55.0 ],
                    "quiet": 1,
                    "selectioncolor": [ 0.2980392156862745, 0.2980392156862745, 0.2980392156862745, 1.0 ],
                    "setunit": 1,
                    "shadowline": 0,
                    "style": "rnbodefault",
                    "ticks": 1
                }
            },
            {
                "box": {
                    "bgcolor": [ 0.2784313725490196, 0.23921568627450981, 0.23921568627450981, 1.0 ],
                    "fontface": 0,
                    "fontsize": 12.0,
                    "id": "obj-5",
                    "maxclass": "newobj",
                    "numinlets": 1,
                    "numoutlets": 2,
                    "outlettype": [ "float", "bang" ],
                    "patching_rect": [ 81.0, 520.0, 69.0, 22.0 ],
                    "style": "redness",
                    "text": "buffer~ ch1"
                }
            },
            {
                "box": {
                    "fontname": "Consolas Bold",
                    "id": "obj-38",
                    "linecount": 10,
                    "maxclass": "comment",
                    "numinlets": 1,
                    "numoutlets": 0,
                    "patching_rect": [ 205.0, -156.0, 326.0, 147.0 ],
                    "text": "- spacebar         : enter/exit edit mode\n- arrow keys       : navigate cursor\n- ctrl + arrows    : faster navigation\n- ctrl + x         : cuts\n- ctrl + c         : copy\n- ctrl + v         : paste\n- shift + arrows   : set the selection rectangle\n- shift + i        : interpolate selection\n- alt + plus/minus : (not numkeys) transposes\n- alt + up/down    : shifts content of selection"
                }
            },
            {
                "box": {
                    "id": "obj-17",
                    "maxclass": "newobj",
                    "numinlets": 1,
                    "numoutlets": 2,
                    "outlettype": [ "bang", "bang" ],
                    "patching_rect": [ 772.0, -113.0, 42.0, 22.0 ],
                    "text": "edge~"
                }
            },
            {
                "box": {
                    "id": "obj-10",
                    "maxclass": "message",
                    "numinlets": 2,
                    "numoutlets": 1,
                    "outlettype": [ "" ],
                    "patching_rect": [ 686.0, 36.0, 135.0, 22.0 ],
                    "text": "command buffermode:1"
                }
            },
            {
                "box": {
                    "id": "obj-3",
                    "maxclass": "newobj",
                    "numinlets": 1,
                    "numoutlets": 2,
                    "outlettype": [ "bang", "int" ],
                    "patching_rect": [ 901.0, 10.0, 29.5, 22.0 ],
                    "text": "t b i"
                }
            },
            {
                "box": {
                    "id": "obj-2",
                    "maxclass": "newobj",
                    "numinlets": 2,
                    "numoutlets": 1,
                    "outlettype": [ "float" ],
                    "patching_rect": [ 904.6154232025146, -68.0, 64.0, 22.0 ],
                    "text": "snapshot~"
                }
            },
            {
                "box": {
                    "id": "obj-20",
                    "maxclass": "number",
                    "numinlets": 1,
                    "numoutlets": 2,
                    "outlettype": [ "", "bang" ],
                    "parameter_enable": 0,
                    "patching_rect": [ 950.0, -332.0, 50.0, 22.0 ]
                }
            },
            {
                "box": {
                    "fontface": 0,
                    "fontname": "Arial",
                    "fontsize": 12.0,
                    "id": "obj-9",
                    "maxclass": "number~",
                    "mode": 2,
                    "numinlets": 2,
                    "numoutlets": 2,
                    "outlettype": [ "signal", "float" ],
                    "patching_rect": [ 950.0, -103.0, 56.0, 22.0 ],
                    "sig": 0.0
                }
            },
            {
                "box": {
                    "id": "obj-12",
                    "maxclass": "live.scope~",
                    "numinlets": 2,
                    "numoutlets": 1,
                    "outlettype": [ "bang" ],
                    "patching_rect": [ 564.0, -103.0, 184.0, 68.0 ]
                }
            },
            {
                "box": {
                    "code": "subdiv(signal, amt){\r\n    // amt must be between 0.5 and 1.0\r\n    // signal is a phasor signal.\r\n    phasor_path3 = 0;\r\n\r\n    if (signal > amt){\r\n        phasor_path3 = (signal - amt) / (1 - amt);\r\n    }\r\n    else {\r\n        phasor_path3 = signal / amt;\r\n    }\r\n    return phasor_path3;\r\n\r\n}\r\n\r\nHistory step_count(0);\r\n\r\nrate = in1;\r\nswing = in2;\r\npattern_length = in3;\r\n\r\n\r\nphasor_path = phasor(rate);\r\nphasor_path3 = subdiv(phasor_path, swing);\r\nphasor_path4 = subdiv(phasor_path3, 0.5);\r\n\r\n// Detect wrap (delta will be negative when phasor wraps)\ndelta_sig = delta(phasor_path4);\ntrigger = delta_sig < 0;\n\n\nstep_count = (step_count + trigger) % pattern_length;\n\n// Output\nout1 = trigger;  // bang/trigger out\nout2 = step_count; // step number to use for cellblock reading",
                    "fontface": 0,
                    "fontname": "<Monospaced>",
                    "fontsize": 12.0,
                    "id": "obj-13",
                    "maxclass": "gen.codebox~",
                    "numinlets": 3,
                    "numoutlets": 2,
                    "outlettype": [ "signal", "signal" ],
                    "patching_rect": [ 564.0, -258.0, 404.61542320251465, 126.15385818481445 ]
                }
            },
            {
                "box": {
                    "format": 6,
                    "id": "obj-14",
                    "maxclass": "flonum",
                    "maximum": 1.0,
                    "minimum": 0.5,
                    "numinlets": 1,
                    "numoutlets": 2,
                    "outlettype": [ "", "bang" ],
                    "parameter_enable": 0,
                    "patching_rect": [ 651.0, -335.0, 50.0, 22.0 ]
                }
            },
            {
                "box": {
                    "format": 6,
                    "id": "obj-15",
                    "maxclass": "flonum",
                    "numinlets": 1,
                    "numoutlets": 2,
                    "outlettype": [ "", "bang" ],
                    "parameter_enable": 0,
                    "patching_rect": [ 564.0, -327.0, 50.0, 22.0 ]
                }
            },
            {
                "box": {
                    "bgmode": 0,
                    "border": 0,
                    "clickthrough": 0,
                    "enablehscroll": 0,
                    "enablevscroll": 0,
                    "id": "obj-16",
                    "lockeddragscroll": 0,
                    "lockedsize": 0,
                    "maxclass": "bpatcher",
                    "name": "TrackerTempo.maxpat",
                    "numinlets": 1,
                    "numoutlets": 1,
                    "offset": [ 0.0, 0.0 ],
                    "outlettype": [ "bang" ],
                    "patching_rect": [ 205.0, 81.0, 212.8674705028534, 28.915663719177246 ],
                    "presentation": 1,
                    "presentation_rect": [ -5.481928467750549, 174.03615045547485, 212.8674705028534, 28.915663719177246 ],
                    "viewvisibility": 1
                }
            },
            {
                "box": {
                    "id": "obj-1",
                    "maxclass": "newobj",
                    "numinlets": 5,
                    "numoutlets": 4,
                    "outlettype": [ "int", "", "", "int" ],
                    "patching_rect": [ 437.0, 95.0, 65.0, 22.0 ],
                    "text": "counter 31"
                }
            },
            {
                "box": {
                    "border": 0,
                    "filename": "haze_tracker.js",
                    "id": "obj-4",
                    "maxclass": "v8ui",
                    "numinlets": 4,
                    "numoutlets": 3,
                    "outlettype": [ "", "", "" ],
                    "parameter_enable": 0,
                    "patching_rect": [ 205.0, 141.0, 638.1356084346771, 436.4406883716583 ],
                    "textfile": {
                        "filename": "haze_tracker.js",
                        "flags": 0,
                        "embed": 0,
                        "autowatch": 1
                    }
                }
            },
            {
                "box": {
                    "id": "obj-22",
                    "maxclass": "newobj",
                    "numinlets": 0,
                    "numoutlets": 3,
                    "outlettype": [ "", "", "bang" ],
                    "patcher": {
                        "fileversion": 1,
                        "appversion": {
                            "major": 9,
                            "minor": 1,
                            "revision": 1,
                            "architecture": "x64",
                            "modernui": 1
                        },
                        "classnamespace": "box",
                        "rect": [ -1335.0, 131.0, 919.0, 649.0 ],
                        "boxes": [
                            {
                                "box": {
                                    "id": "obj-5",
                                    "maxclass": "newobj",
                                    "numinlets": 3,
                                    "numoutlets": 3,
                                    "outlettype": [ "bang", "bang", "" ],
                                    "patching_rect": [ 570.0, 117.0, 57.0, 22.0 ],
                                    "text": "sel 95 43"
                                }
                            },
                            {
                                "box": {
                                    "id": "obj-4",
                                    "maxclass": "newobj",
                                    "numinlets": 3,
                                    "numoutlets": 3,
                                    "outlettype": [ "bang", "bang", "" ],
                                    "patching_rect": [ 749.0, 115.0, 57.0, 22.0 ],
                                    "text": "sel 95 43"
                                }
                            },
                            {
                                "box": {
                                    "id": "obj-2",
                                    "maxclass": "comment",
                                    "numinlets": 1,
                                    "numoutlets": 0,
                                    "patching_rect": [ 471.0, 63.0, 150.0, 20.0 ],
                                    "text": "95, 43 are plus and minus"
                                }
                            },
                            {
                                "box": {
                                    "id": "obj-18",
                                    "maxclass": "live.scope~",
                                    "numinlets": 2,
                                    "numoutlets": 1,
                                    "outlettype": [ "bang" ],
                                    "patching_rect": [ 485.0, 387.6666662096977, 184.6666721701622, 30.666667580604553 ]
                                }
                            },
                            {
                                "box": {
                                    "id": "obj-17",
                                    "maxclass": "newobj",
                                    "numinlets": 1,
                                    "numoutlets": 1,
                                    "outlettype": [ "signal" ],
                                    "patching_rect": [ 484.87806034088135, 360.00000858306885, 39.0, 22.0 ],
                                    "text": "click~"
                                }
                            },
                            {
                                "box": {
                                    "id": "obj-20",
                                    "maxclass": "newobj",
                                    "numinlets": 2,
                                    "numoutlets": 1,
                                    "outlettype": [ "bang" ],
                                    "patching_rect": [ 485.0, 293.92308807373047, 63.0, 22.0 ],
                                    "text": "metro 105"
                                }
                            },
                            {
                                "box": {
                                    "id": "obj-23",
                                    "maxclass": "newobj",
                                    "numinlets": 2,
                                    "numoutlets": 1,
                                    "outlettype": [ "bang" ],
                                    "patching_rect": [ 485.0, 258.92308807373047, 61.0, 22.0 ],
                                    "text": "delay 200"
                                }
                            },
                            {
                                "box": {
                                    "id": "obj-24",
                                    "maxclass": "message",
                                    "numinlets": 2,
                                    "numoutlets": 1,
                                    "outlettype": [ "" ],
                                    "patching_rect": [ 485.0, 216.92308807373047, 37.0, 22.0 ],
                                    "text": "bang"
                                }
                            },
                            {
                                "box": {
                                    "id": "obj-26",
                                    "maxclass": "message",
                                    "numinlets": 2,
                                    "numoutlets": 1,
                                    "outlettype": [ "" ],
                                    "patching_rect": [ 527.0, 216.92308807373047, 31.0, 22.0 ],
                                    "text": "stop"
                                }
                            },
                            {
                                "box": {
                                    "id": "obj-37",
                                    "maxclass": "message",
                                    "numinlets": 2,
                                    "numoutlets": 1,
                                    "outlettype": [ "" ],
                                    "patching_rect": [ 336.0, 334.92308807373047, 50.0, 22.0 ],
                                    "text": "109"
                                }
                            },
                            {
                                "box": {
                                    "id": "obj-29",
                                    "maxclass": "newobj",
                                    "numinlets": 2,
                                    "numoutlets": 2,
                                    "outlettype": [ "", "" ],
                                    "patching_rect": [ 367.0, 187.69231605529785, 77.0, 22.0 ],
                                    "text": "array.index 1"
                                }
                            },
                            {
                                "box": {
                                    "id": "obj-34",
                                    "maxclass": "newobj",
                                    "numinlets": 1,
                                    "numoutlets": 1,
                                    "outlettype": [ "bang" ],
                                    "patching_rect": [ 664.0, 172.0, 22.0, 22.0 ],
                                    "text": "t b"
                                }
                            },
                            {
                                "box": {
                                    "id": "obj-35",
                                    "maxclass": "newobj",
                                    "numinlets": 5,
                                    "numoutlets": 5,
                                    "outlettype": [ "bang", "bang", "bang", "bang", "" ],
                                    "patching_rect": [ 646.0, 115.0, 91.0, 22.0 ],
                                    "text": "sel 28 29 30 31"
                                }
                            },
                            {
                                "box": {
                                    "id": "obj-36",
                                    "maxclass": "newobj",
                                    "numinlets": 1,
                                    "numoutlets": 2,
                                    "outlettype": [ "bang", "bang" ],
                                    "patching_rect": [ 485.0, 172.0, 32.0, 22.0 ],
                                    "text": "t b b"
                                }
                            },
                            {
                                "box": {
                                    "id": "obj-9",
                                    "maxclass": "newobj",
                                    "numinlets": 5,
                                    "numoutlets": 5,
                                    "outlettype": [ "bang", "bang", "bang", "bang", "" ],
                                    "patching_rect": [ 467.0, 117.0, 91.0, 22.0 ],
                                    "text": "sel 28 29 30 31"
                                }
                            },
                            {
                                "box": {
                                    "id": "obj-3",
                                    "maxclass": "newobj",
                                    "numinlets": 0,
                                    "numoutlets": 4,
                                    "outlettype": [ "int", "int", "int", "int" ],
                                    "patching_rect": [ 675.0, 62.0, 50.5, 22.0 ],
                                    "text": "keyup"
                                }
                            },
                            {
                                "box": {
                                    "id": "obj-91",
                                    "maxclass": "newobj",
                                    "numinlets": 2,
                                    "numoutlets": 2,
                                    "outlettype": [ "bang", "" ],
                                    "patching_rect": [ 291.53848457336426, 216.92308807373047, 34.0, 22.0 ],
                                    "text": "sel 1"
                                }
                            },
                            {
                                "box": {
                                    "id": "obj-6",
                                    "maxclass": "message",
                                    "numinlets": 2,
                                    "numoutlets": 1,
                                    "outlettype": [ "" ],
                                    "patching_rect": [ 137.69231605529785, 149.23077392578125, 154.0, 22.0 ],
                                    "text": "46",
                                    "varname": "input_keys[3]"
                                }
                            },
                            {
                                "box": {
                                    "id": "obj-93",
                                    "maxclass": "newobj",
                                    "numinlets": 2,
                                    "numoutlets": 1,
                                    "outlettype": [ "int" ],
                                    "patching_rect": [ 291.53848457336426, 187.69231605529785, 46.0, 22.0 ],
                                    "text": "== 100"
                                }
                            },
                            {
                                "box": {
                                    "id": "obj-92",
                                    "maxclass": "newobj",
                                    "numinlets": 2,
                                    "numoutlets": 2,
                                    "outlettype": [ "", "" ],
                                    "patching_rect": [ 199.2307834625244, 187.69231605529785, 77.0, 22.0 ],
                                    "text": "array.index 2"
                                }
                            },
                            {
                                "box": {
                                    "id": "obj-27",
                                    "maxclass": "newobj",
                                    "numinlets": 1,
                                    "numoutlets": 2,
                                    "outlettype": [ "bang", "" ],
                                    "patching_rect": [ 137.69231605529785, 216.92308807373047, 29.5, 22.0 ],
                                    "text": "t b l"
                                }
                            },
                            {
                                "box": {
                                    "id": "obj-22",
                                    "maxclass": "message",
                                    "numinlets": 2,
                                    "numoutlets": 1,
                                    "outlettype": [ "" ],
                                    "patching_rect": [ 137.69231605529785, 334.92308807373047, 154.0, 22.0 ],
                                    "text": "keys 109 46 0 109",
                                    "varname": "input_keys[1]"
                                }
                            },
                            {
                                "box": {
                                    "id": "obj-19",
                                    "maxclass": "newobj",
                                    "numinlets": 1,
                                    "numoutlets": 1,
                                    "outlettype": [ "" ],
                                    "patching_rect": [ 96.15385055541992, 187.69231605529785, 81.0, 22.0 ],
                                    "text": "prepend keys"
                                }
                            },
                            {
                                "box": {
                                    "id": "obj-16",
                                    "maxclass": "message",
                                    "numinlets": 2,
                                    "numoutlets": 1,
                                    "outlettype": [ "" ],
                                    "patching_rect": [ 50.0, 334.92308807373047, 74.0, 22.0 ],
                                    "text": "key_handler"
                                }
                            },
                            {
                                "box": {
                                    "id": "obj-14",
                                    "maxclass": "newobj",
                                    "numinlets": 1,
                                    "numoutlets": 2,
                                    "outlettype": [ "bang", "" ],
                                    "patching_rect": [ 50.0, 156.92308235168457, 29.5, 22.0 ],
                                    "text": "t b l"
                                }
                            },
                            {
                                "box": {
                                    "id": "obj-13",
                                    "maxclass": "newobj",
                                    "numinlets": 4,
                                    "numoutlets": 1,
                                    "outlettype": [ "" ],
                                    "patching_rect": [ 50.0, 130.76923370361328, 58.0, 22.0 ],
                                    "text": "pack i i i i"
                                }
                            },
                            {
                                "box": {
                                    "id": "obj-7",
                                    "maxclass": "newobj",
                                    "numinlets": 0,
                                    "numoutlets": 4,
                                    "outlettype": [ "int", "int", "int", "int" ],
                                    "patching_rect": [ 50.0, 100.0, 50.5, 22.0 ],
                                    "text": "key"
                                }
                            },
                            {
                                "box": {
                                    "comment": "Trigger the KeyHandler function",
                                    "id": "obj-8",
                                    "index": 1,
                                    "maxclass": "outlet",
                                    "numinlets": 1,
                                    "numoutlets": 0,
                                    "patching_rect": [ 50.0, 388.0, 30.0, 30.0 ]
                                }
                            },
                            {
                                "box": {
                                    "comment": "Passes the Keys list ( 4 long )",
                                    "id": "obj-15",
                                    "index": 2,
                                    "maxclass": "outlet",
                                    "numinlets": 1,
                                    "numoutlets": 0,
                                    "patching_rect": [ 138.0, 388.0, 30.0, 30.0 ]
                                }
                            },
                            {
                                "box": {
                                    "comment": "Start Stop / Bang",
                                    "id": "obj-21",
                                    "index": 3,
                                    "maxclass": "outlet",
                                    "numinlets": 1,
                                    "numoutlets": 0,
                                    "patching_rect": [ 291.53848457336426, 388.0, 30.0, 30.0 ]
                                }
                            }
                        ],
                        "lines": [
                            {
                                "patchline": {
                                    "destination": [ "obj-14", 0 ],
                                    "source": [ "obj-13", 0 ]
                                }
                            },
                            {
                                "patchline": {
                                    "destination": [ "obj-16", 0 ],
                                    "source": [ "obj-14", 0 ]
                                }
                            },
                            {
                                "patchline": {
                                    "destination": [ "obj-19", 0 ],
                                    "source": [ "obj-14", 1 ]
                                }
                            },
                            {
                                "patchline": {
                                    "destination": [ "obj-8", 0 ],
                                    "source": [ "obj-16", 0 ]
                                }
                            },
                            {
                                "patchline": {
                                    "destination": [ "obj-18", 0 ],
                                    "source": [ "obj-17", 0 ]
                                }
                            },
                            {
                                "patchline": {
                                    "destination": [ "obj-27", 0 ],
                                    "source": [ "obj-19", 0 ]
                                }
                            },
                            {
                                "patchline": {
                                    "destination": [ "obj-16", 0 ],
                                    "midpoints": [ 494.5, 328.0, 59.5, 328.0 ],
                                    "source": [ "obj-20", 0 ]
                                }
                            },
                            {
                                "patchline": {
                                    "destination": [ "obj-17", 0 ],
                                    "disabled": 1,
                                    "midpoints": [ 494.5, 329.9230838418007, 494.37806034088135, 329.9230838418007 ],
                                    "source": [ "obj-20", 0 ]
                                }
                            },
                            {
                                "patchline": {
                                    "destination": [ "obj-15", 0 ],
                                    "source": [ "obj-22", 0 ]
                                }
                            },
                            {
                                "patchline": {
                                    "destination": [ "obj-20", 0 ],
                                    "source": [ "obj-23", 0 ]
                                }
                            },
                            {
                                "patchline": {
                                    "destination": [ "obj-23", 0 ],
                                    "midpoints": [ 494.5, 250.2564173936844, 494.5, 250.2564173936844 ],
                                    "source": [ "obj-24", 0 ]
                                }
                            },
                            {
                                "patchline": {
                                    "destination": [ "obj-20", 1 ],
                                    "midpoints": [ 536.5, 247.58975064754486, 565.6666598320007, 247.58975064754486, 565.6666598320007, 282.2564172744751, 538.5, 282.2564172744751 ],
                                    "order": 0,
                                    "source": [ "obj-26", 0 ]
                                }
                            },
                            {
                                "patchline": {
                                    "destination": [ "obj-23", 1 ],
                                    "midpoints": [ 536.5, 243.58975052833557, 536.5, 243.58975052833557 ],
                                    "order": 1,
                                    "source": [ "obj-26", 0 ]
                                }
                            },
                            {
                                "patchline": {
                                    "destination": [ "obj-22", 1 ],
                                    "order": 1,
                                    "source": [ "obj-27", 1 ]
                                }
                            },
                            {
                                "patchline": {
                                    "destination": [ "obj-22", 0 ],
                                    "source": [ "obj-27", 0 ]
                                }
                            },
                            {
                                "patchline": {
                                    "destination": [ "obj-29", 0 ],
                                    "order": 0,
                                    "source": [ "obj-27", 1 ]
                                }
                            },
                            {
                                "patchline": {
                                    "destination": [ "obj-92", 0 ],
                                    "order": 2,
                                    "source": [ "obj-27", 1 ]
                                }
                            },
                            {
                                "patchline": {
                                    "destination": [ "obj-37", 1 ],
                                    "order": 2,
                                    "source": [ "obj-29", 0 ]
                                }
                            },
                            {
                                "patchline": {
                                    "destination": [ "obj-5", 0 ],
                                    "order": 0,
                                    "source": [ "obj-29", 0 ]
                                }
                            },
                            {
                                "patchline": {
                                    "destination": [ "obj-9", 0 ],
                                    "order": 1,
                                    "source": [ "obj-29", 0 ]
                                }
                            },
                            {
                                "patchline": {
                                    "destination": [ "obj-35", 0 ],
                                    "order": 1,
                                    "source": [ "obj-3", 0 ]
                                }
                            },
                            {
                                "patchline": {
                                    "destination": [ "obj-4", 0 ],
                                    "order": 0,
                                    "source": [ "obj-3", 0 ]
                                }
                            },
                            {
                                "patchline": {
                                    "destination": [ "obj-26", 0 ],
                                    "source": [ "obj-34", 0 ]
                                }
                            },
                            {
                                "patchline": {
                                    "destination": [ "obj-34", 0 ],
                                    "source": [ "obj-35", 3 ]
                                }
                            },
                            {
                                "patchline": {
                                    "destination": [ "obj-34", 0 ],
                                    "source": [ "obj-35", 2 ]
                                }
                            },
                            {
                                "patchline": {
                                    "destination": [ "obj-34", 0 ],
                                    "source": [ "obj-35", 1 ]
                                }
                            },
                            {
                                "patchline": {
                                    "destination": [ "obj-34", 0 ],
                                    "source": [ "obj-35", 0 ]
                                }
                            },
                            {
                                "patchline": {
                                    "destination": [ "obj-24", 0 ],
                                    "source": [ "obj-36", 0 ]
                                }
                            },
                            {
                                "patchline": {
                                    "destination": [ "obj-34", 0 ],
                                    "source": [ "obj-4", 1 ]
                                }
                            },
                            {
                                "patchline": {
                                    "destination": [ "obj-34", 0 ],
                                    "source": [ "obj-4", 0 ]
                                }
                            },
                            {
                                "patchline": {
                                    "destination": [ "obj-36", 0 ],
                                    "source": [ "obj-5", 1 ]
                                }
                            },
                            {
                                "patchline": {
                                    "destination": [ "obj-36", 0 ],
                                    "source": [ "obj-5", 0 ]
                                }
                            },
                            {
                                "patchline": {
                                    "destination": [ "obj-13", 3 ],
                                    "source": [ "obj-7", 3 ]
                                }
                            },
                            {
                                "patchline": {
                                    "destination": [ "obj-13", 2 ],
                                    "source": [ "obj-7", 2 ]
                                }
                            },
                            {
                                "patchline": {
                                    "destination": [ "obj-13", 1 ],
                                    "source": [ "obj-7", 1 ]
                                }
                            },
                            {
                                "patchline": {
                                    "destination": [ "obj-13", 0 ],
                                    "source": [ "obj-7", 0 ]
                                }
                            },
                            {
                                "patchline": {
                                    "destination": [ "obj-36", 0 ],
                                    "source": [ "obj-9", 3 ]
                                }
                            },
                            {
                                "patchline": {
                                    "destination": [ "obj-36", 0 ],
                                    "source": [ "obj-9", 2 ]
                                }
                            },
                            {
                                "patchline": {
                                    "destination": [ "obj-36", 0 ],
                                    "source": [ "obj-9", 1 ]
                                }
                            },
                            {
                                "patchline": {
                                    "destination": [ "obj-36", 0 ],
                                    "source": [ "obj-9", 0 ]
                                }
                            },
                            {
                                "patchline": {
                                    "destination": [ "obj-21", 0 ],
                                    "source": [ "obj-91", 0 ]
                                }
                            },
                            {
                                "patchline": {
                                    "destination": [ "obj-6", 1 ],
                                    "order": 1,
                                    "source": [ "obj-92", 0 ]
                                }
                            },
                            {
                                "patchline": {
                                    "destination": [ "obj-93", 0 ],
                                    "order": 0,
                                    "source": [ "obj-92", 0 ]
                                }
                            },
                            {
                                "patchline": {
                                    "destination": [ "obj-91", 0 ],
                                    "source": [ "obj-93", 0 ]
                                }
                            }
                        ]
                    },
                    "patching_rect": [ 117.0, 39.0, 107.0, 22.0 ],
                    "text": "p KEY_HANDLER"
                }
            },
            {
                "box": {
                    "id": "obj-28",
                    "maxclass": "message",
                    "numinlets": 2,
                    "numoutlets": 1,
                    "outlettype": [ "" ],
                    "patching_rect": [ 676.0, -26.0, 67.0, 22.0 ],
                    "text": "select 0 $1"
                }
            }
        ],
        "lines": [
            {
                "patchline": {
                    "destination": [ "obj-4", 1 ],
                    "source": [ "obj-1", 0 ]
                }
            },
            {
                "patchline": {
                    "destination": [ "obj-4", 0 ],
                    "source": [ "obj-10", 0 ]
                }
            },
            {
                "patchline": {
                    "destination": [ "obj-12", 0 ],
                    "order": 1,
                    "source": [ "obj-13", 0 ]
                }
            },
            {
                "patchline": {
                    "destination": [ "obj-17", 0 ],
                    "order": 0,
                    "source": [ "obj-13", 0 ]
                }
            },
            {
                "patchline": {
                    "destination": [ "obj-2", 0 ],
                    "order": 1,
                    "source": [ "obj-13", 1 ]
                }
            },
            {
                "patchline": {
                    "destination": [ "obj-9", 0 ],
                    "order": 0,
                    "source": [ "obj-13", 1 ]
                }
            },
            {
                "patchline": {
                    "destination": [ "obj-13", 1 ],
                    "source": [ "obj-14", 0 ]
                }
            },
            {
                "patchline": {
                    "destination": [ "obj-13", 0 ],
                    "source": [ "obj-15", 0 ]
                }
            },
            {
                "patchline": {
                    "destination": [ "obj-1", 0 ],
                    "midpoints": [ 214.5, 120.0, 432.0, 120.0, 432.0, 90.0, 446.5, 90.0 ],
                    "order": 0,
                    "source": [ "obj-16", 0 ]
                }
            },
            {
                "patchline": {
                    "destination": [ "obj-4", 0 ],
                    "order": 1,
                    "source": [ "obj-16", 0 ]
                }
            },
            {
                "patchline": {
                    "destination": [ "obj-2", 1 ],
                    "source": [ "obj-17", 0 ]
                }
            },
            {
                "patchline": {
                    "destination": [ "obj-28", 0 ],
                    "order": 1,
                    "source": [ "obj-2", 0 ]
                }
            },
            {
                "patchline": {
                    "destination": [ "obj-3", 0 ],
                    "midpoints": [ 914.1154232025146, -1.0, 910.5, -1.0 ],
                    "order": 0,
                    "source": [ "obj-2", 0 ]
                }
            },
            {
                "patchline": {
                    "destination": [ "obj-13", 2 ],
                    "source": [ "obj-20", 0 ]
                }
            },
            {
                "patchline": {
                    "destination": [ "obj-16", 0 ],
                    "source": [ "obj-22", 2 ]
                }
            },
            {
                "patchline": {
                    "destination": [ "obj-4", 2 ],
                    "midpoints": [ 170.5, 69.0, 627.2570722897847, 69.0 ],
                    "source": [ "obj-22", 1 ]
                }
            },
            {
                "patchline": {
                    "destination": [ "obj-4", 0 ],
                    "source": [ "obj-22", 0 ]
                }
            },
            {
                "patchline": {
                    "destination": [ "obj-4", 0 ],
                    "source": [ "obj-25", 0 ]
                }
            },
            {
                "patchline": {
                    "destination": [ "obj-4", 1 ],
                    "midpoints": [ 921.0, 81.0, 423.0, 81.0, 423.0, 135.0, 420.87853614489234, 135.0 ],
                    "order": 1,
                    "source": [ "obj-3", 1 ]
                }
            },
            {
                "patchline": {
                    "destination": [ "obj-4", 0 ],
                    "midpoints": [ 910.5, 81.0, 423.0, 81.0, 423.0, 126.0, 214.5, 126.0 ],
                    "source": [ "obj-3", 0 ]
                }
            },
            {
                "patchline": {
                    "destination": [ "obj-6", 0 ],
                    "order": 0,
                    "source": [ "obj-3", 1 ]
                }
            },
            {
                "patchline": {
                    "destination": [ "obj-49", 0 ],
                    "order": 2,
                    "source": [ "obj-47", 0 ]
                }
            },
            {
                "patchline": {
                    "destination": [ "obj-50", 0 ],
                    "order": 1,
                    "source": [ "obj-47", 0 ]
                }
            },
            {
                "patchline": {
                    "destination": [ "obj-52", 0 ],
                    "order": 0,
                    "source": [ "obj-47", 0 ]
                }
            },
            {
                "patchline": {
                    "destination": [ "obj-15", 0 ],
                    "source": [ "obj-49", 0 ]
                }
            },
            {
                "patchline": {
                    "destination": [ "obj-14", 0 ],
                    "source": [ "obj-50", 0 ]
                }
            },
            {
                "patchline": {
                    "destination": [ "obj-20", 0 ],
                    "source": [ "obj-52", 0 ]
                }
            },
            {
                "patchline": {
                    "destination": [ "obj-8", 1 ],
                    "source": [ "obj-6", 0 ]
                }
            }
        ],
        "autosave": 0,
        "styles": [
            {
                "name": "rnbodefault",
                "default": {
                    "accentcolor": [ 0.343034118413925, 0.506230533123016, 0.86220508813858, 1.0 ],
                    "bgcolor": [ 0.031372549019608, 0.125490196078431, 0.211764705882353, 1.0 ],
                    "bgfillcolor": {
                        "angle": 270.0,
                        "autogradient": 0.0,
                        "color": [ 0.031372549019608, 0.125490196078431, 0.211764705882353, 1.0 ],
                        "color1": [ 0.031372549019608, 0.125490196078431, 0.211764705882353, 1.0 ],
                        "color2": [ 0.263682, 0.004541, 0.038797, 1.0 ],
                        "proportion": 0.39,
                        "type": "color"
                    },
                    "color": [ 0.929412, 0.929412, 0.352941, 1.0 ],
                    "elementcolor": [ 0.357540726661682, 0.515565991401672, 0.861786782741547, 1.0 ],
                    "fontname": [ "Lato" ],
                    "fontsize": [ 12.0 ],
                    "stripecolor": [ 0.258338063955307, 0.352425158023834, 0.511919498443604, 1.0 ],
                    "textcolor_inverse": [ 0.968627, 0.968627, 0.968627, 1 ]
                },
                "parentstyle": "",
                "multi": 0
            }
        ]
    }
}