{
    "patcher": {
        "fileversion": 1,
        "appversion": {
            "major": 9,
            "minor": 1,
            "revision": 1,
            "architecture": "x64",
            "modernui": 1
        },
        "classnamespace": "box",
        "rect": [ 35.0, 146.0, 1929.0, 1104.0 ],
        "boxes": [
            {
                "box": {
                    "id": "obj-89",
                    "maxclass": "newobj",
                    "numinlets": 2,
                    "numoutlets": 1,
                    "outlettype": [ "signal" ],
                    "patching_rect": [ 1326.973671555519, 361.84210181236267, 29.5, 22.0 ],
                    "text": "*~"
                }
            },
            {
                "box": {
                    "id": "obj-90",
                    "maxclass": "live.dial",
                    "numinlets": 1,
                    "numoutlets": 2,
                    "outlettype": [ "", "float" ],
                    "parameter_enable": 1,
                    "patching_rect": [ 1399.0, 312.0, 41.0, 48.0 ],
                    "saved_attribute_attributes": {
                        "valueof": {
                            "parameter_initial": [ 1.0 ],
                            "parameter_initial_enable": 1,
                            "parameter_longname": "live.dial[2]",
                            "parameter_mmax": 1.0,
                            "parameter_modmode": 3,
                            "parameter_shortname": "live.dial",
                            "parameter_type": 0,
                            "parameter_unitstyle": 1
                        }
                    },
                    "varname": "live.dial[2]"
                }
            },
            {
                "box": {
                    "format": 6,
                    "id": "obj-86",
                    "maxclass": "flonum",
                    "numinlets": 1,
                    "numoutlets": 2,
                    "outlettype": [ "", "bang" ],
                    "parameter_enable": 0,
                    "patching_rect": [ 1049.3420952558517, 134.21052503585815, 50.0, 22.0 ]
                }
            },
            {
                "box": {
                    "id": "obj-79",
                    "maxclass": "newobj",
                    "numinlets": 2,
                    "numoutlets": 1,
                    "outlettype": [ "float" ],
                    "patching_rect": [ 1071.999989748001, 214.28571224212646, 33.0, 22.0 ],
                    "text": "* 0.3"
                }
            },
            {
                "box": {
                    "id": "obj-78",
                    "maxclass": "newobj",
                    "numinlets": 2,
                    "numoutlets": 1,
                    "outlettype": [ "signal" ],
                    "patching_rect": [ 1074.999989748001, 257.14285469055176, 37.0, 22.0 ],
                    "text": "saw~"
                }
            },
            {
                "box": {
                    "buffername": "ch1",
                    "chanoffset": 18,
                    "id": "obj-77",
                    "maxclass": "waveform~",
                    "numinlets": 5,
                    "numoutlets": 6,
                    "outlettype": [ "float", "float", "float", "float", "list", "" ],
                    "patching_rect": [ 1016.6666569709778, 625.1176347732544, 256.0, 64.0 ]
                }
            },
            {
                "box": {
                    "buffername": "ch1",
                    "chanoffset": 17,
                    "id": "obj-70",
                    "maxclass": "waveform~",
                    "numinlets": 5,
                    "numoutlets": 6,
                    "outlettype": [ "float", "float", "float", "float", "list", "" ],
                    "patching_rect": [ 723.8095169067383, 623.8095178604126, 256.0, 64.0 ]
                }
            },
            {
                "box": {
                    "id": "obj-69",
                    "maxclass": "live.dial",
                    "numinlets": 1,
                    "numoutlets": 2,
                    "outlettype": [ "", "float" ],
                    "param_connect": "gen~_AF::wetdry_mix",
                    "parameter_enable": 1,
                    "patching_rect": [ 1855.1470234394073, 346.0, 41.0, 48.0 ],
                    "saved_attribute_attributes": {
                        "valueof": {
                            "parameter_initial": [ 0.0 ],
                            "parameter_initial_enable": 1,
                            "parameter_longname": "wetdry_mix",
                            "parameter_mmax": 1.0,
                            "parameter_modmode": 3,
                            "parameter_shortname": "wetdry_mix",
                            "parameter_type": 0,
                            "parameter_unitstyle": 1
                        }
                    },
                    "varname": "fd[1]"
                }
            },
            {
                "box": {
                    "id": "obj-68",
                    "maxclass": "live.dial",
                    "numinlets": 1,
                    "numoutlets": 2,
                    "outlettype": [ "", "float" ],
                    "param_connect": "gen~_AF::fd",
                    "parameter_enable": 1,
                    "patching_rect": [ 1808.0882008075714, 346.0, 41.0, 48.0 ],
                    "saved_attribute_attributes": {
                        "valueof": {
                            "parameter_initial": [ 0.67 ],
                            "parameter_initial_enable": 1,
                            "parameter_longname": "fd",
                            "parameter_mmax": 0.94,
                            "parameter_modmode": 3,
                            "parameter_shortname": "fd",
                            "parameter_type": 0,
                            "parameter_unitstyle": 1
                        }
                    },
                    "varname": "fd"
                }
            },
            {
                "box": {
                    "id": "obj-67",
                    "maxclass": "live.dial",
                    "numinlets": 1,
                    "numoutlets": 2,
                    "outlettype": [ "", "float" ],
                    "param_connect": "gen~_AF::distortion_mix",
                    "parameter_enable": 1,
                    "patching_rect": [ 1755.8823194503784, 346.0, 41.0, 48.0 ],
                    "saved_attribute_attributes": {
                        "valueof": {
                            "parameter_initial": [ 0.0 ],
                            "parameter_initial_enable": 1,
                            "parameter_longname": "distortion_mix",
                            "parameter_mmax": 1.0,
                            "parameter_modmode": 3,
                            "parameter_shortname": "distortion_mix",
                            "parameter_type": 0,
                            "parameter_unitstyle": 1
                        }
                    },
                    "varname": "distortion_mix"
                }
            },
            {
                "box": {
                    "id": "obj-65",
                    "maxclass": "live.dial",
                    "numinlets": 1,
                    "numoutlets": 2,
                    "outlettype": [ "", "float" ],
                    "param_connect": "gen~_AF::delay_time",
                    "parameter_enable": 1,
                    "patching_rect": [ 1706.1729757785797, 346.0, 41.0, 48.0 ],
                    "saved_attribute_attributes": {
                        "valueof": {
                            "parameter_initial": [ 1000.0 ],
                            "parameter_initial_enable": 1,
                            "parameter_longname": "delay_time",
                            "parameter_mmax": 1000.0,
                            "parameter_mmin": 12.0,
                            "parameter_modmode": 3,
                            "parameter_shortname": "delay_time",
                            "parameter_type": 0,
                            "parameter_unitstyle": 1
                        }
                    },
                    "varname": "delay_time"
                }
            },
            {
                "box": {
                    "code": "Delay del(samplerate);\r\nParam fd(0.67, min=0, max=0.94);\r\nParam delay_time(1000, min=12, max=1000);\r\nParam distortion_mix(0, min=0.0, max=1.0);\r\nParam wetdry_mix(0.0, min=0.0, max=1.0);\r\ndelay_sig = del.read(mstosamps(samplerate));\r\nfeedback = delay_sig * fd;\r\n\r\npre_out = mix(delay_sig, tanh(delay_sig), distortion_mix);\r\n// out1 = delay_sig;\r\nout1 = mix(in1, pre_out, wetdry_mix);\r\n \r\ndel.write(in1 + feedback);",
                    "fontface": 0,
                    "fontname": "<Monospaced>",
                    "fontsize": 12.0,
                    "id": "obj-63",
                    "maxclass": "gen.codebox~",
                    "numinlets": 1,
                    "numoutlets": 1,
                    "outlettype": [ "signal" ],
                    "patching_rect": [ 1554.0, 410.2941098213196, 436.60132098197937, 203.2810384631157 ],
                    "varname": "gen~_AF"
                }
            },
            {
                "box": {
                    "id": "obj-62",
                    "maxclass": "newobj",
                    "numinlets": 2,
                    "numoutlets": 1,
                    "outlettype": [ "float" ],
                    "patching_rect": [ 1507.0, 203.0, 64.0, 22.0 ],
                    "text": "snapshot~"
                }
            },
            {
                "box": {
                    "id": "obj-55",
                    "maxclass": "newobj",
                    "numinlets": 2,
                    "numoutlets": 1,
                    "outlettype": [ "signal" ],
                    "patching_rect": [ 1551.973669409752, 373.0263122320175, 29.5, 22.0 ],
                    "text": "*~"
                }
            },
            {
                "box": {
                    "id": "obj-56",
                    "maxclass": "live.dial",
                    "numinlets": 1,
                    "numoutlets": 2,
                    "outlettype": [ "", "float" ],
                    "parameter_enable": 1,
                    "patching_rect": [ 1624.9999845027924, 319.0789443254471, 41.0, 48.0 ],
                    "saved_attribute_attributes": {
                        "valueof": {
                            "parameter_initial": [ 1.0 ],
                            "parameter_initial_enable": 1,
                            "parameter_longname": "live.dial[3]",
                            "parameter_mmax": 1.0,
                            "parameter_modmode": 3,
                            "parameter_shortname": "live.dial",
                            "parameter_type": 0,
                            "parameter_unitstyle": 1
                        }
                    },
                    "varname": "live.dial[3]"
                }
            },
            {
                "box": {
                    "id": "obj-57",
                    "maxclass": "ezdac~",
                    "numinlets": 2,
                    "numoutlets": 0,
                    "patching_rect": [ 1546.323499917984, 644.1176347732544, 45.0, 45.0 ]
                }
            },
            {
                "box": {
                    "id": "obj-51",
                    "maxclass": "newobj",
                    "numinlets": 2,
                    "numoutlets": 1,
                    "outlettype": [ "signal" ],
                    "patching_rect": [ 1554.0, 329.0, 29.5, 22.0 ],
                    "text": "*~"
                }
            },
            {
                "box": {
                    "id": "obj-41",
                    "maxclass": "newobj",
                    "numinlets": 2,
                    "numoutlets": 2,
                    "outlettype": [ "signal", "bang" ],
                    "patching_rect": [ 1580.0, 274.0, 34.0, 22.0 ],
                    "text": "line~"
                }
            },
            {
                "box": {
                    "id": "obj-42",
                    "maxclass": "message",
                    "numinlets": 2,
                    "numoutlets": 1,
                    "outlettype": [ "" ],
                    "patching_rect": [ 1580.0, 242.0, 79.0, 22.0 ],
                    "text": "0, 1 0.2 0. $1"
                }
            },
            {
                "box": {
                    "id": "obj-39",
                    "maxclass": "newobj",
                    "numinlets": 1,
                    "numoutlets": 1,
                    "outlettype": [ "signal" ],
                    "patching_rect": [ 1518.0, 274.0, 44.0, 22.0 ],
                    "text": "noise~"
                }
            },
            {
                "box": {
                    "id": "obj-32",
                    "maxclass": "newobj",
                    "numinlets": 1,
                    "numoutlets": 2,
                    "outlettype": [ "bang", "bang" ],
                    "patching_rect": [ 1580.0, 174.0, 42.0, 22.0 ],
                    "text": "edge~"
                }
            },
            {
                "box": {
                    "code": "// general buffer to action converter\r\nBuffer ch1();\r\n// Param pindex(0, min=0, max=1024);\r\npindex = in1;\r\n\r\ntwo_hex = peek(ch1, pindex, 17, 0, channels=1);\r\nif (two_hex == -1.0){\r\n    out1 = 0.0;\r\n} else { \r\n    out1 = round(two_hex * 255);\r\n};",
                    "fontface": 0,
                    "fontname": "<Monospaced>",
                    "fontsize": 12.0,
                    "id": "obj-1",
                    "maxclass": "gen.codebox~",
                    "numinlets": 1,
                    "numoutlets": 1,
                    "outlettype": [ "signal" ],
                    "patching_rect": [ 1503.0, -36.0, 300.0, 187.0 ],
                    "varname": "gen~_AE"
                }
            },
            {
                "box": {
                    "id": "obj-58",
                    "maxclass": "live.dial",
                    "numinlets": 1,
                    "numoutlets": 2,
                    "outlettype": [ "", "float" ],
                    "param_connect": "gen~_AD::transpose2",
                    "parameter_enable": 1,
                    "patching_rect": [ 406.1728719472885, 682.7161039113998, 41.0, 48.0 ],
                    "saved_attribute_attributes": {
                        "valueof": {
                            "parameter_initial": [ 0.0 ],
                            "parameter_initial_enable": 1,
                            "parameter_longname": "transpose2",
                            "parameter_mmax": 24.0,
                            "parameter_mmin": -24.0,
                            "parameter_modmode": 3,
                            "parameter_shortname": "transpose2",
                            "parameter_type": 0,
                            "parameter_unitstyle": 1
                        }
                    },
                    "varname": "transpose2"
                }
            },
            {
                "box": {
                    "activedialcolor": [ 1.0, 0.19607843137254902, 0.27058823529411763, 1.0 ],
                    "id": "obj-26",
                    "maxclass": "live.dial",
                    "numinlets": 1,
                    "numoutlets": 2,
                    "outlettype": [ "", "float" ],
                    "param_connect": "gen~_AD::position",
                    "parameter_enable": 1,
                    "patching_rect": [ 278.0, 676.0, 41.0, 48.0 ],
                    "saved_attribute_attributes": {
                        "activedialcolor": {
                            "expression": ""
                        },
                        "valueof": {
                            "parameter_initial": [ 0.0 ],
                            "parameter_initial_enable": 1,
                            "parameter_longname": "position",
                            "parameter_mmax": 1.0,
                            "parameter_modmode": 3,
                            "parameter_shortname": "position",
                            "parameter_type": 0,
                            "parameter_unitstyle": 1
                        }
                    },
                    "varname": "size[1]"
                }
            },
            {
                "box": {
                    "id": "obj-23",
                    "maxclass": "live.scope~",
                    "numinlets": 2,
                    "numoutlets": 1,
                    "outlettype": [ "bang" ],
                    "patching_rect": [ 206.0, 1216.0, 184.0, 68.0 ]
                }
            },
            {
                "box": {
                    "buffername": "window",
                    "id": "obj-21",
                    "maxclass": "waveform~",
                    "numinlets": 5,
                    "numoutlets": 6,
                    "outlettype": [ "float", "float", "float", "float", "list", "" ],
                    "patching_rect": [ 360.0, 1085.0, 256.0, 64.0 ]
                }
            },
            {
                "box": {
                    "id": "obj-19",
                    "maxclass": "message",
                    "numinlets": 2,
                    "numoutlets": 1,
                    "outlettype": [ "" ],
                    "patching_rect": [ 360.0, 1004.0, 111.0, 22.0 ],
                    "text": "fill 1, apply hanning"
                }
            },
            {
                "box": {
                    "id": "obj-11",
                    "maxclass": "newobj",
                    "numinlets": 1,
                    "numoutlets": 2,
                    "outlettype": [ "float", "bang" ],
                    "patching_rect": [ 360.0, 1045.0, 172.0, 22.0 ],
                    "text": "buffer~ wwindow @samps 128"
                }
            },
            {
                "box": {
                    "id": "obj-8",
                    "maxclass": "live.dial",
                    "numinlets": 1,
                    "numoutlets": 2,
                    "outlettype": [ "", "float" ],
                    "param_connect": "gen~_AD::size",
                    "parameter_enable": 1,
                    "patching_rect": [ 217.0, 676.0, 41.0, 48.0 ],
                    "saved_attribute_attributes": {
                        "valueof": {
                            "parameter_initial": [ 100.0 ],
                            "parameter_initial_enable": 1,
                            "parameter_longname": "size",
                            "parameter_mmax": 1000.0,
                            "parameter_mmin": 100.0,
                            "parameter_modmode": 3,
                            "parameter_shortname": "size",
                            "parameter_type": 0,
                            "parameter_unitstyle": 1
                        }
                    },
                    "varname": "size"
                }
            },
            {
                "box": {
                    "id": "obj-45",
                    "maxclass": "newobj",
                    "numinlets": 2,
                    "numoutlets": 1,
                    "outlettype": [ "signal" ],
                    "patching_rect": [ 237.0, 1076.0, 29.5, 22.0 ],
                    "text": "*~"
                }
            },
            {
                "box": {
                    "id": "obj-46",
                    "maxclass": "live.dial",
                    "numinlets": 1,
                    "numoutlets": 2,
                    "outlettype": [ "", "float" ],
                    "parameter_enable": 1,
                    "patching_rect": [ 259.0, 1007.0, 41.0, 48.0 ],
                    "saved_attribute_attributes": {
                        "valueof": {
                            "parameter_initial": [ 1.0 ],
                            "parameter_initial_enable": 1,
                            "parameter_longname": "live.dial[1]",
                            "parameter_mmax": 1.0,
                            "parameter_modmode": 3,
                            "parameter_shortname": "live.dial",
                            "parameter_type": 0,
                            "parameter_unitstyle": 1
                        }
                    },
                    "varname": "live.dial[1]"
                }
            },
            {
                "box": {
                    "id": "obj-48",
                    "maxclass": "ezdac~",
                    "numinlets": 2,
                    "numoutlets": 0,
                    "patching_rect": [ 237.0, 1147.0, 45.0, 45.0 ]
                }
            },
            {
                "box": {
                    "id": "obj-44",
                    "maxclass": "newobj",
                    "numinlets": 2,
                    "numoutlets": 1,
                    "outlettype": [ "signal" ],
                    "patching_rect": [ 861.0, 312.0, 29.5, 22.0 ],
                    "text": "*~"
                }
            },
            {
                "box": {
                    "id": "obj-43",
                    "maxclass": "live.dial",
                    "numinlets": 1,
                    "numoutlets": 2,
                    "outlettype": [ "", "float" ],
                    "parameter_enable": 1,
                    "patching_rect": [ 881.5, 240.0, 41.0, 48.0 ],
                    "saved_attribute_attributes": {
                        "valueof": {
                            "parameter_initial": [ 1.0 ],
                            "parameter_initial_enable": 1,
                            "parameter_longname": "live.dial",
                            "parameter_mmax": 1.0,
                            "parameter_modmode": 3,
                            "parameter_shortname": "live.dial",
                            "parameter_type": 0,
                            "parameter_unitstyle": 1
                        }
                    },
                    "varname": "live.dial"
                }
            },
            {
                "box": {
                    "code": "Buffer buf1();\r\nBuffer wwindow();\r\nParam size(100, min=100, max=1000);\r\nParam position(0, min=0, max=1);\r\nParam transpose2(0, min=-24, max=24);\r\ntp = pow(2, transpose2 / 12);\r\n\r\ndim = dim(buf1);\r\npos = dim * position;\r\ns = mstosamps(size);\r\nc, reset, d = counter(tp, 0, s);\r\npos = latch(pos, reset); // get pos when snd reset\r\nphase = c / s;\r\nwin = wave(wwindow, phase);\r\nplayback = peek(buf1, c + pos);\r\n\r\nout1 = playback * win;",
                    "fontface": 0,
                    "fontname": "<Monospaced>",
                    "fontsize": 12.0,
                    "id": "obj-40",
                    "maxclass": "gen.codebox~",
                    "numinlets": 1,
                    "numoutlets": 1,
                    "outlettype": [ "signal" ],
                    "patching_rect": [ 206.0, 753.0, 433.0, 234.0 ],
                    "varname": "gen~_AD"
                }
            },
            {
                "box": {
                    "buffername": "buf1",
                    "id": "obj-33",
                    "maxclass": "waveform~",
                    "numinlets": 5,
                    "numoutlets": 6,
                    "outlettype": [ "float", "float", "float", "float", "list", "" ],
                    "patching_rect": [ 671.0, 724.0, 256.0, 64.0 ]
                }
            },
            {
                "box": {
                    "id": "obj-29",
                    "maxclass": "newobj",
                    "numinlets": 1,
                    "numoutlets": 2,
                    "outlettype": [ "float", "bang" ],
                    "patching_rect": [ 671.0, 808.0, 123.0, 22.0 ],
                    "text": "buffer~ buf1 stab.wav"
                }
            },
            {
                "box": {
                    "id": "obj-28",
                    "maxclass": "comment",
                    "numinlets": 1,
                    "numoutlets": 0,
                    "patching_rect": [ 1175.5, -35.0, 233.0, 20.0 ],
                    "text": "Notes: all midinotes, note off and note end"
                }
            },
            {
                "box": {
                    "id": "obj-27",
                    "maxclass": "comment",
                    "numinlets": 1,
                    "numoutlets": 0,
                    "patching_rect": [ 843.0, -25.0, 213.0, 20.0 ],
                    "text": "triggers: 1 or nothing, usefull for bangs"
                }
            },
            {
                "box": {
                    "id": "obj-25",
                    "maxclass": "newobj",
                    "numinlets": 1,
                    "numoutlets": 2,
                    "outlettype": [ "bang", "bang" ],
                    "patching_rect": [ 861.0, 157.0, 42.0, 22.0 ],
                    "text": "edge~"
                }
            },
            {
                "box": {
                    "id": "obj-24",
                    "maxclass": "newobj",
                    "numinlets": 2,
                    "numoutlets": 1,
                    "outlettype": [ "signal" ],
                    "patching_rect": [ 861.0, 122.0, 43.0, 22.0 ],
                    "text": "==~ 1."
                }
            },
            {
                "box": {
                    "code": "Buffer ch1();\r\n// Param pindex(0, min=0, max=1024);\r\n\r\npindex = in1;\r\nnote = peek(ch1, pindex, 16, 0, channels=1);\r\nout1 = 0.0;\r\nif (note == 1.0){\r\n    out1 = 1.0;\r\n} else { \r\n    out1 = 0.0;\r\n};",
                    "fontface": 0,
                    "fontname": "<Monospaced>",
                    "fontsize": 12.0,
                    "id": "obj-6",
                    "maxclass": "gen.codebox~",
                    "numinlets": 1,
                    "numoutlets": 1,
                    "outlettype": [ "signal" ],
                    "patching_rect": [ 828.0, -9.0, 329.0, 110.0 ],
                    "varname": "gen~_AC"
                }
            },
            {
                "box": {
                    "id": "obj-93",
                    "maxclass": "newobj",
                    "numinlets": 4,
                    "numoutlets": 2,
                    "outlettype": [ "signal", "signal" ],
                    "patching_rect": [ 1213.8157778978348, 390.7894699573517, 107.0, 22.0 ],
                    "text": "abl.device.reverb~",
                    "varname": "abl.device.reverb~_AA"
                }
            },
            {
                "box": {
                    "id": "obj-88",
                    "maxclass": "newobj",
                    "numinlets": 2,
                    "numoutlets": 1,
                    "outlettype": [ "float" ],
                    "patching_rect": [ 1180.0, 195.0, 64.0, 22.0 ],
                    "text": "snapshot~"
                }
            },
            {
                "box": {
                    "id": "obj-87",
                    "maxclass": "newobj",
                    "numinlets": 1,
                    "numoutlets": 2,
                    "outlettype": [ "bang", "bang" ],
                    "patching_rect": [ 1225.0, 149.0, 42.0, 22.0 ],
                    "text": "edge~"
                }
            },
            {
                "box": {
                    "fontface": 0,
                    "fontname": "Arial",
                    "fontsize": 12.0,
                    "id": "obj-85",
                    "maxclass": "number~",
                    "mode": 2,
                    "numinlets": 2,
                    "numoutlets": 2,
                    "outlettype": [ "signal", "float" ],
                    "patching_rect": [ 1284.0, 149.0, 56.0, 22.0 ],
                    "sig": 0.0
                }
            },
            {
                "box": {
                    "id": "obj-84",
                    "maxclass": "newobj",
                    "numinlets": 2,
                    "numoutlets": 1,
                    "outlettype": [ "signal" ],
                    "patching_rect": [ 1225.0, 113.0, 36.0, 22.0 ],
                    "text": ">~ 0."
                }
            },
            {
                "box": {
                    "fontface": 0,
                    "fontname": "Arial",
                    "fontsize": 12.0,
                    "id": "obj-66",
                    "maxclass": "number~",
                    "mode": 2,
                    "numinlets": 2,
                    "numoutlets": 2,
                    "outlettype": [ "signal", "float" ],
                    "patching_rect": [ 1281.0, 113.0, 56.0, 22.0 ],
                    "sig": 0.0
                }
            },
            {
                "box": {
                    "code": "Buffer ch1();\r\n// Param pindex(0, min=0, max=1024);\r\n\r\npindex = in1;\r\nnote = peek(ch1, pindex, 0, 0, channels=1);\r\nif (note >= 0.0){\r\n    out1 = mtof(round(note * 127.0));\r\n} else { \r\n    out1 = 0.0;\r\n};",
                    "fontface": 0,
                    "fontname": "<Monospaced>",
                    "fontsize": 12.0,
                    "id": "obj-53",
                    "maxclass": "gen.codebox~",
                    "numinlets": 1,
                    "numoutlets": 1,
                    "outlettype": [ "signal" ],
                    "patching_rect": [ 1180.0, 16.0, 238.0, 83.0 ],
                    "varname": "gen~_AB"
                }
            },
            {
                "box": {
                    "id": "obj-82",
                    "maxclass": "ezdac~",
                    "numinlets": 2,
                    "numoutlets": 0,
                    "patching_rect": [ 1213.8157778978348, 503.2894688844681, 45.0, 45.0 ]
                }
            },
            {
                "box": {
                    "id": "obj-75",
                    "maxclass": "newobj",
                    "numinlets": 2,
                    "numoutlets": 1,
                    "outlettype": [ "signal" ],
                    "patching_rect": [ 1180.0, 275.0, 29.5, 22.0 ],
                    "text": "*~"
                }
            },
            {
                "box": {
                    "id": "obj-74",
                    "maxclass": "newobj",
                    "numinlets": 2,
                    "numoutlets": 2,
                    "outlettype": [ "signal", "bang" ],
                    "patching_rect": [ 1275.0, 224.0, 34.0, 22.0 ],
                    "text": "line~"
                }
            },
            {
                "box": {
                    "id": "obj-73",
                    "maxclass": "newobj",
                    "numinlets": 2,
                    "numoutlets": 1,
                    "outlettype": [ "signal" ],
                    "patching_rect": [ 1180.0, 232.0, 37.0, 22.0 ],
                    "text": "saw~"
                }
            },
            {
                "box": {
                    "id": "obj-54",
                    "maxclass": "ezdac~",
                    "numinlets": 2,
                    "numoutlets": 0,
                    "patching_rect": [ 861.0, 383.0, 45.0, 45.0 ]
                }
            },
            {
                "box": {
                    "id": "obj-18",
                    "maxclass": "newobj",
                    "numinlets": 1,
                    "numoutlets": 1,
                    "outlettype": [ "signal" ],
                    "patching_rect": [ 861.0, 202.0, 55.0, 22.0 ],
                    "text": "FineKick"
                }
            },
            {
                "box": {
                    "id": "obj-52",
                    "maxclass": "message",
                    "numinlets": 2,
                    "numoutlets": 1,
                    "outlettype": [ "" ],
                    "patching_rect": [ 676.0481969118118, -381.9277249574661, 29.5, 22.0 ],
                    "text": "32"
                }
            },
            {
                "box": {
                    "id": "obj-50",
                    "maxclass": "message",
                    "numinlets": 2,
                    "numoutlets": 1,
                    "outlettype": [ "" ],
                    "patching_rect": [ 620.6265081167221, -381.9277249574661, 32.0, 22.0 ],
                    "text": "0.55"
                }
            },
            {
                "box": {
                    "id": "obj-49",
                    "maxclass": "message",
                    "numinlets": 2,
                    "numoutlets": 1,
                    "outlettype": [ "" ],
                    "patching_rect": [ 564.0, -374.0, 39.0, 22.0 ],
                    "text": "3.905"
                }
            },
            {
                "box": {
                    "id": "obj-47",
                    "maxclass": "newobj",
                    "numinlets": 1,
                    "numoutlets": 1,
                    "outlettype": [ "bang" ],
                    "patching_rect": [ 564.0, -426.5060398578644, 58.0, 22.0 ],
                    "text": "loadbang"
                }
            },
            {
                "box": {
                    "bgcolor": [ 0.2784313725490196, 0.23921568627450981, 0.23921568627450981, 1.0 ],
                    "fontface": 0,
                    "fontsize": 12.0,
                    "id": "obj-5",
                    "maxclass": "newobj",
                    "numinlets": 1,
                    "numoutlets": 2,
                    "outlettype": [ "float", "bang" ],
                    "patching_rect": [ 449.0, 79.0, 69.0, 22.0 ],
                    "style": "redness",
                    "text": "buffer~ ch1"
                }
            },
            {
                "box": {
                    "fontname": "Consolas Bold",
                    "id": "obj-38",
                    "linecount": 10,
                    "maxclass": "comment",
                    "numinlets": 1,
                    "numoutlets": 0,
                    "patching_rect": [ 205.0, -156.0, 326.0, 147.0 ],
                    "text": "- spacebar         : enter/exit edit mode\n- arrow keys       : navigate cursor\n- ctrl + arrows    : faster navigation\n- ctrl + x         : cuts\n- ctrl + c         : copy\n- ctrl + v         : paste\n- shift + arrows   : set the selection rectangle\n- shift + i        : interpolate selection\n- alt + plus/minus : (not numkeys) transposes\n- alt + up/down    : shifts content of selection"
                }
            },
            {
                "box": {
                    "id": "obj-17",
                    "maxclass": "newobj",
                    "numinlets": 1,
                    "numoutlets": 2,
                    "outlettype": [ "bang", "bang" ],
                    "patching_rect": [ 817.0, -121.0, 42.0, 22.0 ],
                    "text": "edge~"
                }
            },
            {
                "box": {
                    "id": "obj-10",
                    "maxclass": "message",
                    "numinlets": 2,
                    "numoutlets": 1,
                    "outlettype": [ "" ],
                    "patching_rect": [ 305.0, 79.0, 135.0, 22.0 ],
                    "text": "command buffermode:1"
                }
            },
            {
                "box": {
                    "id": "obj-3",
                    "maxclass": "newobj",
                    "numinlets": 1,
                    "numoutlets": 2,
                    "outlettype": [ "bang", "int" ],
                    "patching_rect": [ 751.5577116012573, 24.242422103881836, 29.5, 22.0 ],
                    "text": "t b i"
                }
            },
            {
                "box": {
                    "id": "obj-2",
                    "maxclass": "newobj",
                    "numinlets": 2,
                    "numoutlets": 1,
                    "outlettype": [ "float" ],
                    "patching_rect": [ 762.0, -66.0, 64.0, 22.0 ],
                    "text": "snapshot~"
                }
            },
            {
                "box": {
                    "id": "obj-20",
                    "maxclass": "number",
                    "numinlets": 1,
                    "numoutlets": 2,
                    "outlettype": [ "", "bang" ],
                    "parameter_enable": 0,
                    "patching_rect": [ 950.0, -332.0, 50.0, 22.0 ]
                }
            },
            {
                "box": {
                    "fontface": 0,
                    "fontname": "Arial",
                    "fontsize": 12.0,
                    "id": "obj-9",
                    "maxclass": "number~",
                    "mode": 2,
                    "numinlets": 2,
                    "numoutlets": 2,
                    "outlettype": [ "signal", "float" ],
                    "patching_rect": [ 1004.0, -80.0, 56.0, 22.0 ],
                    "sig": 0.0
                }
            },
            {
                "box": {
                    "id": "obj-12",
                    "maxclass": "live.scope~",
                    "numinlets": 2,
                    "numoutlets": 1,
                    "outlettype": [ "bang" ],
                    "patching_rect": [ 564.0, -103.0, 184.0, 68.0 ]
                }
            },
            {
                "box": {
                    "code": "subdiv(signal, amt){\r\n    // amt must be between 0.5 and 1.0\r\n    // signal is a phasor signal.\r\n    phasor_path3 = 0;\r\n\r\n    if (signal > amt){\r\n        phasor_path3 = (signal - amt) / (1 - amt);\r\n    }\r\n    else {\r\n        phasor_path3 = signal / amt;\r\n    }\r\n    return phasor_path3;\r\n\r\n}\r\n\r\nHistory step_count(0);\r\n\r\nrate = in1;\r\nswing = in2;\r\npattern_length = in3;\r\n\r\n\r\nphasor_path = phasor(rate);\r\nphasor_path3 = subdiv(phasor_path, swing);\r\nphasor_path4 = subdiv(phasor_path3, 0.5);\r\n\r\n// Detect wrap (delta will be negative when phasor wraps)\ndelta_sig = delta(phasor_path4);\ntrigger = delta_sig < 0;\n\n\nstep_count = (step_count + trigger) % pattern_length;\n\n// Output\nout1 = trigger;  // bang/trigger out\nout2 = step_count; // step number to use for cellblock reading",
                    "fontface": 0,
                    "fontname": "<Monospaced>",
                    "fontsize": 12.0,
                    "id": "obj-13",
                    "maxclass": "gen.codebox~",
                    "numinlets": 3,
                    "numoutlets": 2,
                    "outlettype": [ "signal", "signal" ],
                    "patching_rect": [ 564.0, -258.0, 404.61542320251465, 126.15385818481445 ],
                    "varname": "gen~_AA"
                }
            },
            {
                "box": {
                    "format": 6,
                    "id": "obj-14",
                    "maxclass": "flonum",
                    "maximum": 1.0,
                    "minimum": 0.5,
                    "numinlets": 1,
                    "numoutlets": 2,
                    "outlettype": [ "", "bang" ],
                    "parameter_enable": 0,
                    "patching_rect": [ 651.0, -335.0, 50.0, 22.0 ]
                }
            },
            {
                "box": {
                    "format": 6,
                    "id": "obj-15",
                    "maxclass": "flonum",
                    "numinlets": 1,
                    "numoutlets": 2,
                    "outlettype": [ "", "bang" ],
                    "parameter_enable": 0,
                    "patching_rect": [ 564.0, -322.0, 50.0, 22.0 ]
                }
            },
            {
                "box": {
                    "border": 0,
                    "filename": "haze_tracker.js",
                    "id": "obj-4",
                    "maxclass": "v8ui",
                    "numinlets": 4,
                    "numoutlets": 3,
                    "outlettype": [ "", "", "" ],
                    "parameter_enable": 0,
                    "patching_rect": [ 205.952378988266, 140.47618913650513, 638.1356084346771, 436.4406883716583 ],
                    "textfile": {
                        "filename": "haze_tracker.js",
                        "flags": 0,
                        "embed": 0,
                        "autowatch": 1
                    },
                    "varname": "v8ui_AA"
                }
            },
            {
                "box": {
                    "id": "obj-22",
                    "maxclass": "newobj",
                    "numinlets": 0,
                    "numoutlets": 3,
                    "outlettype": [ "", "", "bang" ],
                    "patcher": {
                        "fileversion": 1,
                        "appversion": {
                            "major": 9,
                            "minor": 1,
                            "revision": 1,
                            "architecture": "x64",
                            "modernui": 1
                        },
                        "classnamespace": "box",
                        "rect": [ -1335.0, 131.0, 919.0, 649.0 ],
                        "boxes": [
                            {
                                "box": {
                                    "id": "obj-5",
                                    "maxclass": "newobj",
                                    "numinlets": 3,
                                    "numoutlets": 3,
                                    "outlettype": [ "bang", "bang", "" ],
                                    "patching_rect": [ 570.0, 117.0, 57.0, 22.0 ],
                                    "text": "sel 95 43"
                                }
                            },
                            {
                                "box": {
                                    "id": "obj-4",
                                    "maxclass": "newobj",
                                    "numinlets": 3,
                                    "numoutlets": 3,
                                    "outlettype": [ "bang", "bang", "" ],
                                    "patching_rect": [ 749.0, 115.0, 57.0, 22.0 ],
                                    "text": "sel 95 43"
                                }
                            },
                            {
                                "box": {
                                    "id": "obj-2",
                                    "maxclass": "comment",
                                    "numinlets": 1,
                                    "numoutlets": 0,
                                    "patching_rect": [ 471.0, 63.0, 150.0, 20.0 ],
                                    "text": "95, 43 are plus and minus"
                                }
                            },
                            {
                                "box": {
                                    "id": "obj-18",
                                    "maxclass": "live.scope~",
                                    "numinlets": 2,
                                    "numoutlets": 1,
                                    "outlettype": [ "bang" ],
                                    "patching_rect": [ 485.0, 387.6666662096977, 184.6666721701622, 30.666667580604553 ]
                                }
                            },
                            {
                                "box": {
                                    "id": "obj-17",
                                    "maxclass": "newobj",
                                    "numinlets": 1,
                                    "numoutlets": 1,
                                    "outlettype": [ "signal" ],
                                    "patching_rect": [ 484.87806034088135, 360.00000858306885, 39.0, 22.0 ],
                                    "text": "click~"
                                }
                            },
                            {
                                "box": {
                                    "id": "obj-20",
                                    "maxclass": "newobj",
                                    "numinlets": 2,
                                    "numoutlets": 1,
                                    "outlettype": [ "bang" ],
                                    "patching_rect": [ 485.0, 293.92308807373047, 63.0, 22.0 ],
                                    "text": "metro 105"
                                }
                            },
                            {
                                "box": {
                                    "id": "obj-23",
                                    "maxclass": "newobj",
                                    "numinlets": 2,
                                    "numoutlets": 1,
                                    "outlettype": [ "bang" ],
                                    "patching_rect": [ 485.0, 258.92308807373047, 61.0, 22.0 ],
                                    "text": "delay 200"
                                }
                            },
                            {
                                "box": {
                                    "id": "obj-24",
                                    "maxclass": "message",
                                    "numinlets": 2,
                                    "numoutlets": 1,
                                    "outlettype": [ "" ],
                                    "patching_rect": [ 485.0, 216.92308807373047, 37.0, 22.0 ],
                                    "text": "bang"
                                }
                            },
                            {
                                "box": {
                                    "id": "obj-26",
                                    "maxclass": "message",
                                    "numinlets": 2,
                                    "numoutlets": 1,
                                    "outlettype": [ "" ],
                                    "patching_rect": [ 527.0, 216.92308807373047, 31.0, 22.0 ],
                                    "text": "stop"
                                }
                            },
                            {
                                "box": {
                                    "id": "obj-37",
                                    "maxclass": "message",
                                    "numinlets": 2,
                                    "numoutlets": 1,
                                    "outlettype": [ "" ],
                                    "patching_rect": [ 336.0, 334.92308807373047, 50.0, 22.0 ],
                                    "text": "127"
                                }
                            },
                            {
                                "box": {
                                    "id": "obj-29",
                                    "maxclass": "newobj",
                                    "numinlets": 2,
                                    "numoutlets": 2,
                                    "outlettype": [ "", "" ],
                                    "patching_rect": [ 367.0, 187.69231605529785, 77.0, 22.0 ],
                                    "text": "array.index 1"
                                }
                            },
                            {
                                "box": {
                                    "id": "obj-34",
                                    "maxclass": "newobj",
                                    "numinlets": 1,
                                    "numoutlets": 1,
                                    "outlettype": [ "bang" ],
                                    "patching_rect": [ 664.0, 172.0, 22.0, 22.0 ],
                                    "text": "t b"
                                }
                            },
                            {
                                "box": {
                                    "id": "obj-35",
                                    "maxclass": "newobj",
                                    "numinlets": 5,
                                    "numoutlets": 5,
                                    "outlettype": [ "bang", "bang", "bang", "bang", "" ],
                                    "patching_rect": [ 646.0, 115.0, 91.0, 22.0 ],
                                    "text": "sel 28 29 30 31"
                                }
                            },
                            {
                                "box": {
                                    "id": "obj-36",
                                    "maxclass": "newobj",
                                    "numinlets": 1,
                                    "numoutlets": 2,
                                    "outlettype": [ "bang", "bang" ],
                                    "patching_rect": [ 485.0, 172.0, 32.0, 22.0 ],
                                    "text": "t b b"
                                }
                            },
                            {
                                "box": {
                                    "id": "obj-9",
                                    "maxclass": "newobj",
                                    "numinlets": 5,
                                    "numoutlets": 5,
                                    "outlettype": [ "bang", "bang", "bang", "bang", "" ],
                                    "patching_rect": [ 467.0, 117.0, 91.0, 22.0 ],
                                    "text": "sel 28 29 30 31"
                                }
                            },
                            {
                                "box": {
                                    "id": "obj-3",
                                    "maxclass": "newobj",
                                    "numinlets": 0,
                                    "numoutlets": 4,
                                    "outlettype": [ "int", "int", "int", "int" ],
                                    "patching_rect": [ 675.0, 62.0, 50.5, 22.0 ],
                                    "text": "keyup"
                                }
                            },
                            {
                                "box": {
                                    "id": "obj-91",
                                    "maxclass": "newobj",
                                    "numinlets": 2,
                                    "numoutlets": 2,
                                    "outlettype": [ "bang", "" ],
                                    "patching_rect": [ 291.53848457336426, 216.92308807373047, 34.0, 22.0 ],
                                    "text": "sel 1"
                                }
                            },
                            {
                                "box": {
                                    "id": "obj-6",
                                    "maxclass": "message",
                                    "numinlets": 2,
                                    "numoutlets": 1,
                                    "outlettype": [ "" ],
                                    "patching_rect": [ 137.69231605529785, 149.23077392578125, 154.0, 22.0 ],
                                    "text": "117",
                                    "varname": "input_keys[3]"
                                }
                            },
                            {
                                "box": {
                                    "id": "obj-93",
                                    "maxclass": "newobj",
                                    "numinlets": 2,
                                    "numoutlets": 1,
                                    "outlettype": [ "int" ],
                                    "patching_rect": [ 291.53848457336426, 187.69231605529785, 46.0, 22.0 ],
                                    "text": "== 100"
                                }
                            },
                            {
                                "box": {
                                    "id": "obj-92",
                                    "maxclass": "newobj",
                                    "numinlets": 2,
                                    "numoutlets": 2,
                                    "outlettype": [ "", "" ],
                                    "patching_rect": [ 199.2307834625244, 187.69231605529785, 77.0, 22.0 ],
                                    "text": "array.index 2"
                                }
                            },
                            {
                                "box": {
                                    "id": "obj-27",
                                    "maxclass": "newobj",
                                    "numinlets": 1,
                                    "numoutlets": 2,
                                    "outlettype": [ "bang", "" ],
                                    "patching_rect": [ 137.69231605529785, 216.92308807373047, 29.5, 22.0 ],
                                    "text": "t b l"
                                }
                            },
                            {
                                "box": {
                                    "id": "obj-22",
                                    "maxclass": "message",
                                    "numinlets": 2,
                                    "numoutlets": 1,
                                    "outlettype": [ "" ],
                                    "patching_rect": [ 137.69231605529785, 334.92308807373047, 154.0, 22.0 ],
                                    "text": "keys 127 117 0 -6",
                                    "varname": "input_keys[1]"
                                }
                            },
                            {
                                "box": {
                                    "id": "obj-19",
                                    "maxclass": "newobj",
                                    "numinlets": 1,
                                    "numoutlets": 1,
                                    "outlettype": [ "" ],
                                    "patching_rect": [ 96.15385055541992, 187.69231605529785, 81.0, 22.0 ],
                                    "text": "prepend keys"
                                }
                            },
                            {
                                "box": {
                                    "id": "obj-16",
                                    "maxclass": "message",
                                    "numinlets": 2,
                                    "numoutlets": 1,
                                    "outlettype": [ "" ],
                                    "patching_rect": [ 50.0, 334.92308807373047, 74.0, 22.0 ],
                                    "text": "key_handler"
                                }
                            },
                            {
                                "box": {
                                    "id": "obj-14",
                                    "maxclass": "newobj",
                                    "numinlets": 1,
                                    "numoutlets": 2,
                                    "outlettype": [ "bang", "" ],
                                    "patching_rect": [ 50.0, 156.92308235168457, 29.5, 22.0 ],
                                    "text": "t b l"
                                }
                            },
                            {
                                "box": {
                                    "id": "obj-13",
                                    "maxclass": "newobj",
                                    "numinlets": 4,
                                    "numoutlets": 1,
                                    "outlettype": [ "" ],
                                    "patching_rect": [ 50.0, 130.76923370361328, 58.0, 22.0 ],
                                    "text": "pack i i i i"
                                }
                            },
                            {
                                "box": {
                                    "id": "obj-7",
                                    "maxclass": "newobj",
                                    "numinlets": 0,
                                    "numoutlets": 4,
                                    "outlettype": [ "int", "int", "int", "int" ],
                                    "patching_rect": [ 50.0, 100.0, 50.5, 22.0 ],
                                    "text": "key"
                                }
                            },
                            {
                                "box": {
                                    "comment": "Trigger the KeyHandler function",
                                    "id": "obj-8",
                                    "index": 1,
                                    "maxclass": "outlet",
                                    "numinlets": 1,
                                    "numoutlets": 0,
                                    "patching_rect": [ 50.0, 388.0, 30.0, 30.0 ]
                                }
                            },
                            {
                                "box": {
                                    "comment": "Passes the Keys list ( 4 long )",
                                    "id": "obj-15",
                                    "index": 2,
                                    "maxclass": "outlet",
                                    "numinlets": 1,
                                    "numoutlets": 0,
                                    "patching_rect": [ 138.0, 388.0, 30.0, 30.0 ]
                                }
                            },
                            {
                                "box": {
                                    "comment": "Start Stop / Bang",
                                    "id": "obj-21",
                                    "index": 3,
                                    "maxclass": "outlet",
                                    "numinlets": 1,
                                    "numoutlets": 0,
                                    "patching_rect": [ 291.53848457336426, 388.0, 30.0, 30.0 ]
                                }
                            }
                        ],
                        "lines": [
                            {
                                "patchline": {
                                    "destination": [ "obj-14", 0 ],
                                    "source": [ "obj-13", 0 ]
                                }
                            },
                            {
                                "patchline": {
                                    "destination": [ "obj-16", 0 ],
                                    "source": [ "obj-14", 0 ]
                                }
                            },
                            {
                                "patchline": {
                                    "destination": [ "obj-19", 0 ],
                                    "source": [ "obj-14", 1 ]
                                }
                            },
                            {
                                "patchline": {
                                    "destination": [ "obj-8", 0 ],
                                    "source": [ "obj-16", 0 ]
                                }
                            },
                            {
                                "patchline": {
                                    "destination": [ "obj-18", 0 ],
                                    "source": [ "obj-17", 0 ]
                                }
                            },
                            {
                                "patchline": {
                                    "destination": [ "obj-27", 0 ],
                                    "source": [ "obj-19", 0 ]
                                }
                            },
                            {
                                "patchline": {
                                    "destination": [ "obj-16", 0 ],
                                    "midpoints": [ 494.5, 328.0, 59.5, 328.0 ],
                                    "source": [ "obj-20", 0 ]
                                }
                            },
                            {
                                "patchline": {
                                    "destination": [ "obj-17", 0 ],
                                    "disabled": 1,
                                    "midpoints": [ 494.5, 329.9230838418007, 494.37806034088135, 329.9230838418007 ],
                                    "source": [ "obj-20", 0 ]
                                }
                            },
                            {
                                "patchline": {
                                    "destination": [ "obj-15", 0 ],
                                    "source": [ "obj-22", 0 ]
                                }
                            },
                            {
                                "patchline": {
                                    "destination": [ "obj-20", 0 ],
                                    "source": [ "obj-23", 0 ]
                                }
                            },
                            {
                                "patchline": {
                                    "destination": [ "obj-23", 0 ],
                                    "midpoints": [ 494.5, 250.2564173936844, 494.5, 250.2564173936844 ],
                                    "source": [ "obj-24", 0 ]
                                }
                            },
                            {
                                "patchline": {
                                    "destination": [ "obj-20", 1 ],
                                    "midpoints": [ 536.5, 247.58975064754486, 565.6666598320007, 247.58975064754486, 565.6666598320007, 282.2564172744751, 538.5, 282.2564172744751 ],
                                    "order": 0,
                                    "source": [ "obj-26", 0 ]
                                }
                            },
                            {
                                "patchline": {
                                    "destination": [ "obj-23", 1 ],
                                    "midpoints": [ 536.5, 243.58975052833557, 536.5, 243.58975052833557 ],
                                    "order": 1,
                                    "source": [ "obj-26", 0 ]
                                }
                            },
                            {
                                "patchline": {
                                    "destination": [ "obj-22", 1 ],
                                    "order": 1,
                                    "source": [ "obj-27", 1 ]
                                }
                            },
                            {
                                "patchline": {
                                    "destination": [ "obj-22", 0 ],
                                    "source": [ "obj-27", 0 ]
                                }
                            },
                            {
                                "patchline": {
                                    "destination": [ "obj-29", 0 ],
                                    "order": 0,
                                    "source": [ "obj-27", 1 ]
                                }
                            },
                            {
                                "patchline": {
                                    "destination": [ "obj-92", 0 ],
                                    "order": 2,
                                    "source": [ "obj-27", 1 ]
                                }
                            },
                            {
                                "patchline": {
                                    "destination": [ "obj-37", 1 ],
                                    "order": 2,
                                    "source": [ "obj-29", 0 ]
                                }
                            },
                            {
                                "patchline": {
                                    "destination": [ "obj-5", 0 ],
                                    "order": 0,
                                    "source": [ "obj-29", 0 ]
                                }
                            },
                            {
                                "patchline": {
                                    "destination": [ "obj-9", 0 ],
                                    "order": 1,
                                    "source": [ "obj-29", 0 ]
                                }
                            },
                            {
                                "patchline": {
                                    "destination": [ "obj-35", 0 ],
                                    "order": 1,
                                    "source": [ "obj-3", 0 ]
                                }
                            },
                            {
                                "patchline": {
                                    "destination": [ "obj-4", 0 ],
                                    "order": 0,
                                    "source": [ "obj-3", 0 ]
                                }
                            },
                            {
                                "patchline": {
                                    "destination": [ "obj-26", 0 ],
                                    "source": [ "obj-34", 0 ]
                                }
                            },
                            {
                                "patchline": {
                                    "destination": [ "obj-34", 0 ],
                                    "source": [ "obj-35", 3 ]
                                }
                            },
                            {
                                "patchline": {
                                    "destination": [ "obj-34", 0 ],
                                    "source": [ "obj-35", 2 ]
                                }
                            },
                            {
                                "patchline": {
                                    "destination": [ "obj-34", 0 ],
                                    "source": [ "obj-35", 1 ]
                                }
                            },
                            {
                                "patchline": {
                                    "destination": [ "obj-34", 0 ],
                                    "source": [ "obj-35", 0 ]
                                }
                            },
                            {
                                "patchline": {
                                    "destination": [ "obj-24", 0 ],
                                    "source": [ "obj-36", 0 ]
                                }
                            },
                            {
                                "patchline": {
                                    "destination": [ "obj-34", 0 ],
                                    "source": [ "obj-4", 1 ]
                                }
                            },
                            {
                                "patchline": {
                                    "destination": [ "obj-34", 0 ],
                                    "source": [ "obj-4", 0 ]
                                }
                            },
                            {
                                "patchline": {
                                    "destination": [ "obj-36", 0 ],
                                    "source": [ "obj-5", 1 ]
                                }
                            },
                            {
                                "patchline": {
                                    "destination": [ "obj-36", 0 ],
                                    "source": [ "obj-5", 0 ]
                                }
                            },
                            {
                                "patchline": {
                                    "destination": [ "obj-13", 3 ],
                                    "source": [ "obj-7", 3 ]
                                }
                            },
                            {
                                "patchline": {
                                    "destination": [ "obj-13", 2 ],
                                    "source": [ "obj-7", 2 ]
                                }
                            },
                            {
                                "patchline": {
                                    "destination": [ "obj-13", 1 ],
                                    "source": [ "obj-7", 1 ]
                                }
                            },
                            {
                                "patchline": {
                                    "destination": [ "obj-13", 0 ],
                                    "source": [ "obj-7", 0 ]
                                }
                            },
                            {
                                "patchline": {
                                    "destination": [ "obj-36", 0 ],
                                    "source": [ "obj-9", 3 ]
                                }
                            },
                            {
                                "patchline": {
                                    "destination": [ "obj-36", 0 ],
                                    "source": [ "obj-9", 2 ]
                                }
                            },
                            {
                                "patchline": {
                                    "destination": [ "obj-36", 0 ],
                                    "source": [ "obj-9", 1 ]
                                }
                            },
                            {
                                "patchline": {
                                    "destination": [ "obj-36", 0 ],
                                    "source": [ "obj-9", 0 ]
                                }
                            },
                            {
                                "patchline": {
                                    "destination": [ "obj-21", 0 ],
                                    "source": [ "obj-91", 0 ]
                                }
                            },
                            {
                                "patchline": {
                                    "destination": [ "obj-6", 1 ],
                                    "order": 1,
                                    "source": [ "obj-92", 0 ]
                                }
                            },
                            {
                                "patchline": {
                                    "destination": [ "obj-93", 0 ],
                                    "order": 0,
                                    "source": [ "obj-92", 0 ]
                                }
                            },
                            {
                                "patchline": {
                                    "destination": [ "obj-91", 0 ],
                                    "source": [ "obj-93", 0 ]
                                }
                            }
                        ]
                    },
                    "patching_rect": [ 205.0, 37.5, 107.0, 22.0 ],
                    "text": "p KEY_HANDLER"
                }
            },
            {
                "box": {
                    "id": "obj-76",
                    "maxclass": "message",
                    "numinlets": 2,
                    "numoutlets": 1,
                    "outlettype": [ "" ],
                    "patching_rect": [ 1275.0, 192.0, 85.0, 22.0 ],
                    "text": "0, 1 0.2 0. 150"
                }
            },
            {
                "box": {
                    "attr": "damping",
                    "id": "obj-94",
                    "maxclass": "attrui",
                    "numinlets": 1,
                    "numoutlets": 1,
                    "outlettype": [ "" ],
                    "parameter_enable": 0,
                    "patching_rect": [ 1177.0, 315.0, 150.0, 22.0 ]
                }
            },
            {
                "box": {
                    "attr": "decay",
                    "id": "obj-95",
                    "maxclass": "attrui",
                    "numinlets": 1,
                    "numoutlets": 1,
                    "outlettype": [ "" ],
                    "parameter_enable": 0,
                    "patching_rect": [ 1247.0, 285.0, 150.0, 22.0 ]
                }
            }
        ],
        "lines": [
            {
                "patchline": {
                    "destination": [ "obj-32", 0 ],
                    "order": 0,
                    "source": [ "obj-1", 0 ]
                }
            },
            {
                "patchline": {
                    "destination": [ "obj-62", 0 ],
                    "order": 1,
                    "source": [ "obj-1", 0 ]
                }
            },
            {
                "patchline": {
                    "destination": [ "obj-4", 0 ],
                    "source": [ "obj-10", 0 ]
                }
            },
            {
                "patchline": {
                    "destination": [ "obj-1", 0 ],
                    "order": 1,
                    "source": [ "obj-13", 1 ]
                }
            },
            {
                "patchline": {
                    "destination": [ "obj-12", 0 ],
                    "disabled": 1,
                    "source": [ "obj-13", 0 ]
                }
            },
            {
                "patchline": {
                    "destination": [ "obj-17", 0 ],
                    "source": [ "obj-13", 0 ]
                }
            },
            {
                "patchline": {
                    "destination": [ "obj-2", 0 ],
                    "order": 4,
                    "source": [ "obj-13", 1 ]
                }
            },
            {
                "patchline": {
                    "destination": [ "obj-53", 0 ],
                    "order": 0,
                    "source": [ "obj-13", 1 ]
                }
            },
            {
                "patchline": {
                    "destination": [ "obj-6", 0 ],
                    "order": 3,
                    "source": [ "obj-13", 1 ]
                }
            },
            {
                "patchline": {
                    "destination": [ "obj-9", 0 ],
                    "order": 2,
                    "source": [ "obj-13", 1 ]
                }
            },
            {
                "patchline": {
                    "destination": [ "obj-13", 1 ],
                    "source": [ "obj-14", 0 ]
                }
            },
            {
                "patchline": {
                    "destination": [ "obj-13", 0 ],
                    "source": [ "obj-15", 0 ]
                }
            },
            {
                "patchline": {
                    "destination": [ "obj-2", 1 ],
                    "source": [ "obj-17", 0 ]
                }
            },
            {
                "patchline": {
                    "destination": [ "obj-44", 0 ],
                    "source": [ "obj-18", 0 ]
                }
            },
            {
                "patchline": {
                    "destination": [ "obj-11", 0 ],
                    "source": [ "obj-19", 0 ]
                }
            },
            {
                "patchline": {
                    "destination": [ "obj-3", 0 ],
                    "midpoints": [ 771.5, -1.0, 761.0577116012573, -1.0 ],
                    "source": [ "obj-2", 0 ]
                }
            },
            {
                "patchline": {
                    "destination": [ "obj-13", 2 ],
                    "source": [ "obj-20", 0 ]
                }
            },
            {
                "patchline": {
                    "destination": [ "obj-10", 0 ],
                    "source": [ "obj-22", 2 ]
                }
            },
            {
                "patchline": {
                    "destination": [ "obj-4", 2 ],
                    "midpoints": [ 258.5, 69.0, 628.2094512780507, 69.0 ],
                    "source": [ "obj-22", 1 ]
                }
            },
            {
                "patchline": {
                    "destination": [ "obj-4", 0 ],
                    "source": [ "obj-22", 0 ]
                }
            },
            {
                "patchline": {
                    "destination": [ "obj-25", 0 ],
                    "source": [ "obj-24", 0 ]
                }
            },
            {
                "patchline": {
                    "destination": [ "obj-18", 0 ],
                    "source": [ "obj-25", 0 ]
                }
            },
            {
                "patchline": {
                    "destination": [ "obj-4", 1 ],
                    "midpoints": [ 771.5577116012573, 129.0, 421.8309151331583, 129.0 ],
                    "source": [ "obj-3", 1 ]
                }
            },
            {
                "patchline": {
                    "destination": [ "obj-4", 0 ],
                    "midpoints": [ 761.0577116012573, 122.0, 215.452378988266, 122.0 ],
                    "source": [ "obj-3", 0 ]
                }
            },
            {
                "patchline": {
                    "destination": [ "obj-42", 0 ],
                    "order": 0,
                    "source": [ "obj-32", 0 ]
                }
            },
            {
                "patchline": {
                    "destination": [ "obj-62", 1 ],
                    "order": 1,
                    "source": [ "obj-32", 0 ]
                }
            },
            {
                "patchline": {
                    "destination": [ "obj-51", 0 ],
                    "source": [ "obj-39", 0 ]
                }
            },
            {
                "patchline": {
                    "destination": [ "obj-23", 0 ],
                    "order": 1,
                    "source": [ "obj-40", 0 ]
                }
            },
            {
                "patchline": {
                    "destination": [ "obj-45", 0 ],
                    "order": 0,
                    "source": [ "obj-40", 0 ]
                }
            },
            {
                "patchline": {
                    "destination": [ "obj-51", 1 ],
                    "source": [ "obj-41", 0 ]
                }
            },
            {
                "patchline": {
                    "destination": [ "obj-41", 0 ],
                    "source": [ "obj-42", 0 ]
                }
            },
            {
                "patchline": {
                    "destination": [ "obj-44", 1 ],
                    "source": [ "obj-43", 0 ]
                }
            },
            {
                "patchline": {
                    "destination": [ "obj-54", 1 ],
                    "order": 0,
                    "source": [ "obj-44", 0 ]
                }
            },
            {
                "patchline": {
                    "destination": [ "obj-54", 0 ],
                    "order": 1,
                    "source": [ "obj-44", 0 ]
                }
            },
            {
                "patchline": {
                    "destination": [ "obj-48", 1 ],
                    "disabled": 1,
                    "source": [ "obj-45", 0 ]
                }
            },
            {
                "patchline": {
                    "destination": [ "obj-48", 0 ],
                    "disabled": 1,
                    "source": [ "obj-45", 0 ]
                }
            },
            {
                "patchline": {
                    "destination": [ "obj-45", 1 ],
                    "source": [ "obj-46", 0 ]
                }
            },
            {
                "patchline": {
                    "destination": [ "obj-49", 0 ],
                    "order": 2,
                    "source": [ "obj-47", 0 ]
                }
            },
            {
                "patchline": {
                    "destination": [ "obj-50", 0 ],
                    "order": 1,
                    "source": [ "obj-47", 0 ]
                }
            },
            {
                "patchline": {
                    "destination": [ "obj-52", 0 ],
                    "order": 0,
                    "source": [ "obj-47", 0 ]
                }
            },
            {
                "patchline": {
                    "destination": [ "obj-15", 0 ],
                    "source": [ "obj-49", 0 ]
                }
            },
            {
                "patchline": {
                    "destination": [ "obj-14", 0 ],
                    "source": [ "obj-50", 0 ]
                }
            },
            {
                "patchline": {
                    "destination": [ "obj-55", 0 ],
                    "source": [ "obj-51", 0 ]
                }
            },
            {
                "patchline": {
                    "destination": [ "obj-20", 0 ],
                    "source": [ "obj-52", 0 ]
                }
            },
            {
                "patchline": {
                    "destination": [ "obj-66", 0 ],
                    "order": 0,
                    "source": [ "obj-53", 0 ]
                }
            },
            {
                "patchline": {
                    "destination": [ "obj-84", 0 ],
                    "order": 1,
                    "source": [ "obj-53", 0 ]
                }
            },
            {
                "patchline": {
                    "destination": [ "obj-88", 0 ],
                    "order": 2,
                    "source": [ "obj-53", 0 ]
                }
            },
            {
                "patchline": {
                    "destination": [ "obj-63", 0 ],
                    "source": [ "obj-55", 0 ]
                }
            },
            {
                "patchline": {
                    "destination": [ "obj-55", 1 ],
                    "source": [ "obj-56", 0 ]
                }
            },
            {
                "patchline": {
                    "destination": [ "obj-24", 0 ],
                    "source": [ "obj-6", 0 ]
                }
            },
            {
                "patchline": {
                    "destination": [ "obj-42", 0 ],
                    "source": [ "obj-62", 0 ]
                }
            },
            {
                "patchline": {
                    "destination": [ "obj-57", 1 ],
                    "order": 0,
                    "source": [ "obj-63", 0 ]
                }
            },
            {
                "patchline": {
                    "destination": [ "obj-57", 0 ],
                    "order": 1,
                    "source": [ "obj-63", 0 ]
                }
            },
            {
                "patchline": {
                    "destination": [ "obj-75", 0 ],
                    "source": [ "obj-73", 0 ]
                }
            },
            {
                "patchline": {
                    "destination": [ "obj-75", 1 ],
                    "source": [ "obj-74", 0 ]
                }
            },
            {
                "patchline": {
                    "destination": [ "obj-89", 0 ],
                    "source": [ "obj-75", 0 ]
                }
            },
            {
                "patchline": {
                    "destination": [ "obj-74", 0 ],
                    "source": [ "obj-76", 0 ]
                }
            },
            {
                "patchline": {
                    "destination": [ "obj-75", 0 ],
                    "source": [ "obj-78", 0 ]
                }
            },
            {
                "patchline": {
                    "destination": [ "obj-78", 0 ],
                    "source": [ "obj-79", 0 ]
                }
            },
            {
                "patchline": {
                    "destination": [ "obj-85", 0 ],
                    "order": 0,
                    "source": [ "obj-84", 0 ]
                }
            },
            {
                "patchline": {
                    "destination": [ "obj-87", 0 ],
                    "order": 1,
                    "source": [ "obj-84", 0 ]
                }
            },
            {
                "patchline": {
                    "destination": [ "obj-79", 1 ],
                    "source": [ "obj-86", 0 ]
                }
            },
            {
                "patchline": {
                    "destination": [ "obj-76", 0 ],
                    "order": 0,
                    "source": [ "obj-87", 0 ]
                }
            },
            {
                "patchline": {
                    "destination": [ "obj-88", 1 ],
                    "order": 1,
                    "source": [ "obj-87", 0 ]
                }
            },
            {
                "patchline": {
                    "destination": [ "obj-79", 0 ],
                    "source": [ "obj-88", 0 ]
                }
            },
            {
                "patchline": {
                    "destination": [ "obj-93", 0 ],
                    "source": [ "obj-89", 0 ]
                }
            },
            {
                "patchline": {
                    "destination": [ "obj-89", 1 ],
                    "source": [ "obj-90", 0 ]
                }
            },
            {
                "patchline": {
                    "destination": [ "obj-82", 1 ],
                    "source": [ "obj-93", 1 ]
                }
            },
            {
                "patchline": {
                    "destination": [ "obj-82", 0 ],
                    "source": [ "obj-93", 0 ]
                }
            },
            {
                "patchline": {
                    "destination": [ "obj-93", 0 ],
                    "source": [ "obj-94", 0 ]
                }
            },
            {
                "patchline": {
                    "destination": [ "obj-93", 0 ],
                    "source": [ "obj-95", 0 ]
                }
            }
        ],
        "parameters": {
            "obj-18::obj-2": [ "live.gain~", "live.gain~", 0 ],
            "obj-26": [ "position", "position", 0 ],
            "obj-43": [ "live.dial", "live.dial", 0 ],
            "obj-46": [ "live.dial[1]", "live.dial", 0 ],
            "obj-56": [ "live.dial[3]", "live.dial", 0 ],
            "obj-58": [ "transpose2", "transpose2", 0 ],
            "obj-65": [ "delay_time", "delay_time", 0 ],
            "obj-67": [ "distortion_mix", "distortion_mix", 0 ],
            "obj-68": [ "fd", "fd", 0 ],
            "obj-69": [ "wetdry_mix", "wetdry_mix", 0 ],
            "obj-8": [ "size", "size", 0 ],
            "obj-90": [ "live.dial[2]", "live.dial", 0 ],
            "parameterbanks": {
                "0": {
                    "index": 0,
                    "name": "",
                    "parameters": [ "-", "-", "-", "-", "-", "-", "-", "-" ],
                    "buttons": [ "-", "-", "-", "-", "-", "-", "-", "-" ]
                }
            },
            "inherited_shortname": 1
        },
        "autosave": 0,
        "styles": [
            {
                "name": "rnbodefault",
                "default": {
                    "accentcolor": [ 0.343034118413925, 0.506230533123016, 0.86220508813858, 1.0 ],
                    "bgcolor": [ 0.031372549019608, 0.125490196078431, 0.211764705882353, 1.0 ],
                    "bgfillcolor": {
                        "angle": 270.0,
                        "autogradient": 0.0,
                        "color": [ 0.031372549019608, 0.125490196078431, 0.211764705882353, 1.0 ],
                        "color1": [ 0.031372549019608, 0.125490196078431, 0.211764705882353, 1.0 ],
                        "color2": [ 0.263682, 0.004541, 0.038797, 1.0 ],
                        "proportion": 0.39,
                        "type": "color"
                    },
                    "color": [ 0.929412, 0.929412, 0.352941, 1.0 ],
                    "elementcolor": [ 0.357540726661682, 0.515565991401672, 0.861786782741547, 1.0 ],
                    "fontname": [ "Lato" ],
                    "fontsize": [ 12.0 ],
                    "stripecolor": [ 0.258338063955307, 0.352425158023834, 0.511919498443604, 1.0 ],
                    "textcolor_inverse": [ 0.968627, 0.968627, 0.968627, 1 ]
                },
                "parentstyle": "",
                "multi": 0
            }
        ]
    }
}