{
    "patcher": {
        "fileversion": 1,
        "appversion": {
            "major": 9,
            "minor": 1,
            "revision": 1,
            "architecture": "x64",
            "modernui": 1
        },
        "classnamespace": "box",
        "rect": [ 412.0, 187.0, 907.0, 580.0 ],
        "openinpresentation": 1,
        "boxes": [
            {
                "box": {
                    "id": "obj-19",
                    "maxclass": "newobj",
                    "numinlets": 1,
                    "numoutlets": 3,
                    "outlettype": [ "signal", "signal", "int" ],
                    "patching_rect": [ 413.25302731990814, 224.09639012813568, 60.0, 22.0 ],
                    "text": "subdiv~ 2"
                }
            },
            {
                "box": {
                    "id": "obj-2",
                    "maxclass": "newobj",
                    "numinlets": 1,
                    "numoutlets": 2,
                    "outlettype": [ "signal", "int" ],
                    "patching_rect": [ 467.4698967933655, 259.03615045547485, 41.0, 22.0 ],
                    "text": "what~"
                }
            },
            {
                "box": {
                    "id": "obj-17",
                    "maxclass": "message",
                    "numinlets": 2,
                    "numoutlets": 1,
                    "outlettype": [ "" ],
                    "patching_rect": [ 413.25302731990814, 149.3975921869278, 56.0, 22.0 ],
                    "text": "swing $1"
                }
            },
            {
                "box": {
                    "id": "obj-4",
                    "maxclass": "live.scope~",
                    "numinlets": 2,
                    "numoutlets": 1,
                    "outlettype": [ "bang" ],
                    "patching_rect": [ 462.65061950683594, 381.92772126197815, 184.0, 68.0 ]
                }
            },
            {
                "box": {
                    "id": "obj-5",
                    "maxclass": "newobj",
                    "numinlets": 1,
                    "numoutlets": 3,
                    "outlettype": [ "signal", "signal", "int" ],
                    "patching_rect": [ 413.25302731990814, 189.1566298007965, 46.0, 22.0 ],
                    "text": "swing~"
                }
            },
            {
                "box": {
                    "id": "obj-21",
                    "maxclass": "newobj",
                    "numinlets": 1,
                    "numoutlets": 2,
                    "outlettype": [ "bang", "int" ],
                    "patching_rect": [ 610.8433960676193, 71.08433628082275, 29.5, 22.0 ],
                    "text": "t b i"
                }
            },
            {
                "box": {
                    "id": "obj-6",
                    "maxclass": "message",
                    "numinlets": 2,
                    "numoutlets": 1,
                    "outlettype": [ "" ],
                    "patching_rect": [ 704.8193031549454, 119.27710914611816, 29.5, 22.0 ],
                    "text": "0."
                }
            },
            {
                "box": {
                    "focusbordercolor": [ 0.917647058823529, 0.235294117647059, 0.235294117647059, 1.0 ],
                    "id": "obj-14",
                    "maxclass": "live.slider",
                    "numinlets": 1,
                    "numoutlets": 2,
                    "orientation": 1,
                    "outlettype": [ "", "float" ],
                    "parameter_enable": 1,
                    "patching_rect": [ 413.25302731990814, 100.0, 164.0, 41.0 ],
                    "saved_attribute_attributes": {
                        "focusbordercolor": {
                            "expression": "themecolor.live_active_automation"
                        },
                        "valueof": {
                            "parameter_initial": [ 0.5 ],
                            "parameter_initial_enable": 1,
                            "parameter_longname": "live.slider",
                            "parameter_mmax": 0.95,
                            "parameter_mmin": 0.5,
                            "parameter_modmode": 3,
                            "parameter_shortname": "live.slider",
                            "parameter_type": 0,
                            "parameter_unitstyle": 5
                        }
                    },
                    "varname": "live.slider"
                }
            },
            {
                "box": {
                    "id": "obj-8",
                    "maxclass": "live.scope~",
                    "numinlets": 2,
                    "numoutlets": 1,
                    "outlettype": [ "bang" ],
                    "patching_rect": [ 467.4698967933655, 295.1807301044464, 184.0, 68.0 ]
                }
            },
            {
                "box": {
                    "id": "obj-7",
                    "maxclass": "newobj",
                    "numinlets": 2,
                    "numoutlets": 1,
                    "outlettype": [ "signal" ],
                    "patching_rect": [ 489.1566445827484, 149.3975921869278, 116.0, 22.0 ],
                    "text": "phasor~ 1n @lock 1"
                }
            },
            {
                "box": {
                    "id": "obj-9",
                    "maxclass": "toggle",
                    "numinlets": 1,
                    "numoutlets": 1,
                    "outlettype": [ "int" ],
                    "parameter_enable": 0,
                    "patching_rect": [ 585.5421903133392, 31.32529866695404, 24.0, 24.0 ]
                }
            },
            {
                "box": {
                    "id": "obj-10",
                    "maxclass": "newobj",
                    "numinlets": 2,
                    "numoutlets": 9,
                    "outlettype": [ "int", "int", "float", "float", "float", "", "int", "float", "" ],
                    "patching_rect": [ 620.4819506406784, 149.3975921869278, 103.0, 22.0 ],
                    "text": "transport"
                }
            },
            {
                "box": {
                    "attr": "tempo",
                    "id": "obj-11",
                    "maxclass": "attrui",
                    "numinlets": 1,
                    "numoutlets": 1,
                    "outlettype": [ "" ],
                    "parameter_enable": 0,
                    "patching_rect": [ 649.3976143598557, 71.08433628082275, 150.0, 22.0 ]
                }
            },
            {
                "box": {
                    "id": "obj-3",
                    "maxclass": "message",
                    "numinlets": 2,
                    "numoutlets": 1,
                    "outlettype": [ "" ],
                    "patching_rect": [ 76.0, 91.0, 29.5, 22.0 ],
                    "text": "117"
                }
            },
            {
                "box": {
                    "id": "obj-1",
                    "maxclass": "newobj",
                    "numinlets": 1,
                    "numoutlets": 1,
                    "outlettype": [ "bang" ],
                    "patching_rect": [ 76.0, 59.0, 58.0, 22.0 ],
                    "text": "loadbang"
                }
            },
            {
                "box": {
                    "id": "obj-18",
                    "maxclass": "newobj",
                    "numinlets": 3,
                    "numoutlets": 3,
                    "outlettype": [ "bang", "bang", "" ],
                    "patching_rect": [ 275.79517698287964, 118.0, 44.0, 22.0 ],
                    "text": "sel 0 1"
                }
            },
            {
                "box": {
                    "id": "obj-16",
                    "maxclass": "toggle",
                    "numinlets": 1,
                    "numoutlets": 1,
                    "outlettype": [ "int" ],
                    "parameter_enable": 0,
                    "patching_rect": [ 208.79517698287964, 100.0, 24.0, 24.0 ]
                }
            },
            {
                "box": {
                    "id": "obj-85",
                    "maxclass": "message",
                    "numinlets": 2,
                    "numoutlets": 1,
                    "outlettype": [ "" ],
                    "patching_rect": [ 99.3975921869278, 183.43373894691467, 29.5, 22.0 ],
                    "text": "0"
                }
            },
            {
                "box": {
                    "id": "obj-83",
                    "maxclass": "newobj",
                    "numinlets": 1,
                    "numoutlets": 2,
                    "outlettype": [ "bang", "bang" ],
                    "patching_rect": [ 65.66265118122101, 183.43373894691467, 32.0, 22.0 ],
                    "text": "t b b"
                }
            },
            {
                "box": {
                    "bgcolor": [ 0.748005250274626, 0.748005074384469, 0.748005120347377, 1.0 ],
                    "bgcolor2": [ 0.748005250274626, 0.748005074384469, 0.748005120347377, 1.0 ],
                    "bgfillcolor_angle": 270.0,
                    "bgfillcolor_autogradient": 0.0,
                    "bgfillcolor_color": [ 0.796078431372549, 0.37254901960784315, 0.37254901960784315, 1.0 ],
                    "bgfillcolor_color1": [ 0.748005250274626, 0.748005074384469, 0.748005120347377, 1.0 ],
                    "bgfillcolor_color2": [ 0.748005250274626, 0.748005074384469, 0.748005120347377, 1.0 ],
                    "bgfillcolor_proportion": 0.5,
                    "bgfillcolor_type": "color",
                    "fontname": "Consolas Bold",
                    "gradient": 1,
                    "id": "obj-75",
                    "maxclass": "message",
                    "numinlets": 2,
                    "numoutlets": 1,
                    "outlettype": [ "" ],
                    "patching_rect": [ 95.78313422203064, 153.31325590610504, 35.0, 23.0 ],
                    "presentation": 1,
                    "presentation_rect": [ 52.0, 4.0, 35.0, 23.0 ],
                    "text": "stop",
                    "textcolor": [ 1.0, 1.0, 1.0, 1.0 ]
                }
            },
            {
                "box": {
                    "bgcolor": [ 0.35294117647058826, 0.7098039215686275, 1.0, 1.0 ],
                    "bgcolor2": [ 0.35294117647058826, 0.7098039215686275, 1.0, 1.0 ],
                    "bgfillcolor_angle": 270.0,
                    "bgfillcolor_autogradient": 0.0,
                    "bgfillcolor_color": [ 0.5254901960784314, 0.788235294117647, 1.0, 1.0 ],
                    "bgfillcolor_color1": [ 0.35294117647058826, 0.7098039215686275, 1.0, 1.0 ],
                    "bgfillcolor_color2": [ 0.748005250274626, 0.748005074384469, 0.748005120347377, 1.0 ],
                    "bgfillcolor_proportion": 0.5,
                    "bgfillcolor_type": "color",
                    "fontname": "Consolas Bold",
                    "gradient": 1,
                    "id": "obj-68",
                    "maxclass": "message",
                    "numinlets": 2,
                    "numoutlets": 1,
                    "outlettype": [ "" ],
                    "patching_rect": [ 50.0, 153.31325590610504, 41.0, 23.0 ],
                    "presentation": 1,
                    "presentation_rect": [ 6.0, 4.0, 41.0, 23.0 ],
                    "text": "start"
                }
            },
            {
                "box": {
                    "format": 6,
                    "hint": "Shuffle amount 0.5 .. 0.9",
                    "id": "obj-30",
                    "maxclass": "flonum",
                    "maximum": 0.75,
                    "minimum": 0.5,
                    "numinlets": 1,
                    "numoutlets": 2,
                    "outlettype": [ "", "bang" ],
                    "parameter_enable": 0,
                    "patching_rect": [ 288.5542256832123, 164.1566298007965, 50.0, 22.0 ],
                    "presentation": 1,
                    "presentation_rect": [ 153.0, 5.0, 50.0, 22.0 ]
                }
            },
            {
                "box": {
                    "format": 6,
                    "hint": "Base Tempo",
                    "id": "obj-33",
                    "maxclass": "flonum",
                    "numinlets": 1,
                    "numoutlets": 2,
                    "outlettype": [ "", "bang" ],
                    "parameter_enable": 0,
                    "patching_rect": [ 234.33735620975494, 164.1566298007965, 50.0, 22.0 ],
                    "presentation": 1,
                    "presentation_rect": [ 96.0, 5.0, 50.0, 22.0 ]
                }
            },
            {
                "box": {
                    "id": "obj-44",
                    "maxclass": "button",
                    "numinlets": 1,
                    "numoutlets": 1,
                    "outlettype": [ "bang" ],
                    "parameter_enable": 0,
                    "patching_rect": [ 168.07229351997375, 162.95181047916412, 24.0, 24.0 ]
                }
            },
            {
                "box": {
                    "id": "obj-45",
                    "maxclass": "toggle",
                    "numinlets": 1,
                    "numoutlets": 1,
                    "outlettype": [ "int" ],
                    "parameter_enable": 0,
                    "patching_rect": [ 198.1927765607834, 162.95181047916412, 24.0, 24.0 ]
                }
            },
            {
                "box": {
                    "id": "obj-27",
                    "maxclass": "newobj",
                    "numinlets": 4,
                    "numoutlets": 1,
                    "outlettype": [ "bang" ],
                    "patcher": {
                        "fileversion": 1,
                        "appversion": {
                            "major": 9,
                            "minor": 1,
                            "revision": 1,
                            "architecture": "x64",
                            "modernui": 1
                        },
                        "classnamespace": "box",
                        "rect": [ 286.0, 176.0, 608.0, 730.0 ],
                        "boxes": [
                            {
                                "box": {
                                    "comment": "",
                                    "id": "obj-67",
                                    "index": 4,
                                    "maxclass": "inlet",
                                    "numinlets": 0,
                                    "numoutlets": 1,
                                    "outlettype": [ "" ],
                                    "patching_rect": [ 264.0, 8.0, 30.0, 30.0 ]
                                }
                            },
                            {
                                "box": {
                                    "comment": "",
                                    "id": "obj-66",
                                    "index": 3,
                                    "maxclass": "inlet",
                                    "numinlets": 0,
                                    "numoutlets": 1,
                                    "outlettype": [ "" ],
                                    "patching_rect": [ 205.0, 8.0, 30.0, 30.0 ]
                                }
                            },
                            {
                                "box": {
                                    "comment": "",
                                    "id": "obj-57",
                                    "index": 2,
                                    "maxclass": "inlet",
                                    "numinlets": 0,
                                    "numoutlets": 1,
                                    "outlettype": [ "int" ],
                                    "patching_rect": [ 130.0, 8.0, 30.0, 30.0 ]
                                }
                            },
                            {
                                "box": {
                                    "comment": "",
                                    "id": "obj-56",
                                    "index": 1,
                                    "maxclass": "inlet",
                                    "numinlets": 0,
                                    "numoutlets": 1,
                                    "outlettype": [ "bang" ],
                                    "patching_rect": [ 74.0, 8.0, 30.0, 30.0 ]
                                }
                            },
                            {
                                "box": {
                                    "comment": "",
                                    "id": "obj-53",
                                    "index": 1,
                                    "maxclass": "outlet",
                                    "numinlets": 1,
                                    "numoutlets": 0,
                                    "patching_rect": [ 71.0, 486.0, 30.0, 30.0 ]
                                }
                            },
                            {
                                "box": {
                                    "id": "obj-52",
                                    "maxclass": "newobj",
                                    "numinlets": 2,
                                    "numoutlets": 1,
                                    "outlettype": [ "float" ],
                                    "patching_rect": [ 384.0, 294.0, 33.0, 22.0 ],
                                    "text": "* 0.5"
                                }
                            },
                            {
                                "box": {
                                    "id": "obj-50",
                                    "maxclass": "newobj",
                                    "numinlets": 2,
                                    "numoutlets": 1,
                                    "outlettype": [ "float" ],
                                    "patching_rect": [ 377.5, 191.0, 29.5, 22.0 ],
                                    "text": "!- 1."
                                }
                            },
                            {
                                "box": {
                                    "id": "obj-41",
                                    "maxclass": "newobj",
                                    "numinlets": 1,
                                    "numoutlets": 2,
                                    "outlettype": [ "bang", "float" ],
                                    "patching_rect": [ 377.5, 223.0, 29.5, 22.0 ],
                                    "text": "t b f"
                                }
                            },
                            {
                                "box": {
                                    "id": "obj-40",
                                    "maxclass": "newobj",
                                    "numinlets": 2,
                                    "numoutlets": 1,
                                    "outlettype": [ "float" ],
                                    "patching_rect": [ 345.0, 270.0, 29.5, 22.0 ],
                                    "text": "* 1."
                                }
                            },
                            {
                                "box": {
                                    "id": "obj-30",
                                    "maxclass": "newobj",
                                    "numinlets": 2,
                                    "numoutlets": 1,
                                    "outlettype": [ "float" ],
                                    "patching_rect": [ 254.0, 218.0, 33.0, 22.0 ],
                                    "text": "* 0.5"
                                }
                            },
                            {
                                "box": {
                                    "id": "obj-29",
                                    "maxclass": "newobj",
                                    "numinlets": 1,
                                    "numoutlets": 2,
                                    "outlettype": [ "bang", "float" ],
                                    "patching_rect": [ 254.0, 153.0, 29.5, 22.0 ],
                                    "text": "t b f"
                                }
                            },
                            {
                                "box": {
                                    "id": "obj-28",
                                    "maxclass": "newobj",
                                    "numinlets": 2,
                                    "numoutlets": 1,
                                    "outlettype": [ "float" ],
                                    "patching_rect": [ 254.0, 191.0, 33.0, 22.0 ],
                                    "text": "* 0.5"
                                }
                            },
                            {
                                "box": {
                                    "id": "obj-27",
                                    "maxclass": "comment",
                                    "numinlets": 1,
                                    "numoutlets": 0,
                                    "patching_rect": [ 267.0, 95.0, 150.0, 20.0 ],
                                    "text": "shuffle ratio 0.5 ... 0.75"
                                }
                            },
                            {
                                "box": {
                                    "format": 6,
                                    "id": "obj-26",
                                    "maxclass": "flonum",
                                    "maximum": 0.75,
                                    "minimum": 0.5,
                                    "numinlets": 1,
                                    "numoutlets": 2,
                                    "outlettype": [ "", "bang" ],
                                    "parameter_enable": 0,
                                    "patching_rect": [ 254.0, 127.0, 50.0, 22.0 ]
                                }
                            },
                            {
                                "box": {
                                    "id": "obj-25",
                                    "maxclass": "comment",
                                    "numinlets": 1,
                                    "numoutlets": 0,
                                    "patching_rect": [ 180.0, 53.0, 150.0, 20.0 ],
                                    "text": "total beat length"
                                }
                            },
                            {
                                "box": {
                                    "format": 6,
                                    "id": "obj-23",
                                    "maxclass": "flonum",
                                    "numinlets": 1,
                                    "numoutlets": 2,
                                    "outlettype": [ "", "bang" ],
                                    "parameter_enable": 0,
                                    "patching_rect": [ 195.0, 84.0, 50.0, 22.0 ]
                                }
                            },
                            {
                                "box": {
                                    "id": "obj-20",
                                    "maxclass": "live.scope~",
                                    "numinlets": 2,
                                    "numoutlets": 1,
                                    "outlettype": [ "bang" ],
                                    "patching_rect": [ 128.0, 531.0, 184.0, 68.0 ]
                                }
                            },
                            {
                                "box": {
                                    "id": "obj-19",
                                    "maxclass": "newobj",
                                    "numinlets": 1,
                                    "numoutlets": 1,
                                    "outlettype": [ "signal" ],
                                    "patching_rect": [ 130.0, 490.0, 39.0, 22.0 ],
                                    "text": "click~"
                                }
                            },
                            {
                                "box": {
                                    "id": "obj-18",
                                    "maxclass": "button",
                                    "numinlets": 1,
                                    "numoutlets": 1,
                                    "outlettype": [ "bang" ],
                                    "parameter_enable": 0,
                                    "patching_rect": [ 307.0, 430.0, 24.0, 24.0 ]
                                }
                            },
                            {
                                "box": {
                                    "id": "obj-15",
                                    "maxclass": "button",
                                    "numinlets": 1,
                                    "numoutlets": 1,
                                    "outlettype": [ "bang" ],
                                    "parameter_enable": 0,
                                    "patching_rect": [ 238.0, 430.0, 24.0, 24.0 ]
                                }
                            },
                            {
                                "box": {
                                    "id": "obj-14",
                                    "maxclass": "button",
                                    "numinlets": 1,
                                    "numoutlets": 1,
                                    "outlettype": [ "bang" ],
                                    "parameter_enable": 0,
                                    "patching_rect": [ 168.0, 430.0, 24.0, 24.0 ]
                                }
                            },
                            {
                                "box": {
                                    "id": "obj-13",
                                    "maxclass": "button",
                                    "numinlets": 1,
                                    "numoutlets": 1,
                                    "outlettype": [ "bang" ],
                                    "parameter_enable": 0,
                                    "patching_rect": [ 382.0, 430.0, 24.0, 24.0 ]
                                }
                            },
                            {
                                "box": {
                                    "id": "obj-12",
                                    "maxclass": "button",
                                    "numinlets": 1,
                                    "numoutlets": 1,
                                    "outlettype": [ "bang" ],
                                    "parameter_enable": 0,
                                    "patching_rect": [ 130.0, 58.0, 24.0, 24.0 ]
                                }
                            },
                            {
                                "box": {
                                    "id": "obj-10",
                                    "maxclass": "toggle",
                                    "numinlets": 1,
                                    "numoutlets": 1,
                                    "outlettype": [ "int" ],
                                    "parameter_enable": 0,
                                    "patching_rect": [ 74.0, 58.0, 24.0, 24.0 ]
                                }
                            },
                            {
                                "box": {
                                    "id": "obj-8",
                                    "maxclass": "newobj",
                                    "numinlets": 2,
                                    "numoutlets": 1,
                                    "outlettype": [ "" ],
                                    "patching_rect": [ 74.0, 115.0, 32.0, 22.0 ],
                                    "text": "gate"
                                }
                            },
                            {
                                "box": {
                                    "id": "obj-6",
                                    "maxclass": "newobj",
                                    "numinlets": 2,
                                    "numoutlets": 1,
                                    "outlettype": [ "bang" ],
                                    "patching_rect": [ 307.0, 372.0, 57.0, 22.0 ],
                                    "text": "delay 50."
                                }
                            },
                            {
                                "box": {
                                    "format": 6,
                                    "id": "obj-5",
                                    "maxclass": "flonum",
                                    "numinlets": 1,
                                    "numoutlets": 2,
                                    "outlettype": [ "", "bang" ],
                                    "parameter_enable": 0,
                                    "patching_rect": [ 345.0, 330.0, 50.0, 22.0 ]
                                }
                            },
                            {
                                "box": {
                                    "id": "obj-4",
                                    "maxclass": "newobj",
                                    "numinlets": 2,
                                    "numoutlets": 1,
                                    "outlettype": [ "bang" ],
                                    "patching_rect": [ 238.0, 372.0, 57.0, 22.0 ],
                                    "text": "delay 50."
                                }
                            },
                            {
                                "box": {
                                    "id": "obj-3",
                                    "maxclass": "newobj",
                                    "numinlets": 2,
                                    "numoutlets": 1,
                                    "outlettype": [ "bang" ],
                                    "patching_rect": [ 168.0, 372.0, 57.0, 22.0 ],
                                    "text": "delay 50."
                                }
                            },
                            {
                                "box": {
                                    "format": 6,
                                    "id": "obj-2",
                                    "maxclass": "flonum",
                                    "numinlets": 1,
                                    "numoutlets": 2,
                                    "outlettype": [ "", "bang" ],
                                    "parameter_enable": 0,
                                    "patching_rect": [ 206.0, 330.0, 50.0, 22.0 ]
                                }
                            },
                            {
                                "box": {
                                    "id": "obj-16",
                                    "maxclass": "newobj",
                                    "numinlets": 2,
                                    "numoutlets": 1,
                                    "outlettype": [ "bang" ],
                                    "patching_rect": [ 382.0, 372.0, 57.0, 22.0 ],
                                    "text": "delay 50."
                                }
                            }
                        ],
                        "lines": [
                            {
                                "patchline": {
                                    "destination": [ "obj-8", 0 ],
                                    "source": [ "obj-10", 0 ]
                                }
                            },
                            {
                                "patchline": {
                                    "destination": [ "obj-19", 0 ],
                                    "order": 0,
                                    "source": [ "obj-12", 0 ]
                                }
                            },
                            {
                                "patchline": {
                                    "destination": [ "obj-53", 0 ],
                                    "order": 2,
                                    "source": [ "obj-12", 0 ]
                                }
                            },
                            {
                                "patchline": {
                                    "destination": [ "obj-8", 1 ],
                                    "midpoints": [ 139.5, 102.0, 96.5, 102.0 ],
                                    "order": 1,
                                    "source": [ "obj-12", 0 ]
                                }
                            },
                            {
                                "patchline": {
                                    "destination": [ "obj-19", 0 ],
                                    "order": 0,
                                    "source": [ "obj-13", 0 ]
                                }
                            },
                            {
                                "patchline": {
                                    "destination": [ "obj-53", 0 ],
                                    "order": 1,
                                    "source": [ "obj-13", 0 ]
                                }
                            },
                            {
                                "patchline": {
                                    "destination": [ "obj-19", 0 ],
                                    "order": 0,
                                    "source": [ "obj-14", 0 ]
                                }
                            },
                            {
                                "patchline": {
                                    "destination": [ "obj-53", 0 ],
                                    "order": 1,
                                    "source": [ "obj-14", 0 ]
                                }
                            },
                            {
                                "patchline": {
                                    "destination": [ "obj-19", 0 ],
                                    "order": 0,
                                    "source": [ "obj-15", 0 ]
                                }
                            },
                            {
                                "patchline": {
                                    "destination": [ "obj-53", 0 ],
                                    "order": 1,
                                    "source": [ "obj-15", 0 ]
                                }
                            },
                            {
                                "patchline": {
                                    "destination": [ "obj-13", 0 ],
                                    "order": 0,
                                    "source": [ "obj-16", 0 ]
                                }
                            },
                            {
                                "patchline": {
                                    "destination": [ "obj-8", 1 ],
                                    "midpoints": [ 391.5, 406.0, 156.0, 406.0, 156.0, 108.0, 96.5, 108.0 ],
                                    "order": 1,
                                    "source": [ "obj-16", 0 ]
                                }
                            },
                            {
                                "patchline": {
                                    "destination": [ "obj-19", 0 ],
                                    "order": 0,
                                    "source": [ "obj-18", 0 ]
                                }
                            },
                            {
                                "patchline": {
                                    "destination": [ "obj-53", 0 ],
                                    "order": 1,
                                    "source": [ "obj-18", 0 ]
                                }
                            },
                            {
                                "patchline": {
                                    "destination": [ "obj-20", 0 ],
                                    "source": [ "obj-19", 0 ]
                                }
                            },
                            {
                                "patchline": {
                                    "destination": [ "obj-16", 1 ],
                                    "midpoints": [ 215.5, 363.0, 429.5, 363.0 ],
                                    "order": 0,
                                    "source": [ "obj-2", 0 ]
                                }
                            },
                            {
                                "patchline": {
                                    "destination": [ "obj-3", 1 ],
                                    "order": 1,
                                    "source": [ "obj-2", 0 ]
                                }
                            },
                            {
                                "patchline": {
                                    "destination": [ "obj-28", 0 ],
                                    "midpoints": [ 204.5, 181.0, 263.5, 181.0 ],
                                    "order": 1,
                                    "source": [ "obj-23", 0 ]
                                }
                            },
                            {
                                "patchline": {
                                    "destination": [ "obj-40", 0 ],
                                    "midpoints": [ 204.5, 252.0, 354.5, 252.0 ],
                                    "order": 0,
                                    "source": [ "obj-23", 0 ]
                                }
                            },
                            {
                                "patchline": {
                                    "destination": [ "obj-29", 0 ],
                                    "order": 1,
                                    "source": [ "obj-26", 0 ]
                                }
                            },
                            {
                                "patchline": {
                                    "destination": [ "obj-50", 0 ],
                                    "order": 0,
                                    "source": [ "obj-26", 0 ]
                                }
                            },
                            {
                                "patchline": {
                                    "destination": [ "obj-30", 0 ],
                                    "source": [ "obj-28", 0 ]
                                }
                            },
                            {
                                "patchline": {
                                    "destination": [ "obj-28", 1 ],
                                    "source": [ "obj-29", 1 ]
                                }
                            },
                            {
                                "patchline": {
                                    "destination": [ "obj-28", 0 ],
                                    "source": [ "obj-29", 0 ]
                                }
                            },
                            {
                                "patchline": {
                                    "destination": [ "obj-14", 0 ],
                                    "order": 1,
                                    "source": [ "obj-3", 0 ]
                                }
                            },
                            {
                                "patchline": {
                                    "destination": [ "obj-4", 0 ],
                                    "order": 0,
                                    "source": [ "obj-3", 0 ]
                                }
                            },
                            {
                                "patchline": {
                                    "destination": [ "obj-2", 0 ],
                                    "midpoints": [ 263.5, 325.0, 216.0, 325.0, 216.0, 327.0, 215.5, 327.0 ],
                                    "source": [ "obj-30", 0 ]
                                }
                            },
                            {
                                "patchline": {
                                    "destination": [ "obj-15", 0 ],
                                    "order": 1,
                                    "source": [ "obj-4", 0 ]
                                }
                            },
                            {
                                "patchline": {
                                    "destination": [ "obj-6", 0 ],
                                    "order": 0,
                                    "source": [ "obj-4", 0 ]
                                }
                            },
                            {
                                "patchline": {
                                    "destination": [ "obj-52", 0 ],
                                    "source": [ "obj-40", 0 ]
                                }
                            },
                            {
                                "patchline": {
                                    "destination": [ "obj-40", 1 ],
                                    "source": [ "obj-41", 1 ]
                                }
                            },
                            {
                                "patchline": {
                                    "destination": [ "obj-40", 0 ],
                                    "source": [ "obj-41", 0 ]
                                }
                            },
                            {
                                "patchline": {
                                    "destination": [ "obj-4", 1 ],
                                    "midpoints": [ 354.5, 359.0, 285.5, 359.0 ],
                                    "order": 1,
                                    "source": [ "obj-5", 0 ]
                                }
                            },
                            {
                                "patchline": {
                                    "destination": [ "obj-6", 1 ],
                                    "order": 0,
                                    "source": [ "obj-5", 0 ]
                                }
                            },
                            {
                                "patchline": {
                                    "destination": [ "obj-41", 0 ],
                                    "source": [ "obj-50", 0 ]
                                }
                            },
                            {
                                "patchline": {
                                    "destination": [ "obj-5", 0 ],
                                    "source": [ "obj-52", 0 ]
                                }
                            },
                            {
                                "patchline": {
                                    "destination": [ "obj-12", 0 ],
                                    "source": [ "obj-56", 0 ]
                                }
                            },
                            {
                                "patchline": {
                                    "destination": [ "obj-10", 0 ],
                                    "source": [ "obj-57", 0 ]
                                }
                            },
                            {
                                "patchline": {
                                    "destination": [ "obj-16", 0 ],
                                    "order": 0,
                                    "source": [ "obj-6", 0 ]
                                }
                            },
                            {
                                "patchline": {
                                    "destination": [ "obj-18", 0 ],
                                    "order": 1,
                                    "source": [ "obj-6", 0 ]
                                }
                            },
                            {
                                "patchline": {
                                    "destination": [ "obj-23", 0 ],
                                    "source": [ "obj-66", 0 ]
                                }
                            },
                            {
                                "patchline": {
                                    "destination": [ "obj-26", 0 ],
                                    "source": [ "obj-67", 0 ]
                                }
                            },
                            {
                                "patchline": {
                                    "destination": [ "obj-3", 0 ],
                                    "source": [ "obj-8", 0 ]
                                }
                            }
                        ]
                    },
                    "patching_rect": [ 171.6867514848709, 194.27711284160614, 76.0, 22.0 ],
                    "text": "p shuffletime"
                }
            },
            {
                "box": {
                    "comment": "",
                    "id": "obj-12",
                    "index": 0,
                    "maxclass": "inlet",
                    "numinlets": 0,
                    "numoutlets": 1,
                    "outlettype": [ "" ],
                    "patching_rect": [ 208.79517698287964, 40.0, 30.0, 30.0 ]
                }
            },
            {
                "box": {
                    "comment": "",
                    "id": "obj-15",
                    "index": 0,
                    "maxclass": "outlet",
                    "numinlets": 1,
                    "numoutlets": 0,
                    "patching_rect": [ 171.68674798287964, 276.277115, 30.0, 30.0 ]
                }
            }
        ],
        "lines": [
            {
                "patchline": {
                    "destination": [ "obj-3", 0 ],
                    "source": [ "obj-1", 0 ]
                }
            },
            {
                "patchline": {
                    "destination": [ "obj-10", 0 ],
                    "source": [ "obj-11", 0 ]
                }
            },
            {
                "patchline": {
                    "destination": [ "obj-16", 0 ],
                    "source": [ "obj-12", 0 ]
                }
            },
            {
                "patchline": {
                    "destination": [ "obj-17", 0 ],
                    "source": [ "obj-14", 0 ]
                }
            },
            {
                "patchline": {
                    "destination": [ "obj-18", 0 ],
                    "source": [ "obj-16", 0 ]
                }
            },
            {
                "patchline": {
                    "destination": [ "obj-5", 0 ],
                    "source": [ "obj-17", 0 ]
                }
            },
            {
                "patchline": {
                    "destination": [ "obj-68", 0 ],
                    "source": [ "obj-18", 0 ]
                }
            },
            {
                "patchline": {
                    "destination": [ "obj-75", 0 ],
                    "source": [ "obj-18", 1 ]
                }
            },
            {
                "patchline": {
                    "destination": [ "obj-2", 0 ],
                    "order": 0,
                    "source": [ "obj-19", 0 ]
                }
            },
            {
                "patchline": {
                    "destination": [ "obj-4", 0 ],
                    "midpoints": [ 422.75302731990814, 370.1566298007965, 472.15061950683594, 370.1566298007965 ],
                    "order": 1,
                    "source": [ "obj-19", 0 ]
                }
            },
            {
                "patchline": {
                    "destination": [ "obj-8", 0 ],
                    "source": [ "obj-2", 0 ]
                }
            },
            {
                "patchline": {
                    "destination": [ "obj-10", 0 ],
                    "source": [ "obj-21", 1 ]
                }
            },
            {
                "patchline": {
                    "destination": [ "obj-6", 0 ],
                    "source": [ "obj-21", 0 ]
                }
            },
            {
                "patchline": {
                    "destination": [ "obj-15", 0 ],
                    "source": [ "obj-27", 0 ]
                }
            },
            {
                "patchline": {
                    "destination": [ "obj-33", 0 ],
                    "source": [ "obj-3", 0 ]
                }
            },
            {
                "patchline": {
                    "destination": [ "obj-27", 3 ],
                    "source": [ "obj-30", 0 ]
                }
            },
            {
                "patchline": {
                    "destination": [ "obj-27", 2 ],
                    "source": [ "obj-33", 0 ]
                }
            },
            {
                "patchline": {
                    "destination": [ "obj-27", 0 ],
                    "source": [ "obj-44", 0 ]
                }
            },
            {
                "patchline": {
                    "destination": [ "obj-27", 1 ],
                    "source": [ "obj-45", 0 ]
                }
            },
            {
                "patchline": {
                    "destination": [ "obj-19", 0 ],
                    "source": [ "obj-5", 0 ]
                }
            },
            {
                "patchline": {
                    "destination": [ "obj-10", 1 ],
                    "source": [ "obj-6", 0 ]
                }
            },
            {
                "patchline": {
                    "destination": [ "obj-83", 0 ],
                    "source": [ "obj-68", 0 ]
                }
            },
            {
                "patchline": {
                    "destination": [ "obj-5", 0 ],
                    "source": [ "obj-7", 0 ]
                }
            },
            {
                "patchline": {
                    "destination": [ "obj-85", 0 ],
                    "source": [ "obj-75", 0 ]
                }
            },
            {
                "patchline": {
                    "destination": [ "obj-44", 0 ],
                    "source": [ "obj-83", 0 ]
                }
            },
            {
                "patchline": {
                    "destination": [ "obj-45", 0 ],
                    "source": [ "obj-83", 1 ]
                }
            },
            {
                "patchline": {
                    "destination": [ "obj-45", 0 ],
                    "source": [ "obj-85", 0 ]
                }
            },
            {
                "patchline": {
                    "destination": [ "obj-21", 0 ],
                    "order": 0,
                    "source": [ "obj-9", 0 ]
                }
            },
            {
                "patchline": {
                    "destination": [ "obj-7", 1 ],
                    "order": 1,
                    "source": [ "obj-9", 0 ]
                }
            }
        ],
        "parameters": {
            "obj-14": [ "live.slider", "live.slider", 0 ],
            "parameterbanks": {
                "0": {
                    "index": 0,
                    "name": "",
                    "parameters": [ "-", "-", "-", "-", "-", "-", "-", "-" ],
                    "buttons": [ "-", "-", "-", "-", "-", "-", "-", "-" ]
                }
            },
            "inherited_shortname": 1
        },
        "autosave": 0
    }
}