{
    "patcher": {
        "fileversion": 1,
        "appversion": {
            "major": 9,
            "minor": 1,
            "revision": 0,
            "architecture": "x64",
            "modernui": 1
        },
        "classnamespace": "box",
        "rect": [ -1599.0, 125.0, 1079.0, 730.0 ],
        "toolbars_unpinned_last_save": 4,
        "boxes": [
            {
                "box": {
                    "id": "obj-53",
                    "maxclass": "message",
                    "numinlets": 2,
                    "numoutlets": 1,
                    "outlettype": [ "" ],
                    "patching_rect": [ 928.0, 20.0, 31.0, 22.0 ],
                    "presentation_linecount": 2,
                    "text": "C#5"
                }
            },
            {
                "box": {
                    "id": "obj-52",
                    "maxclass": "message",
                    "numinlets": 2,
                    "numoutlets": 1,
                    "outlettype": [ "" ],
                    "patching_rect": [ 909.0, 44.0, 29.5, 22.0 ],
                    "text": "C-5"
                }
            },
            {
                "box": {
                    "id": "obj-51",
                    "maxclass": "newobj",
                    "numinlets": 1,
                    "numoutlets": 1,
                    "outlettype": [ "" ],
                    "patching_rect": [ 976.0, 192.0, 73.0, 22.0 ],
                    "text": "fromsymbol"
                }
            },
            {
                "box": {
                    "id": "obj-47",
                    "maxclass": "message",
                    "numinlets": 2,
                    "numoutlets": 1,
                    "outlettype": [ "" ],
                    "patching_rect": [ 869.0, 44.0, 29.5, 22.0 ],
                    "text": "B-4"
                }
            },
            {
                "box": {
                    "id": "obj-46",
                    "maxclass": "message",
                    "numinlets": 2,
                    "numoutlets": 1,
                    "outlettype": [ "" ],
                    "patching_rect": [ 852.0, 20.0, 30.0, 22.0 ],
                    "text": "A#4"
                }
            },
            {
                "box": {
                    "id": "obj-45",
                    "maxclass": "message",
                    "numinlets": 2,
                    "numoutlets": 1,
                    "outlettype": [ "" ],
                    "patching_rect": [ 830.25, 44.0, 29.5, 22.0 ],
                    "text": "A-4"
                }
            },
            {
                "box": {
                    "id": "obj-44",
                    "maxclass": "message",
                    "numinlets": 2,
                    "numoutlets": 1,
                    "outlettype": [ "" ],
                    "patching_rect": [ 814.0, 20.0, 31.0, 22.0 ],
                    "presentation_linecount": 2,
                    "text": "G#4"
                }
            },
            {
                "box": {
                    "id": "obj-43",
                    "maxclass": "message",
                    "numinlets": 2,
                    "numoutlets": 1,
                    "outlettype": [ "" ],
                    "patching_rect": [ 792.0, 44.0, 29.5, 22.0 ],
                    "text": "G-4"
                }
            },
            {
                "box": {
                    "id": "obj-42",
                    "maxclass": "message",
                    "numinlets": 2,
                    "numoutlets": 1,
                    "outlettype": [ "" ],
                    "patching_rect": [ 774.0, 20.0, 29.5, 22.0 ],
                    "text": "F#4"
                }
            },
            {
                "box": {
                    "id": "obj-41",
                    "maxclass": "message",
                    "numinlets": 2,
                    "numoutlets": 1,
                    "outlettype": [ "" ],
                    "patching_rect": [ 753.0, 44.0, 29.5, 22.0 ],
                    "text": "F-4"
                }
            },
            {
                "box": {
                    "id": "obj-39",
                    "maxclass": "message",
                    "numinlets": 2,
                    "numoutlets": 1,
                    "outlettype": [ "" ],
                    "patching_rect": [ 712.0, 44.0, 29.5, 22.0 ],
                    "text": "E-4"
                }
            },
            {
                "box": {
                    "id": "obj-38",
                    "maxclass": "message",
                    "numinlets": 2,
                    "numoutlets": 1,
                    "outlettype": [ "" ],
                    "patching_rect": [ 687.0, 20.0, 31.0, 22.0 ],
                    "text": "D#4"
                }
            },
            {
                "box": {
                    "id": "obj-37",
                    "maxclass": "message",
                    "numinlets": 2,
                    "numoutlets": 1,
                    "outlettype": [ "" ],
                    "patching_rect": [ 665.0, 44.0, 29.5, 22.0 ],
                    "text": "D-4"
                }
            },
            {
                "box": {
                    "id": "obj-36",
                    "maxclass": "message",
                    "numinlets": 2,
                    "numoutlets": 1,
                    "outlettype": [ "" ],
                    "patching_rect": [ 619.0, 44.0, 29.5, 22.0 ],
                    "text": "C-4"
                }
            },
            {
                "box": {
                    "id": "obj-33",
                    "maxclass": "newobj",
                    "numinlets": 2,
                    "numoutlets": 2,
                    "outlettype": [ "", "" ],
                    "patching_rect": [ 858.0, 156.0, 73.0, 22.0 ],
                    "text": "string.split 2"
                }
            },
            {
                "box": {
                    "id": "obj-28",
                    "maxclass": "newobj",
                    "numinlets": 2,
                    "numoutlets": 1,
                    "outlettype": [ "" ],
                    "patching_rect": [ 858.0, 221.0, 137.0, 22.0 ],
                    "text": "expr ($i1 + $i2 * 12)"
                }
            },
            {
                "box": {
                    "coll_data": {
                        "count": 12,
                        "data": [
                            {
                                "key": "C-",
                                "value": [ 0 ]
                            },
                            {
                                "key": "C#",
                                "value": [ 1 ]
                            },
                            {
                                "key": "D-",
                                "value": [ 2 ]
                            },
                            {
                                "key": "D#",
                                "value": [ 3 ]
                            },
                            {
                                "key": "E-",
                                "value": [ 4 ]
                            },
                            {
                                "key": "F-",
                                "value": [ 5 ]
                            },
                            {
                                "key": "F#",
                                "value": [ 6 ]
                            },
                            {
                                "key": "G-",
                                "value": [ 7 ]
                            },
                            {
                                "key": "G#",
                                "value": [ 8 ]
                            },
                            {
                                "key": "A-",
                                "value": [ 9 ]
                            },
                            {
                                "key": "A#",
                                "value": [ 10 ]
                            },
                            {
                                "key": "B-",
                                "value": [ 11 ]
                            }
                        ]
                    },
                    "id": "obj-26",
                    "maxclass": "newobj",
                    "numinlets": 1,
                    "numoutlets": 4,
                    "outlettype": [ "", "", "", "" ],
                    "patching_rect": [ 858.0, 192.0, 59.0, 22.0 ],
                    "saved_object_attributes": {
                        "embed": 1,
                        "precision": 6
                    },
                    "text": "coll notes"
                }
            },
            {
                "box": {
                    "id": "obj-23",
                    "maxclass": "button",
                    "numinlets": 1,
                    "numoutlets": 1,
                    "outlettype": [ "bang" ],
                    "parameter_enable": 0,
                    "patching_rect": [ 714.75, 155.0, 24.0, 24.0 ]
                }
            },
            {
                "box": {
                    "id": "obj-18",
                    "maxclass": "message",
                    "numinlets": 2,
                    "numoutlets": 1,
                    "outlettype": [ "" ],
                    "patching_rect": [ 827.0, 265.0, 50.0, 22.0 ],
                    "text": "60"
                }
            },
            {
                "box": {
                    "id": "obj-4",
                    "maxclass": "message",
                    "numinlets": 2,
                    "numoutlets": 1,
                    "outlettype": [ "" ],
                    "patching_rect": [ 644.0, 20.0, 31.0, 22.0 ],
                    "text": "C#4"
                }
            },
            {
                "box": {
                    "id": "obj-27",
                    "maxclass": "newobj",
                    "numinlets": 1,
                    "numoutlets": 2,
                    "outlettype": [ "bang", "" ],
                    "patching_rect": [ 327.0, 160.0, 29.5, 22.0 ],
                    "text": "t b l"
                }
            },
            {
                "box": {
                    "id": "obj-22",
                    "maxclass": "message",
                    "numinlets": 2,
                    "numoutlets": 1,
                    "outlettype": [ "" ],
                    "patching_rect": [ 412.0, 174.0, 154.0, 22.0 ],
                    "text": "keys 29 124 512 -12",
                    "varname": "input_keys[1]"
                }
            },
            {
                "box": {
                    "id": "obj-19",
                    "maxclass": "newobj",
                    "numinlets": 1,
                    "numoutlets": 1,
                    "outlettype": [ "" ],
                    "patching_rect": [ 283.0, 130.0, 81.0, 22.0 ],
                    "text": "prepend keys"
                }
            },
            {
                "box": {
                    "id": "obj-16",
                    "maxclass": "message",
                    "numinlets": 2,
                    "numoutlets": 1,
                    "outlettype": [ "" ],
                    "patching_rect": [ 89.5, 181.0, 74.0, 22.0 ],
                    "text": "key_handler"
                }
            },
            {
                "box": {
                    "id": "obj-14",
                    "maxclass": "newobj",
                    "numinlets": 1,
                    "numoutlets": 2,
                    "outlettype": [ "bang", "" ],
                    "patching_rect": [ 240.5, 100.0, 29.5, 22.0 ],
                    "text": "t b l"
                }
            },
            {
                "box": {
                    "id": "obj-13",
                    "maxclass": "newobj",
                    "numinlets": 4,
                    "numoutlets": 1,
                    "outlettype": [ "" ],
                    "patching_rect": [ 240.5, 74.0, 58.0, 22.0 ],
                    "text": "pack i i i i"
                }
            },
            {
                "box": {
                    "id": "obj-7",
                    "maxclass": "newobj",
                    "numinlets": 0,
                    "numoutlets": 4,
                    "outlettype": [ "int", "int", "int", "int" ],
                    "patching_rect": [ 240.5, 44.0, 50.5, 22.0 ],
                    "text": "key"
                }
            },
            {
                "box": {
                    "id": "obj-6",
                    "maxclass": "number",
                    "numinlets": 1,
                    "numoutlets": 2,
                    "outlettype": [ "", "bang" ],
                    "parameter_enable": 0,
                    "patching_rect": [ 139.0, 36.0, 50.0, 22.0 ]
                }
            },
            {
                "box": {
                    "id": "obj-11",
                    "maxclass": "toggle",
                    "numinlets": 1,
                    "numoutlets": 1,
                    "outlettype": [ "int" ],
                    "parameter_enable": 0,
                    "patching_rect": [ 95.0, 35.0, 24.0, 24.0 ]
                }
            },
            {
                "box": {
                    "id": "obj-9",
                    "maxclass": "newobj",
                    "numinlets": 5,
                    "numoutlets": 4,
                    "outlettype": [ "int", "", "", "int" ],
                    "patching_rect": [ 125.0, 112.0, 65.0, 22.0 ],
                    "text": "counter 15"
                }
            },
            {
                "box": {
                    "id": "obj-8",
                    "maxclass": "newobj",
                    "numinlets": 2,
                    "numoutlets": 1,
                    "outlettype": [ "bang" ],
                    "patching_rect": [ 95.0, 85.0, 63.0, 22.0 ],
                    "text": "metro 120"
                }
            },
            {
                "box": {
                    "id": "obj-5",
                    "maxclass": "message",
                    "numinlets": 2,
                    "numoutlets": 1,
                    "outlettype": [ "" ],
                    "patching_rect": [ 125.0, 480.0, 50.0, 22.0 ],
                    "text": "14"
                }
            },
            {
                "box": {
                    "id": "obj-3",
                    "maxclass": "message",
                    "numinlets": 2,
                    "numoutlets": 1,
                    "outlettype": [ "" ],
                    "patching_rect": [ 47.0, 181.0, 35.0, 22.0 ],
                    "text": "clear"
                }
            },
            {
                "box": {
                    "filename": "zen_tracker_ui.js",
                    "id": "obj-1",
                    "maxclass": "jsui",
                    "numinlets": 3,
                    "numoutlets": 2,
                    "outlettype": [ "", "" ],
                    "parameter_enable": 0,
                    "patching_rect": [ 191.0, 226.0, 411.0, 223.0 ]
                }
            }
        ],
        "lines": [
            {
                "patchline": {
                    "destination": [ "obj-5", 1 ],
                    "source": [ "obj-1", 0 ]
                }
            },
            {
                "patchline": {
                    "destination": [ "obj-8", 0 ],
                    "source": [ "obj-11", 0 ]
                }
            },
            {
                "patchline": {
                    "destination": [ "obj-14", 0 ],
                    "source": [ "obj-13", 0 ]
                }
            },
            {
                "patchline": {
                    "destination": [ "obj-16", 0 ],
                    "source": [ "obj-14", 0 ]
                }
            },
            {
                "patchline": {
                    "destination": [ "obj-19", 0 ],
                    "source": [ "obj-14", 1 ]
                }
            },
            {
                "patchline": {
                    "destination": [ "obj-1", 0 ],
                    "source": [ "obj-16", 0 ]
                }
            },
            {
                "patchline": {
                    "destination": [ "obj-27", 0 ],
                    "source": [ "obj-19", 0 ]
                }
            },
            {
                "patchline": {
                    "destination": [ "obj-1", 2 ],
                    "source": [ "obj-22", 0 ]
                }
            },
            {
                "patchline": {
                    "destination": [ "obj-28", 0 ],
                    "source": [ "obj-26", 0 ]
                }
            },
            {
                "patchline": {
                    "destination": [ "obj-22", 1 ],
                    "source": [ "obj-27", 1 ]
                }
            },
            {
                "patchline": {
                    "destination": [ "obj-22", 0 ],
                    "source": [ "obj-27", 0 ]
                }
            },
            {
                "patchline": {
                    "destination": [ "obj-18", 1 ],
                    "source": [ "obj-28", 0 ]
                }
            },
            {
                "patchline": {
                    "destination": [ "obj-1", 0 ],
                    "source": [ "obj-3", 0 ]
                }
            },
            {
                "patchline": {
                    "destination": [ "obj-26", 0 ],
                    "source": [ "obj-33", 0 ]
                }
            },
            {
                "patchline": {
                    "destination": [ "obj-51", 0 ],
                    "source": [ "obj-33", 1 ]
                }
            },
            {
                "patchline": {
                    "destination": [ "obj-33", 0 ],
                    "source": [ "obj-36", 0 ]
                }
            },
            {
                "patchline": {
                    "destination": [ "obj-33", 0 ],
                    "source": [ "obj-37", 0 ]
                }
            },
            {
                "patchline": {
                    "destination": [ "obj-33", 0 ],
                    "source": [ "obj-38", 0 ]
                }
            },
            {
                "patchline": {
                    "destination": [ "obj-33", 0 ],
                    "source": [ "obj-39", 0 ]
                }
            },
            {
                "patchline": {
                    "destination": [ "obj-33", 0 ],
                    "source": [ "obj-4", 0 ]
                }
            },
            {
                "patchline": {
                    "destination": [ "obj-33", 0 ],
                    "source": [ "obj-41", 0 ]
                }
            },
            {
                "patchline": {
                    "destination": [ "obj-33", 0 ],
                    "source": [ "obj-42", 0 ]
                }
            },
            {
                "patchline": {
                    "destination": [ "obj-33", 0 ],
                    "source": [ "obj-43", 0 ]
                }
            },
            {
                "patchline": {
                    "destination": [ "obj-33", 0 ],
                    "source": [ "obj-44", 0 ]
                }
            },
            {
                "patchline": {
                    "destination": [ "obj-33", 0 ],
                    "source": [ "obj-45", 0 ]
                }
            },
            {
                "patchline": {
                    "destination": [ "obj-33", 0 ],
                    "source": [ "obj-46", 0 ]
                }
            },
            {
                "patchline": {
                    "destination": [ "obj-33", 0 ],
                    "source": [ "obj-47", 0 ]
                }
            },
            {
                "patchline": {
                    "destination": [ "obj-28", 1 ],
                    "source": [ "obj-51", 0 ]
                }
            },
            {
                "patchline": {
                    "destination": [ "obj-33", 0 ],
                    "source": [ "obj-52", 0 ]
                }
            },
            {
                "patchline": {
                    "destination": [ "obj-33", 0 ],
                    "source": [ "obj-53", 0 ]
                }
            },
            {
                "patchline": {
                    "destination": [ "obj-8", 1 ],
                    "source": [ "obj-6", 0 ]
                }
            },
            {
                "patchline": {
                    "destination": [ "obj-13", 3 ],
                    "source": [ "obj-7", 3 ]
                }
            },
            {
                "patchline": {
                    "destination": [ "obj-13", 2 ],
                    "source": [ "obj-7", 2 ]
                }
            },
            {
                "patchline": {
                    "destination": [ "obj-13", 1 ],
                    "source": [ "obj-7", 1 ]
                }
            },
            {
                "patchline": {
                    "destination": [ "obj-13", 0 ],
                    "source": [ "obj-7", 0 ]
                }
            },
            {
                "patchline": {
                    "destination": [ "obj-1", 0 ],
                    "order": 0,
                    "source": [ "obj-8", 0 ]
                }
            },
            {
                "patchline": {
                    "destination": [ "obj-9", 0 ],
                    "order": 1,
                    "source": [ "obj-8", 0 ]
                }
            },
            {
                "patchline": {
                    "destination": [ "obj-1", 1 ],
                    "source": [ "obj-9", 0 ]
                }
            }
        ],
        "autosave": 0
    }
}